<svg width="250" height="644" viewBox="0 0 250 644" fill="none" xmlns="http://www.w3.org/2000/svg">
<g id="Branch">
<path id="Vector" d="M60.523 327.76C63.5456 330.609 65.3128 334.544 65.4357 338.698C65.5587 342.853 64.0273 346.888 61.1786 349.914C58.3299 352.941 54.3971 354.711 50.2455 354.837C46.0938 354.962 42.0633 353.432 39.0407 350.582C32.7465 344.649 29.2677 319.834 29.2677 319.834C29.2677 319.834 54.2288 321.827 60.523 327.76Z" fill="#121212"/>
<path id="Vector_2" d="M129.356 644C95.5042 625.063 74.4305 599.209 66.7194 567.157C60.9939 543.36 62.6392 516.58 71.6089 487.563C78.2584 466.169 88.228 445.961 101.151 427.684C169.706 330.308 175.894 266.857 169.012 230.775C161.468 191.213 136.955 174.782 136.708 174.621L137.766 172.988C138.019 173.153 163.178 189.965 170.904 230.331C175.358 253.602 173.263 280.136 164.676 309.198C153.989 345.366 133.149 385.609 102.736 428.808C89.9314 446.918 80.0523 466.941 73.4628 488.14C58.7515 535.731 56.6702 601.109 130.301 642.3L129.356 644Z" fill="#121212"/>
<path id="Vector_3" d="M67.5297 463.691C40.8424 448.763 41.5854 425.105 46.9081 407.886C49.2681 400.292 52.8067 393.119 57.3938 386.631C81.4108 352.517 83.5812 330.356 81.1729 317.773C78.557 304.108 70.1659 298.498 70.0816 298.443L71.1393 296.81C71.5123 297.053 80.309 302.934 83.0789 317.405C86.6856 336.249 78.5774 359.917 58.9794 387.755C54.5097 394.076 51.0616 401.064 48.7619 408.463C43.652 424.993 42.9241 447.698 68.4746 461.991L67.5297 463.691Z" fill="#121212"/>
<path id="Vector_4" d="M187.599 247.488L186.654 245.786C212.205 231.493 211.477 208.788 206.367 192.258C204.067 184.86 200.619 177.871 196.15 171.55C176.552 143.713 168.443 120.044 172.05 101.201C174.82 86.7296 183.617 80.8482 183.99 80.6052L185.049 82.2372C184.964 82.2934 176.53 87.977 173.941 101.645C171.56 114.221 173.754 136.363 197.735 170.426C202.322 176.914 205.861 184.087 208.221 191.681C213.544 208.899 214.287 232.558 187.599 247.488Z" fill="#121212"/>
<path id="Vector_5" d="M217.865 128.085C216.733 129.808 215.27 131.294 213.56 132.456C211.85 133.618 209.926 134.434 207.898 134.858C205.87 135.282 203.777 135.305 201.74 134.926C199.703 134.547 197.761 133.774 196.026 132.649C194.29 131.525 192.794 130.073 191.624 128.375C190.454 126.677 189.632 124.766 189.206 122.753C188.78 120.74 188.757 118.663 189.14 116.641C189.522 114.619 190.302 112.691 191.435 110.969C196.197 103.724 220.169 95.9149 220.169 95.9149C220.169 95.9149 222.626 120.84 217.865 128.085Z" fill="#121212"/>
<g id="Leave3">
<path id="Vector_6" d="M234.815 66.4041C232.727 69.619 230.028 72.3896 226.872 74.5576C223.716 76.7255 220.166 78.2483 216.423 79.039C212.681 79.8297 208.82 79.8728 205.061 79.1658C201.302 78.4589 197.719 77.0157 194.516 74.9187C191.313 72.8218 188.553 70.1121 186.393 66.9446C184.234 63.777 182.718 60.2136 181.931 56.458C181.145 52.7023 181.103 48.8279 181.809 45.0561C182.515 41.2843 183.955 37.689 186.046 34.4756C194.832 20.9614 239.066 6.39433 239.066 6.39433C239.066 6.39433 243.602 52.8898 234.815 66.4041Z" fill="#121212"/>
</g>
<path id="Vector_7" d="M177.397 411.239C170.566 411.25 163.935 408.928 158.594 404.655C153.253 400.382 149.52 394.412 148.009 387.728C146.498 381.043 147.298 374.041 150.279 367.874C153.26 361.707 158.244 356.741 164.411 353.793C179.066 346.786 223.021 357.044 224.886 357.484L226.064 357.762L225.537 358.856C224.703 360.586 204.945 401.299 190.288 408.305C186.263 410.236 181.858 411.238 177.397 411.239V411.239ZM179.845 353.301C173.884 353.301 168.659 353.92 165.246 355.552C158.506 358.773 153.319 364.549 150.823 371.608C148.328 378.668 148.73 386.433 151.94 393.196C155.15 399.958 160.906 405.164 167.941 407.668C174.976 410.172 182.714 409.769 189.454 406.548C202.203 400.453 219.936 365.764 223.247 359.109C217.949 357.928 196.146 353.301 179.845 353.301V353.301Z" fill="#121212"/>
<g id="Leave2">
<path id="Vector_8" d="M128.555 123.775C131.38 126.361 133.671 129.479 135.295 132.952C136.919 136.425 137.846 140.186 138.022 144.019C138.198 147.851 137.621 151.681 136.322 155.29C135.023 158.899 133.028 162.215 130.452 165.05C127.876 167.886 124.769 170.184 121.307 171.814C117.846 173.444 114.099 174.374 110.279 174.551C106.46 174.727 102.643 174.148 99.0469 172.844C95.4507 171.541 92.1457 169.539 89.3203 166.954C77.4382 156.082 70.2115 109.931 70.2115 109.931C70.2115 109.931 116.673 112.903 128.555 123.775Z" fill="#121212"/>
</g>
<g id="Leave1">
<path id="Vector_9" d="M60.6187 247.4C66.3247 252.621 69.7302 259.902 70.086 267.643C70.4418 275.383 67.7187 282.949 62.5159 288.675C57.313 294.401 50.0566 297.818 42.3429 298.175C34.6291 298.532 27.09 295.799 21.384 290.579C9.50182 279.706 2.27512 233.555 2.27512 233.555C2.27512 233.555 48.7365 236.528 60.6187 247.4Z" fill="#121212"/>
</g>
<path id="Vector_10" d="M117.203 220.375C109.649 214.251 101.001 195.362 100.606 194.493L100.104 193.389L101.289 193.136C102.303 192.921 126.198 187.897 134.126 191.898C138.06 193.884 141.043 197.356 142.42 201.551C143.796 205.746 143.452 210.32 141.464 214.266C139.476 218.213 136.007 221.209 131.819 222.595C127.632 223.981 123.069 223.644 119.135 221.659C118.447 221.3 117.8 220.87 117.203 220.375V220.375ZM102.896 194.798C105.077 199.386 113.638 216.704 120.011 219.92C123.485 221.67 127.513 221.966 131.209 220.741C134.905 219.516 137.967 216.87 139.722 213.387C141.477 209.903 141.781 205.865 140.567 202.162C139.353 198.459 136.721 195.392 133.249 193.637C126.875 190.42 107.878 193.826 102.896 194.798Z" fill="#121212"/>
<path id="Vector_11" d="M130.889 314.463C123.335 308.339 114.687 289.45 114.292 288.581L113.79 287.477L114.976 287.224C115.989 287.009 139.885 281.985 147.812 285.986C151.746 287.972 154.73 291.444 156.106 295.639C157.482 299.834 157.138 304.408 155.15 308.354C153.162 312.301 149.693 315.297 145.505 316.683C141.318 318.069 136.755 317.732 132.821 315.747C132.133 315.388 131.486 314.958 130.889 314.463V314.463ZM116.582 288.886C118.763 293.474 127.324 310.792 133.697 314.008C137.171 315.758 141.199 316.054 144.895 314.829C148.591 313.603 151.653 310.958 153.408 307.475C155.163 303.991 155.467 299.953 154.253 296.25C153.039 292.547 150.407 289.48 146.936 287.725C140.562 284.508 121.564 287.914 116.582 288.886Z" fill="#121212"/>
</g>
</svg>
