<svg width="295" height="60" viewBox="0 0 295 60" fill="none" xmlns="http://www.w3.org/2000/svg">
<g clip-path="url(#clip0_3_235)">
<path d="M29.1848 58.591C45.3031 58.591 58.3696 45.4487 58.3696 29.2368C58.3696 13.0249 45.3031 -0.117432 29.1848 -0.117432C13.0665 -0.117432 0 13.0249 0 29.2368C0 45.4487 13.0665 58.591 29.1848 58.591Z" fill="#03DAC6"/>
<g filter="url(#filter0_d_3_235)">
<path d="M24.2818 58.18C24.2818 58.18 26.7917 58.7084 30.2355 58.591C33.0966 58.4934 35.3136 57.9452 35.3136 57.9452C35.3136 57.9452 29.2014 52.4197 28.8346 43.9695C28.5726 33.2403 39.6706 29.6324 39.2244 19.3535C38.7206 7.75033 30.9943 3.34637 30.9943 3.34637C30.9943 3.34637 36.5724 9.28064 35.9557 19.3535C35.4011 28.4128 21.6761 31.4128 22.2212 43.9695C22.5963 52.6088 24.2818 58.18 24.2818 58.18Z" fill="#121212"/>
<path d="M30.3098 4.21379C31.1621 4.97988 32.3714 4.98845 32.3714 4.98845C32.3714 4.98845 32.199 3.75491 31.3468 2.98883C30.4945 2.22268 29.2852 2.21411 29.2852 2.21411C29.2852 2.21411 29.4576 3.44763 30.3098 4.21379Z" fill="#121212"/>
<path d="M31.3294 3.29328C31.5907 4.4125 32.5764 5.1172 32.5764 5.1172C32.5764 5.1172 33.1386 4.00726 32.8774 2.88806C32.6161 1.76878 31.6304 1.06409 31.6304 1.06409C31.6304 1.06409 31.0681 2.17402 31.3294 3.29328Z" fill="#121212"/>
<path d="M29.0397 47.9353C29.0397 47.9353 28.8444 49.4408 29.4952 50.75C30.146 52.0592 31.2525 53.0412 31.2525 53.0412C31.2525 53.0412 38.2576 48.245 41.1981 43.8364C43.4298 40.4907 43.1304 37.7652 45.3101 34.3852C47.0953 31.6168 50.777 27.9701 50.777 27.9701C50.777 27.9701 45.5965 30.6274 43.1625 33.3378C40.6339 36.1533 41.0476 39.0397 38.5242 41.8598C35.5866 45.1428 29.0397 47.9353 29.0397 47.9353Z" fill="#121212"/>
<path d="M41.991 42.4367C41.991 42.4367 41.307 43.0638 41.0147 43.5494C40.7224 44.0352 40.2989 45.055 40.2989 45.055C40.2989 45.055 44.4006 45.3206 46.7419 44.4658C50.0255 43.267 52.6643 38.1817 52.6643 38.1817C52.6643 38.1817 49.1348 42.2905 46.0261 42.7639C44.4129 43.0096 41.991 42.4367 41.991 42.4367Z" fill="#121212"/>
<path d="M50.7142 37.4499C50.7538 38.6457 51.6167 39.5671 51.6167 39.5671C51.6167 39.5671 52.4155 38.5498 52.376 37.354C52.3364 36.1582 51.4735 35.2369 51.4735 35.2369C51.4735 35.2369 50.6746 36.2542 50.7142 37.4499Z" fill="#121212"/>
<path d="M47.5719 34.0333C46.4471 34.4225 45.2836 33.94 45.2836 33.94C45.2836 33.94 45.9438 32.8267 47.0685 32.4375C48.1933 32.0483 49.3569 32.5306 49.3569 32.5306C49.3569 32.5306 48.6968 33.6441 47.5719 34.0333Z" fill="#121212"/>
<path d="M50.475 26.8208C49.3269 27.771 49.0762 29.333 49.0762 29.333C49.0762 29.333 50.6871 29.3546 51.8352 28.4044C52.9835 27.4541 53.2341 25.8921 53.2341 25.8921C53.2341 25.8921 51.6232 25.8706 50.475 26.8208Z" fill="#121212"/>
<path d="M48.975 26.309C48.5764 27.7497 49.2619 29.174 49.2619 29.174C49.2619 29.174 50.5937 28.2622 50.9924 26.8215C51.3911 25.3807 50.7056 23.9564 50.7056 23.9564C50.7056 23.9564 49.3737 24.8682 48.975 26.309Z" fill="#121212"/>
<path d="M53.0273 37.7954C52.0036 38.2962 51.4178 39.5395 51.4178 39.5395C51.4178 39.5395 52.4918 39.9711 53.5156 39.4705C54.5393 38.9697 55.1251 37.7264 55.1251 37.7264C55.1251 37.7264 54.0511 37.2947 53.0273 37.7954Z" fill="#121212"/>
<path d="M23.6977 37.0809C23.6977 37.0809 24.1746 37.9716 23.6977 39.479C23.2209 40.9863 22.5397 42.9049 22.5397 42.9049C22.5397 42.9049 19.4867 39.779 16.4087 35.1646C14.0729 31.6625 14.8755 28.5599 12.5939 25.0219C10.7253 22.1242 6.38251 18.557 6.38251 18.557C6.38251 18.557 11.805 21.3385 14.3527 24.1754C16.9994 27.1226 16.5663 30.1437 19.2077 33.0956C22.2825 36.5319 23.6977 37.0809 23.6977 37.0809Z" fill="#121212"/>
<path d="M15.579 33.6993C15.579 33.6993 16.2948 34.3556 16.6008 34.8641C16.9068 35.3725 17.3501 36.4399 17.3501 36.4399C17.3501 36.4399 13.0567 36.7181 10.6061 35.8232C7.16911 34.5685 4.40698 29.2457 4.40698 29.2457C4.40698 29.2457 8.10143 33.5463 11.3554 34.0418C13.044 34.2989 15.579 33.6993 15.579 33.6993Z" fill="#121212"/>
<path d="M18.299 27.4014C17.8344 28.5633 16.6576 29.1588 16.6576 29.1588C16.6576 29.1588 16.234 27.8705 16.6985 26.7087C17.1631 25.5468 18.3398 24.9513 18.3398 24.9513C18.3398 24.9513 18.7634 26.2395 18.299 27.4014Z" fill="#121212"/>
<path d="M6.52778 18.3993C7.98603 18.9463 8.76335 20.4063 8.76335 20.4063C8.76335 20.4063 7.17635 20.9797 5.71811 20.4329C4.25977 19.8859 3.48245 18.426 3.48245 18.426C3.48245 18.426 5.06946 17.8525 6.52778 18.3993Z" fill="#121212"/>
<path d="M9.55268 18.4408C9.47611 19.5562 8.63963 20.3879 8.63963 20.3879C8.63963 20.3879 7.92721 19.411 8.00374 18.2955C8.08028 17.1801 8.91675 16.3484 8.91675 16.3484C8.91675 16.3484 9.62917 17.3252 9.55268 18.4408Z" fill="#121212"/>
<path d="M7.72462 36.3414C8.76686 36.218 9.82525 35.2691 9.82525 35.2691C9.82525 35.2691 9.19388 34.5199 8.1517 34.6432C7.10943 34.7665 6.05103 35.7156 6.05103 35.7156C6.05103 35.7156 6.6824 36.4647 7.72462 36.3414Z" fill="#121212"/>
<path d="M4.63579 28.9264C5.80079 29.7603 6.27017 31.4227 6.27017 31.4227C6.27017 31.4227 4.85069 31.7334 3.6857 30.8997C2.52062 30.066 2.05124 28.4035 2.05124 28.4035C2.05124 28.4035 3.47072 28.0928 4.63579 28.9264Z" fill="#121212"/>
<path d="M27.8469 32.62C27.8469 32.62 28.3355 29.8114 27.7771 28.056C26.7718 24.8962 21.6067 23.0706 20.8659 17.7341C20.2829 13.5354 24.0073 9.44867 24.0073 9.44867C24.0073 9.44867 22.0526 13.8917 23.1696 17.5937C24.2866 21.2958 30.2645 24.235 30.9884 25.809C31.6989 27.3537 31.6989 29.0685 31.6989 29.0685C31.6989 29.0685 30.913 30.0407 29.9413 31.005C28.9516 31.9871 27.8469 32.62 27.8469 32.62Z" fill="#121212"/>
<path d="M21.5079 8.33471C21.7994 9.91186 23.1275 10.9588 23.1275 10.9588C23.1275 10.9588 23.9832 9.44869 23.6917 7.87157C23.4002 6.29433 22.0721 5.24738 22.0721 5.24738C22.0721 5.24738 21.2164 6.75751 21.5079 8.33471Z" fill="#121212"/>
<path d="M26.1167 10.7211C24.6845 11.4269 23.0566 10.9797 23.0566 10.9797C23.0566 10.9797 23.7508 9.38796 25.183 8.68208C26.6153 7.97616 28.2432 8.4234 28.2432 8.4234C28.2432 8.4234 27.5489 10.0151 26.1167 10.7211Z" fill="#121212"/>
<path d="M19.7524 19.8236C18.8905 19.0743 18.7272 17.8733 18.7272 17.8733C18.7272 17.8733 19.9615 17.8868 20.8235 18.6359C21.6855 19.3852 21.8487 20.5863 21.8487 20.5863C21.8487 20.5863 20.6144 20.5728 19.7524 19.8236Z" fill="#121212"/>
<path d="M37.2281 25.1147L32.1879 33.8841C35.3547 29.2904 47.3934 19.0922 47.3934 19.0922C47.3934 19.0922 39.965 23.0938 37.2281 25.1147Z" fill="#121212"/>
<path d="M48.2127 20.6175C46.6982 21.1062 45.1558 20.4286 45.1558 20.4286C45.1558 20.4286 46.0693 18.9585 47.5839 18.4698C49.0985 17.981 50.6409 18.6587 50.6409 18.6587C50.6409 18.6587 49.7274 20.1286 48.2127 20.6175Z" fill="#121212"/>
<path d="M45.1639 17.4899C44.6781 19.0134 45.3518 20.5647 45.3518 20.5647C45.3518 20.5647 46.8134 19.646 47.2992 18.1226C47.7852 16.5991 47.1116 15.0478 47.1116 15.0478C47.1116 15.0478 45.65 15.9666 45.1639 17.4899Z" fill="#121212"/>
</g>
<path d="M73.799 11.8077C75.435 11.8077 76.8314 12.3897 77.9887 13.5535C79.1591 14.7174 79.7443 16.122 79.7443 17.7674C79.7443 19.4263 78.8997 20.9714 77.2106 22.4028C78.7002 22.7104 80.1034 23.5934 81.4201 25.0515C83.5482 27.2054 84.6122 29.8072 84.6122 32.8573C84.6122 35.8941 83.5482 38.5227 81.4201 40.7434C79.4383 42.8036 77.0709 43.8537 74.3177 43.8938V43.9139H68.1331V11.8077H73.799ZM69.9287 23.7472V42.1079H74.3177V42.128C76.5389 41.9809 78.4541 41.0644 80.0635 39.3789C81.8324 37.5462 82.717 35.3723 82.717 32.8573C82.717 30.3424 81.8324 28.1953 80.0635 26.4161C78.2945 24.6369 76.1598 23.7472 73.6594 23.7472H69.9287ZM69.9287 13.6137V21.8209H74.2579C75.2555 21.7272 76.1066 21.3526 76.8116 20.6972C77.6228 19.948 78.0285 18.9714 78.0285 17.7674C78.0285 16.5634 77.6228 15.5735 76.8116 14.7976C76.0003 14.0083 74.9961 13.6137 73.799 13.6137H69.9287ZM92.669 24.2088H94.4646V27.8007C94.8369 27.2655 95.2692 26.7505 95.7614 26.2555C97.3442 24.6635 98.9667 23.8275 100.629 23.7472V25.7137C99.4988 25.7672 98.3284 26.4027 97.118 27.62C95.4156 29.319 94.5311 31.3591 94.4646 33.7402V43.9139H92.669V24.2088ZM110.502 24.2088V43.9139H108.706V24.2088H110.502ZM109.604 17.2256C110.096 17.2256 110.515 17.3995 110.861 17.7473C111.22 18.0952 111.399 18.5166 111.399 19.0116C111.399 19.5198 111.22 19.948 110.861 20.2959C110.515 20.6436 110.096 20.8175 109.604 20.8175C109.112 20.8175 108.686 20.6436 108.327 20.2959C107.981 19.948 107.808 19.5198 107.808 19.0116C107.808 18.5166 107.981 18.0952 108.327 17.7473C108.686 17.3995 109.112 17.2256 109.604 17.2256ZM141.302 43.9139H139.507V39.9006C139.161 40.3689 138.782 40.817 138.37 41.2451C136.228 43.3989 133.641 44.4757 130.609 44.4757C127.589 44.4757 125.009 43.3989 122.868 41.2451C120.726 39.0912 119.655 36.4961 119.655 33.4593C119.655 30.4092 120.726 27.8074 122.868 25.6535C125.009 23.4997 127.589 22.4229 130.609 22.4229C133.641 22.4229 136.228 23.4997 138.37 25.6535C138.782 26.0816 139.161 26.5298 139.507 26.998V24.2088H141.302V43.9139ZM139.507 35.2453V31.6734C139.174 29.9076 138.343 28.3558 137.013 27.0181C135.244 25.2389 133.11 24.3492 130.609 24.3492C128.108 24.3492 125.973 25.2389 124.205 27.0181C122.436 28.7973 121.551 30.9444 121.551 33.4593C121.551 35.9743 122.436 38.1214 124.205 39.9006C125.973 41.6664 128.108 42.5494 130.609 42.5494C133.11 42.5494 135.244 41.6597 137.013 39.8805C138.343 38.5428 139.174 36.9977 139.507 35.2453ZM152.352 28.6032V43.9139H150.556V24.2088H152.352V25.4729C153.987 23.8409 155.889 23.0249 158.058 23.0249C160.372 23.0249 162.254 23.7539 163.703 25.2121C165.153 26.6702 165.898 28.5096 165.938 30.7303V43.9139H164.142V30.8908C164.142 29.2186 163.538 27.794 162.327 26.6168C161.129 25.4262 159.706 24.8308 158.058 24.8308C156.408 24.8308 154.985 25.4128 153.788 26.5766C153.136 27.232 152.658 27.9076 152.352 28.6032ZM175.212 43.9139V11.8077H177.007V42.1079H189.377V43.9139H175.212ZM199.887 40.2217C201.576 41.7735 203.585 42.5494 205.913 42.5494C208.413 42.5494 210.547 41.6597 212.316 39.8805C212.542 39.6532 212.755 39.4191 212.954 39.1782L214.85 39.8606C214.505 40.3421 214.113 40.8036 213.674 41.2451C211.531 43.3989 208.945 44.4757 205.913 44.4757C202.893 44.4757 200.313 43.3989 198.172 41.2451C196.03 39.0912 194.959 36.4894 194.959 33.4393C194.959 30.4025 196.03 27.8074 198.172 25.6535C200.313 23.4997 202.893 22.4229 205.913 22.4229C208.506 22.4229 210.774 23.2054 212.715 24.7706C213.035 25.0382 213.354 25.3325 213.674 25.6535C213.793 25.7739 213.906 25.8943 214.012 26.0148L212.656 27.3793L199.887 40.2217ZM211.339 26.1552C209.783 24.9512 207.974 24.3492 205.913 24.3492C203.425 24.3492 201.297 25.2389 199.528 27.0181C197.76 28.7839 196.875 30.9243 196.875 33.4393C196.875 35.5128 197.474 37.3321 198.67 38.8973L211.339 26.1552ZM232.344 38.6966V24.2088H234.139V38.2552C234.139 39.4325 234.531 40.4157 235.316 41.205C236.114 41.9942 237.066 42.3889 238.169 42.3889C239.273 42.3889 240.224 41.9942 241.022 41.205C241.754 40.4691 242.146 39.5796 242.199 38.5361H242.179V24.2088H243.974V38.5361C243.922 40.0745 243.357 41.3856 242.279 42.4691C241.148 43.6195 239.779 44.1949 238.169 44.1949C236.56 44.1949 235.19 43.6195 234.06 42.4691C233.754 42.1615 233.488 41.8403 233.261 41.5059C233.035 41.8403 232.763 42.1615 232.443 42.4691C231.313 43.6195 229.942 44.1949 228.334 44.1949C226.724 44.1949 225.355 43.6195 224.223 42.4691C223.147 41.3856 222.581 40.0745 222.528 38.5361V24.2088H224.324V38.5361H224.304C224.356 39.5796 224.756 40.4691 225.5 41.205C226.285 41.9942 227.229 42.3889 228.334 42.3889C229.438 42.3889 230.388 41.9942 231.187 41.205C231.865 40.5227 232.25 39.6865 232.344 38.6966ZM260.291 42.1481L255.862 51.4388H254.106L259.393 40.2818L251.753 24.2088H253.788L260.291 38.3354L266.795 24.2088H268.81L260.291 42.1681V42.1481ZM278.383 28.6032V43.9139H276.588V24.2088H278.383V25.4729C280.019 23.8409 281.921 23.0249 284.09 23.0249C286.403 23.0249 288.285 23.7539 289.735 25.2121C291.185 26.6702 291.93 28.5096 291.969 30.7303V43.9139H290.174V30.8908C290.174 29.2186 289.569 27.794 288.359 26.6168C287.161 25.4262 285.738 24.8308 284.09 24.8308C282.44 24.8308 281.017 25.4128 279.819 26.5766C279.168 27.232 278.689 27.9076 278.383 28.6032Z" fill="#121212"/>
<path d="M77.9887 13.5535L77.1632 14.3838L77.1656 14.3861L77.1679 14.3885L77.9887 13.5535ZM77.2106 22.4028L76.4583 21.5048L74.6165 23.0656L76.9757 23.5529L77.2106 22.4028ZM81.4201 25.0515L80.556 25.841L80.5736 25.8605L80.5921 25.8791L81.4201 25.0515ZM81.4201 40.7434L82.2591 41.5598L82.2599 41.5591L82.2606 41.5583L81.4201 40.7434ZM74.3177 43.8938L74.3008 42.7197L73.1503 42.7365V43.8938H74.3177ZM74.3177 43.9139V45.088H75.4851V43.9139H74.3177ZM68.1331 43.9139H66.9657V45.088H68.1331V43.9139ZM68.1331 11.8077V10.6335H66.9657V11.8077H68.1331ZM69.9287 23.7472V22.573H68.7613V23.7472H69.9287ZM69.9287 42.1079H68.7613V43.2821H69.9287V42.1079ZM74.3177 42.1079H75.4851V40.9337H74.3177V42.1079ZM74.3177 42.128H73.1503V43.382L74.3945 43.2996L74.3177 42.128ZM80.0635 39.3789L79.2259 38.561L79.2237 38.5633L79.2214 38.5655L80.0635 39.3789ZM69.9287 13.6136V12.4395H68.7613V13.6136H69.9287ZM69.9287 21.8208H68.7613V22.995H69.9287V21.8208ZM74.2579 21.8208V22.995H74.3122L74.3664 22.99L74.2579 21.8208ZM76.8116 20.6972L76.0221 19.8322L76.0206 19.8336L76.0191 19.835L76.8116 20.6972ZM76.8116 14.7976L75.9999 15.6415L76.0035 15.6451L76.0072 15.6485L76.8116 14.7976ZM73.799 12.9818C75.1253 12.9818 76.2249 13.44 77.1632 14.3838L78.8141 12.7233C77.4381 11.3393 75.7447 10.6335 73.799 10.6335V12.9818ZM77.1679 14.3885C78.118 15.3332 78.5769 16.4379 78.5769 17.7674H80.9117C80.9117 15.806 80.2001 14.1014 78.8094 12.7185L77.1679 14.3885ZM78.5769 17.7674C78.5769 18.9722 77.979 20.2162 76.4583 21.5048L77.9628 23.3006C79.8204 21.7264 80.9117 19.8803 80.9117 17.7674H78.5769ZM76.9757 23.5529C78.1612 23.7978 79.3577 24.5139 80.556 25.841L82.2843 24.2621C80.8491 22.6727 79.2392 21.6231 77.4454 21.2525L76.9757 23.5529ZM80.5921 25.8791C82.5017 27.8119 83.4448 30.1158 83.4448 32.8573H85.7796C85.7796 29.4986 84.5947 26.5988 82.2481 24.2238L80.5921 25.8791ZM83.4448 32.8573C83.4448 35.5848 82.5016 37.9229 80.5796 39.9285L82.2606 41.5583C84.5947 39.1226 85.7796 36.2032 85.7796 32.8573H83.4448ZM80.5811 39.927C78.8068 41.7715 76.7316 42.6843 74.3008 42.7197L74.3346 45.0679C77.4101 45.023 80.0699 43.8356 82.2591 41.5598L80.5811 39.927ZM73.1503 43.8938V43.9139H75.4851V43.8938H73.1503ZM74.3177 42.7397H68.1331V45.088H74.3177V42.7397ZM69.3005 43.9139V11.8077H66.9657V43.9139H69.3005ZM68.1331 12.9818H73.799V10.6335H68.1331V12.9818ZM68.7613 23.7472V42.1079H71.096V23.7472H68.7613ZM69.9287 43.2821H74.3177V40.9337H69.9287V43.2821ZM73.1503 42.1079V42.128H75.4851V42.1079H73.1503ZM74.3945 43.2996C76.9199 43.1322 79.1041 42.0789 80.9055 40.1921L79.2214 38.5655C77.8041 40.05 76.1579 40.8293 74.241 40.9564L74.3945 43.2996ZM80.9011 40.1968C82.8778 38.1487 83.8844 35.683 83.8844 32.8573H81.5496C81.5496 35.0616 80.787 36.9435 79.2259 38.561L80.9011 40.1968ZM83.8844 32.8573C83.8844 30.0307 82.8767 27.5851 80.889 25.5857L79.238 27.2463C80.7882 28.8054 81.5496 30.6539 81.5496 32.8573H83.8844ZM80.889 25.5857C78.9012 23.5864 76.4697 22.573 73.6594 22.573V24.9214C75.85 24.9214 77.6878 25.6871 79.238 27.2463L80.889 25.5857ZM73.6594 22.573H69.9287V24.9214H73.6594V22.573ZM68.7613 13.6136V21.8208H71.096V13.6136H68.7613ZM69.9287 22.995H74.2579V20.6467H69.9287V22.995ZM74.3664 22.99C75.6073 22.8734 76.7022 22.3978 77.604 21.5592L76.0191 19.835C75.511 20.3073 74.9035 20.5809 74.1494 20.6517L74.3664 22.99ZM77.601 21.5621C78.6756 20.5699 79.1959 19.2683 79.1959 17.7674H76.8611C76.8611 18.6745 76.5702 19.3261 76.0221 19.8322L77.601 21.5621ZM79.1959 17.7674C79.1959 16.2667 78.6764 14.9608 77.6159 13.9466L76.0072 15.6485C76.5694 16.1862 76.8611 16.8602 76.8611 17.7674H79.1959ZM77.6232 13.9536C76.58 12.9388 75.2787 12.4395 73.799 12.4395V14.7878C74.7134 14.7878 75.4204 15.0778 75.9999 15.6415L77.6232 13.9536ZM73.799 12.4395H69.9287V14.7878H73.799V12.4395ZM92.669 24.2087V23.0346H91.5016V24.2087H92.669ZM94.4646 24.2087H95.6319V23.0346H94.4646V24.2087ZM94.4646 27.8006H93.2972V31.5255L95.421 28.4739L94.4646 27.8006ZM95.7614 26.2554L96.5869 27.0857L95.7614 26.2554ZM100.629 23.7472H101.797V22.5154L100.573 22.5744L100.629 23.7472ZM100.629 25.7137L100.684 26.8866L101.797 26.834V25.7137H100.629ZM97.118 27.6199L97.9402 28.4535L97.9419 28.4518L97.9435 28.4503L97.118 27.6199ZM94.4646 33.7402L93.2976 33.7073L93.2972 33.7237V33.7402H94.4646ZM94.4646 43.9139V45.088H95.6319V43.9139H94.4646ZM92.669 43.9139H91.5016V45.088H92.669V43.9139ZM92.669 25.3829H94.4646V23.0346H92.669V25.3829ZM93.2972 24.2087V27.8006H95.6319V24.2087H93.2972ZM95.421 28.4739C95.7517 27.9987 96.1394 27.5358 96.5869 27.0857L94.9359 25.4252C94.3991 25.9652 93.9223 26.5323 93.5082 27.1273L95.421 28.4739ZM96.5869 27.0857C98.0362 25.628 99.4003 24.9821 100.685 24.9201L100.573 22.5744C98.5333 22.6728 96.652 23.6992 94.9359 25.4252L96.5869 27.0857ZM99.4619 23.7472V25.7137H101.797V23.7472H99.4619ZM100.574 24.5408C99.0358 24.6136 97.6061 25.4685 96.2926 26.7897L97.9435 28.4503C99.0507 27.3367 99.9618 26.9207 100.684 26.8866L100.574 24.5408ZM96.2958 26.7865C94.3835 28.6949 93.3727 31.0203 93.2976 33.7073L95.6315 33.7732C95.6895 31.6977 96.4477 29.943 97.9402 28.4535L96.2958 26.7865ZM93.2972 33.7402V43.9139H95.6319V33.7402H93.2972ZM94.4646 42.7397H92.669V45.088H94.4646V42.7397ZM93.8364 43.9139V24.2087H91.5016V43.9139H93.8364ZM110.502 24.2087H111.669V23.0346H110.502V24.2087ZM110.502 43.9139V45.088H111.669V43.9139H110.502ZM108.706 43.9139H107.539V45.088H108.706V43.9139ZM108.706 24.2087V23.0346H107.539V24.2087H108.706ZM110.861 17.7473L110.035 18.5777L110.043 18.5854L110.051 18.5932L110.861 17.7473ZM110.861 20.2958L110.051 19.45L110.043 19.4577L110.035 19.4655L110.861 20.2958ZM108.327 20.2958L107.502 21.1261L107.509 21.1338L107.517 21.1416L108.327 20.2958ZM108.327 17.7473L107.517 16.9015L107.509 16.9093L107.502 16.917L108.327 17.7473ZM109.334 24.2087V43.9139H111.669V24.2087H109.334ZM110.502 42.7397H108.706V45.088H110.502V42.7397ZM109.874 43.9139V24.2087H107.539V43.9139H109.874ZM108.706 25.3829H110.502V23.0346H108.706V25.3829ZM109.604 18.3998C109.789 18.3998 109.91 18.4516 110.035 18.5777L111.686 16.917C111.12 16.3476 110.403 16.0515 109.604 16.0515V18.3998ZM110.051 18.5932C110.185 18.7229 110.232 18.8403 110.232 19.0115H112.567C112.567 18.1928 112.255 17.4675 111.671 16.9015L110.051 18.5932ZM110.232 19.0115C110.232 19.2057 110.178 19.3269 110.051 19.45L111.671 21.1416C112.262 20.5689 112.567 19.834 112.567 19.0115H110.232ZM110.035 19.4655C109.91 19.5916 109.789 19.6433 109.604 19.6433V21.9917C110.403 21.9917 111.12 21.6956 111.686 21.1261L110.035 19.4655ZM109.604 19.6433C109.418 19.6433 109.282 19.5902 109.137 19.45L107.517 21.1416C108.091 21.697 108.805 21.9917 109.604 21.9917V19.6433ZM109.152 19.4655C109.034 19.3461 108.976 19.2201 108.976 19.0115H106.641C106.641 19.8196 106.929 20.5499 107.502 21.1261L109.152 19.4655ZM108.976 19.0115C108.976 18.8258 109.027 18.7037 109.152 18.5777L107.502 16.917C106.935 17.4866 106.641 18.2073 106.641 19.0115H108.976ZM109.137 18.5932C109.282 18.453 109.418 18.3998 109.604 18.3998V16.0515C108.805 16.0515 108.091 16.3462 107.517 16.9015L109.137 18.5932ZM141.302 43.9139V45.088H142.47V43.9139H141.302ZM139.507 43.9139H138.339V45.088H139.507V43.9139ZM139.507 39.9006H140.674V36.3509L138.569 39.2004L139.507 39.9006ZM138.37 41.2451L139.195 42.0754L139.201 42.0687L139.208 42.062L138.37 41.2451ZM138.37 25.6534L139.208 24.8365L139.201 24.8298L139.195 24.8232L138.37 25.6534ZM139.507 26.998L138.569 27.6981L140.674 30.5476V26.998H139.507ZM139.507 24.2087V23.0346H138.339V24.2087H139.507ZM141.302 24.2087H142.47V23.0346H141.302V24.2087ZM139.507 35.2452L140.653 35.4653L140.674 35.3563V35.2452H139.507ZM139.507 31.6734H140.674V31.5632L140.653 31.4549L139.507 31.6734ZM137.013 27.0181L136.187 27.8483L137.013 27.0181ZM124.205 39.9006L123.379 40.7308L123.381 40.7325L123.382 40.734L124.205 39.9006ZM137.013 39.8805L136.187 39.0502L137.013 39.8805ZM141.302 42.7397H139.507V45.088H141.302V42.7397ZM140.674 43.9139V39.9006H138.339V43.9139H140.674ZM138.569 39.2004C138.254 39.6268 137.909 40.0359 137.53 40.4281L139.208 42.062C139.655 41.5981 140.067 41.1109 140.443 40.6008L138.569 39.2004ZM137.544 40.4147C135.622 42.348 133.333 43.3015 130.609 43.3015V45.6499C133.95 45.6499 136.835 44.4496 139.195 42.0754L137.544 40.4147ZM130.609 43.3015C127.901 43.3015 125.616 42.3492 123.693 40.4147L122.043 42.0754C124.402 44.4486 127.278 45.6499 130.609 45.6499V43.3015ZM123.693 40.4147C121.769 38.4804 120.823 36.1835 120.823 33.4593H118.488C118.488 36.8085 119.682 39.7021 122.043 42.0754L123.693 40.4147ZM120.823 33.4593C120.823 30.7201 121.771 28.417 123.693 26.4837L122.043 24.8232C119.682 27.1976 118.488 30.0983 118.488 33.4593H120.823ZM123.693 26.4837C125.616 24.5494 127.901 23.597 130.609 23.597V21.2487C127.278 21.2487 124.402 22.45 122.043 24.8232L123.693 26.4837ZM130.609 23.597C133.333 23.597 135.622 24.5505 137.544 26.4837L139.195 24.8232C136.835 22.4489 133.95 21.2487 130.609 21.2487V23.597ZM137.53 26.4704C137.909 26.8626 138.254 27.2718 138.569 27.6981L140.443 26.2977C140.067 25.7877 139.655 25.3005 139.208 24.8365L137.53 26.4704ZM140.674 26.998V24.2087H138.339V26.998H140.674ZM139.507 25.3829H141.302V23.0346H139.507V25.3829ZM140.135 24.2087V43.9139H142.47V24.2087H140.135ZM140.674 35.2452V31.6734H138.339V35.2452H140.674ZM140.653 31.4549C140.275 29.4447 139.325 27.683 137.839 26.1877L136.187 27.8483C137.361 29.0285 138.073 30.3704 138.359 31.8919L140.653 31.4549ZM137.839 26.1877C135.851 24.1884 133.419 23.175 130.609 23.175V25.5233C132.799 25.5233 134.638 26.2891 136.187 27.8483L137.839 26.1877ZM130.609 23.175C127.798 23.175 125.366 24.1884 123.379 26.1877L125.03 27.8483C126.58 26.2891 128.418 25.5233 130.609 25.5233V23.175ZM123.379 26.1877C121.391 28.1871 120.384 30.6327 120.384 33.4593H122.719C122.719 31.2559 123.48 29.4074 125.03 27.8483L123.379 26.1877ZM120.384 33.4593C120.384 36.2859 121.391 38.7316 123.379 40.7308L125.03 39.0703C123.48 37.5113 122.719 35.6628 122.719 33.4593H120.384ZM123.382 40.734C125.371 42.7189 127.801 43.7235 130.609 43.7235V41.3752C128.415 41.3752 126.577 40.614 125.027 39.0673L123.382 40.734ZM130.609 43.7235C133.419 43.7235 135.851 42.7101 137.839 40.7107L136.187 39.0502C134.638 40.6094 132.799 41.3752 130.609 41.3752V43.7235ZM137.839 40.7107C139.324 39.2172 140.274 37.4632 140.653 35.4653L138.359 35.0251C138.074 36.5321 137.362 37.8683 136.187 39.0502L137.839 40.7107ZM152.352 28.6032L151.284 28.1282L151.184 28.3552V28.6032H152.352ZM152.352 43.9139V45.088H153.519V43.9139H152.352ZM150.556 43.9139H149.389V45.088H150.556V43.9139ZM150.556 24.2087V23.0346H149.389V24.2087H150.556ZM152.352 24.2087H153.519V23.0346H152.352V24.2087ZM152.352 25.4729H151.184V28.2913L153.174 26.3065L152.352 25.4729ZM165.938 30.7303H167.105V30.7196V30.7091L165.938 30.7303ZM165.938 43.9139V45.088H167.105V43.9139H165.938ZM164.142 43.9139H162.975V45.088H164.142V43.9139ZM162.327 26.6167L161.506 27.4516L161.511 27.4561L161.516 27.4607L162.327 26.6167ZM153.788 26.5766L152.976 25.7324L152.969 25.7393L152.962 25.7463L153.788 26.5766ZM151.184 28.6032V43.9139H153.519V28.6032H151.184ZM152.352 42.7397H150.556V45.088H152.352V42.7397ZM151.724 43.9139V24.2087H149.389V43.9139H151.724ZM150.556 25.3829H152.352V23.0346H150.556V25.3829ZM151.184 24.2087V25.4729H153.519V24.2087H151.184ZM153.174 26.3065C154.606 24.8774 156.218 24.199 158.058 24.199V21.8507C155.561 21.8507 153.368 22.8042 151.53 24.6392L153.174 26.3065ZM158.058 24.199C160.105 24.199 161.676 24.8334 162.878 26.0423L164.529 24.3818C162.831 22.6743 160.638 21.8507 158.058 21.8507V24.199ZM162.878 26.0423C164.097 27.2679 164.735 28.8091 164.77 30.7514L167.105 30.7091C167.06 28.2101 166.21 26.0725 164.529 24.3818L162.878 26.0423ZM164.77 30.7303V43.9139H167.105V30.7303H164.77ZM165.938 42.7397H164.142V45.088H165.938V42.7397ZM165.31 43.9139V30.8908H162.975V43.9139H165.31ZM165.31 30.8908C165.31 28.8958 164.573 27.1679 163.138 25.7726L161.516 27.4607C162.501 28.4199 162.975 29.5414 162.975 30.8908H165.31ZM163.148 25.7818C161.738 24.3789 160.021 23.6567 158.058 23.6567V26.005C159.392 26.005 160.522 26.4733 161.506 27.4516L163.148 25.7818ZM158.058 23.6567C156.103 23.6567 154.389 24.359 152.976 25.7324L154.599 27.4208C155.581 26.4663 156.714 26.005 158.058 26.005V23.6567ZM152.962 25.7463C152.23 26.4824 151.659 27.2747 151.284 28.1282L153.419 29.0783C153.656 28.5405 154.042 27.9816 154.613 27.4068L152.962 25.7463ZM175.212 43.9139H174.044V45.088H175.212V43.9139ZM175.212 11.8077V10.6335H174.044V11.8077H175.212ZM177.007 11.8077H178.174V10.6335H177.007V11.8077ZM177.007 42.1079H175.84V43.2821H177.007V42.1079ZM189.377 42.1079H190.544V40.9337H189.377V42.1079ZM189.377 43.9139V45.088H190.544V43.9139H189.377ZM176.379 43.9139V11.8077H174.044V43.9139H176.379ZM175.212 12.9818H177.007V10.6335H175.212V12.9818ZM175.84 11.8077V42.1079H178.174V11.8077H175.84ZM177.007 43.2821H189.377V40.9337H177.007V43.2821ZM188.209 42.1079V43.9139H190.544V42.1079H188.209ZM189.377 42.7397H175.212V45.088H189.377V42.7397ZM199.887 40.2217L199.061 39.3915L198.199 40.2601L199.1 41.0886L199.887 40.2217ZM212.316 39.8805L211.491 39.0502L212.316 39.8805ZM212.954 39.1782L213.348 38.0727L212.58 37.7962L212.058 38.4265L212.954 39.1782ZM214.85 39.8605L215.797 40.5479L216.706 39.2814L215.244 38.7549L214.85 39.8605ZM212.715 24.7706L213.462 23.8686L213.454 23.8613L213.446 23.8543L212.715 24.7706ZM214.012 26.0147L214.837 26.845L215.616 26.0621L214.885 25.2346L214.012 26.0147ZM211.339 26.1552L212.164 26.9854L213.104 26.0399L212.051 25.2245L211.339 26.1552ZM199.528 27.0181L200.35 27.8514L200.353 27.8498L200.354 27.8483L199.528 27.0181ZM198.67 38.8972L197.745 39.6131L198.556 40.6732L199.496 39.7275L198.67 38.8972ZM199.1 41.0886C201.009 42.8419 203.299 43.7235 205.913 43.7235V41.3752C203.871 41.3752 202.144 40.7051 200.675 39.3547L199.1 41.0886ZM205.913 43.7235C208.723 43.7235 211.154 42.7101 213.142 40.7107L211.491 39.0502C209.94 40.6094 208.103 41.3752 205.913 41.3752V43.7235ZM213.142 40.7107C213.392 40.4589 213.629 40.1987 213.852 39.9299L212.058 38.4265C211.882 38.6394 211.693 38.8473 211.491 39.0502L213.142 40.7107ZM212.561 40.2837L214.457 40.966L215.244 38.7549L213.348 38.0727L212.561 40.2837ZM213.904 39.1731C213.597 39.6014 213.245 40.0154 212.847 40.4147L214.499 42.0754C214.979 41.5918 215.413 41.0828 215.797 40.5479L213.904 39.1731ZM212.847 40.4147C210.926 42.348 208.635 43.3015 205.913 43.3015V45.6499C209.254 45.6499 212.139 44.4496 214.499 42.0754L212.847 40.4147ZM205.913 43.3015C203.203 43.3015 200.92 42.3492 198.997 40.4147L197.346 42.0754C199.706 44.4486 202.582 45.6499 205.913 45.6499V43.3015ZM198.997 40.4147C197.074 38.4816 196.127 36.1785 196.127 33.4392H193.792C193.792 36.8003 194.986 39.701 197.346 42.0754L198.997 40.4147ZM196.127 33.4392C196.127 30.715 197.073 28.4181 198.997 26.4837L197.346 24.8232C194.986 27.1964 193.792 30.09 193.792 33.4392H196.127ZM198.997 26.4837C200.92 24.5494 203.203 23.597 205.913 23.597V21.2487C202.582 21.2487 199.706 22.45 197.346 24.8232L198.997 26.4837ZM205.913 23.597C208.252 23.597 210.26 24.2961 211.986 25.6868L213.446 23.8543C211.287 22.1147 208.759 21.2487 205.913 21.2487V23.597ZM211.968 25.6726C212.258 25.9156 212.552 26.1857 212.847 26.4837L214.499 24.8232C214.157 24.4792 213.811 24.1607 213.462 23.8686L211.968 25.6726ZM212.847 26.4837C212.952 26.5888 213.049 26.6925 213.14 26.7947L214.885 25.2346C214.763 25.0961 214.633 24.9589 214.499 24.8232L212.847 26.4837ZM213.187 25.1845L211.83 26.549L213.481 28.2095L214.837 26.845L213.187 25.1845ZM211.83 26.549L199.061 39.3915L200.713 41.052L213.481 28.2095L211.83 26.549ZM212.051 25.2245C210.28 23.8544 208.217 23.175 205.913 23.175V25.5233C207.73 25.5233 209.285 26.048 210.627 27.0858L212.051 25.2245ZM205.913 23.175C203.113 23.175 200.689 24.1897 198.703 26.1877L200.354 27.8483C201.905 26.2879 203.737 25.5233 205.913 25.5233V23.175ZM198.705 26.1846C196.715 28.1717 195.707 30.6124 195.707 33.4392H198.042C198.042 31.236 198.803 29.396 200.35 27.8514L198.705 26.1846ZM195.707 33.4392C195.707 35.7579 196.382 37.832 197.745 39.6131L199.596 38.1814C198.564 36.8322 198.042 35.2677 198.042 33.4392H195.707ZM199.496 39.7275L212.164 26.9854L210.513 25.3249L197.845 38.067L199.496 39.7275ZM232.344 38.6966L233.505 38.8072L233.511 38.752V38.6966H232.344ZM232.344 24.2087V23.0346H231.176V24.2087H232.344ZM234.139 24.2087H235.307V23.0346H234.139V24.2087ZM235.316 41.205L234.491 42.0352L234.494 42.0386L234.498 42.0421L235.316 41.205ZM241.022 41.205L241.84 42.0421L241.844 42.0386L241.847 42.0352L241.022 41.205ZM242.199 38.5361L243.365 38.5962L243.428 37.3619H242.199V38.5361ZM242.179 38.5361H241.012V39.7102H242.179V38.5361ZM242.179 24.2087V23.0346H241.012V24.2087H242.179ZM243.974 24.2087H245.142V23.0346H243.974V24.2087ZM243.974 38.5361L245.142 38.5769V38.5565V38.5361H243.974ZM242.279 42.4691L241.454 41.6388L241.451 41.6413L241.448 41.6437L242.279 42.4691ZM234.06 42.4691L234.89 41.6437L234.887 41.6413L234.885 41.6388L234.06 42.4691ZM233.261 41.5059L234.227 40.8457L233.261 39.4178L232.296 40.8457L233.261 41.5059ZM232.443 42.4691L231.635 41.6213L231.625 41.6324L231.613 41.6437L232.443 42.4691ZM224.223 42.4691L225.055 41.6437L225.052 41.6413L225.049 41.6388L224.223 42.4691ZM222.528 38.5361H221.361V38.5565V38.5769L222.528 38.5361ZM222.528 24.2087V23.0346H221.361V24.2087H222.528ZM224.324 24.2087H225.491V23.0346H224.324V24.2087ZM224.324 38.5361V39.7102H225.491V38.5361H224.324ZM224.304 38.5361V37.3619H223.075L223.138 38.5962L224.304 38.5361ZM225.5 41.205L226.326 40.3747L226.322 40.3709L226.319 40.3672L225.5 41.205ZM231.187 41.205L232.005 42.0421L232.009 42.0386L232.012 42.0352L231.187 41.205ZM233.511 38.6966V24.2087H231.176V38.6966H233.511ZM232.344 25.3829H234.139V23.0346H232.344V25.3829ZM232.972 24.2087V38.2552H235.307V24.2087H232.972ZM232.972 38.2552C232.972 39.7249 233.474 41.0126 234.491 42.0352L236.141 40.3747C235.589 39.8186 235.307 39.1399 235.307 38.2552H232.972ZM234.498 42.0421C235.511 43.0441 236.754 43.563 238.169 43.563V41.2147C237.376 41.2147 236.718 40.9444 236.134 40.3677L234.498 42.0421ZM238.169 43.563C239.584 43.563 240.827 43.0441 241.84 42.0421L240.204 40.3677C239.62 40.9444 238.962 41.2147 238.169 41.2147V43.563ZM241.847 42.0352C242.785 41.0929 243.297 39.9286 243.365 38.5962L241.034 38.476C240.995 39.2305 240.723 39.8453 240.197 40.3747L241.847 42.0352ZM242.199 37.3619H242.179V39.7102H242.199V37.3619ZM243.346 38.5361V24.2087H241.012V38.5361H243.346ZM242.179 25.3829H243.974V23.0346H242.179V25.3829ZM242.807 24.2087V38.5361H245.142V24.2087H242.807ZM242.808 38.4953C242.765 39.7381 242.32 40.7665 241.454 41.6388L243.105 43.2993C244.392 42.0046 245.078 40.411 245.142 38.5769L242.808 38.4953ZM241.448 41.6437C240.538 42.5709 239.467 43.0207 238.169 43.0207V45.369C240.091 45.369 241.759 44.6683 243.109 43.2945L241.448 41.6437ZM238.169 43.0207C236.872 43.0207 235.8 42.5709 234.89 41.6437L233.229 43.2945C234.579 44.6683 236.249 45.369 238.169 45.369V43.0207ZM234.885 41.6388C234.627 41.3793 234.409 41.1148 234.227 40.8457L232.296 42.1661C232.567 42.5659 232.88 42.9434 233.234 43.2993L234.885 41.6388ZM232.296 40.8457C232.12 41.1059 231.901 41.3649 231.635 41.6213L233.251 43.3168C233.623 42.9579 233.95 42.5749 234.227 42.1661L232.296 40.8457ZM231.613 41.6437C230.702 42.5709 229.631 43.0207 228.334 43.0207V45.369C230.254 45.369 231.923 44.6683 233.274 43.2945L231.613 41.6437ZM228.334 43.0207C227.036 43.0207 225.965 42.5709 225.055 41.6437L223.393 43.2945C224.744 44.6683 226.412 45.369 228.334 45.369V43.0207ZM225.049 41.6388C224.182 40.7665 223.738 39.7381 223.695 38.4953L221.361 38.5769C221.425 40.411 222.11 42.0046 223.398 43.2993L225.049 41.6388ZM223.696 38.5361V24.2087H221.361V38.5361H223.696ZM222.528 25.3829H224.324V23.0346H222.528V25.3829ZM223.156 24.2087V38.5361H225.491V24.2087H223.156ZM224.324 37.3619H224.304V39.7102H224.324V37.3619ZM223.138 38.5962C223.207 39.9352 223.731 41.1019 224.682 42.0426L226.319 40.3672C225.782 39.8365 225.507 39.2239 225.469 38.476L223.138 38.5962ZM224.675 42.0352C225.678 43.0434 226.918 43.563 228.334 43.563V41.2147C227.541 41.2147 226.893 40.945 226.326 40.3747L224.675 42.0352ZM228.334 43.563C229.749 43.563 230.992 43.0441 232.005 42.0421L230.368 40.3677C229.785 40.9444 229.126 41.2147 228.334 41.2147V43.563ZM232.012 42.0352C232.889 41.1534 233.389 40.0601 233.505 38.8072L231.181 38.5861C231.113 39.313 230.841 39.8919 230.361 40.3747L232.012 42.0352ZM260.291 42.148H261.458L259.238 41.6403L260.291 42.148ZM255.862 51.4388V52.6129H256.597L256.915 51.9464L255.862 51.4388ZM254.106 51.4388L253.053 50.9335L252.257 52.6129H254.106V51.4388ZM259.393 40.2818L260.448 40.7871L260.687 40.281L260.446 39.7754L259.393 40.2818ZM251.753 24.2087V23.0346H249.9L250.699 24.7152L251.753 24.2087ZM253.788 24.2087L254.846 23.7154L254.534 23.0346H253.788V24.2087ZM260.291 38.3354L259.232 38.8288L260.291 41.1297L261.35 38.8288L260.291 38.3354ZM266.795 24.2087V23.0346H266.049L265.736 23.7154L266.795 24.2087ZM268.81 24.2087L269.864 24.7143L270.661 23.0346H268.81V24.2087ZM260.291 42.1681H259.124L261.345 42.6737L260.291 42.1681ZM259.238 41.6403L254.809 50.9311L256.915 51.9464L261.344 42.6556L259.238 41.6403ZM255.862 50.2646H254.106V52.6129H255.862V50.2646ZM255.16 51.9439L260.448 40.7871L258.339 39.7767L253.053 50.9335L255.16 51.9439ZM260.446 39.7754L252.806 23.7022L250.699 24.7152L258.34 40.7884L260.446 39.7754ZM251.753 25.3829H253.788V23.0346H251.753V25.3829ZM252.728 24.7021L259.232 38.8288L261.35 37.842L254.846 23.7154L252.728 24.7021ZM261.35 38.8288L267.855 24.7021L265.736 23.7154L259.232 37.842L261.35 38.8288ZM266.795 25.3829H268.81V23.0346H266.795V25.3829ZM267.757 23.7032L259.238 41.6625L261.345 42.6737L269.864 24.7143L267.757 23.7032ZM261.458 42.1681V42.148H259.124V42.1681H261.458ZM278.383 28.6032L277.315 28.1282L277.216 28.3552V28.6032H278.383ZM278.383 43.9139V45.088H279.551V43.9139H278.383ZM276.588 43.9139H275.42V45.088H276.588V43.9139ZM276.588 24.2087V23.0346H275.42V24.2087H276.588ZM278.383 24.2087H279.551V23.0346H278.383V24.2087ZM278.383 25.4729H277.216V28.2913L279.205 26.3065L278.383 25.4729ZM291.969 30.7303H293.137V30.7196V30.7091L291.969 30.7303ZM291.969 43.9139V45.088H293.137V43.9139H291.969ZM290.174 43.9139H289.007V45.088H290.174V43.9139ZM288.359 26.6167L287.538 27.4516L287.543 27.4561L287.547 27.4607L288.359 26.6167ZM279.819 26.5766L279.008 25.7324L279.001 25.7393L278.994 25.7463L279.819 26.5766ZM277.216 28.6032V43.9139H279.551V28.6032H277.216ZM278.383 42.7397H276.588V45.088H278.383V42.7397ZM277.755 43.9139V24.2087H275.42V43.9139H277.755ZM276.588 25.3829H278.383V23.0346H276.588V25.3829ZM277.216 24.2087V25.4729H279.551V24.2087H277.216ZM279.205 26.3065C280.638 24.8774 282.25 24.199 284.09 24.199V21.8507C281.592 21.8507 279.4 22.8042 277.562 24.6392L279.205 26.3065ZM284.09 24.199C286.137 24.199 287.707 24.8334 288.91 26.0423L290.56 24.3818C288.863 22.6743 286.669 21.8507 284.09 21.8507V24.199ZM288.91 26.0423C290.128 27.2679 290.767 28.8091 290.802 30.7514L293.137 30.7091C293.091 28.2101 292.241 26.0725 290.56 24.3818L288.91 26.0423ZM290.802 30.7303V43.9139H293.137V30.7303H290.802ZM291.969 42.7397H290.174V45.088H291.969V42.7397ZM291.341 43.9139V30.8908H289.007V43.9139H291.341ZM291.341 30.8908C291.341 28.8958 290.605 27.1679 289.17 25.7726L287.547 27.4607C288.533 28.4199 289.007 29.5414 289.007 30.8908H291.341ZM289.179 25.7818C287.769 24.3789 286.053 23.6567 284.09 23.6567V26.005C285.424 26.005 286.554 26.4733 287.538 27.4516L289.179 25.7818ZM284.09 23.6567C282.134 23.6567 280.42 24.359 279.008 25.7324L280.631 27.4208C281.612 26.4663 282.746 26.005 284.09 26.005V23.6567ZM278.994 25.7463C278.262 26.4824 277.691 27.2747 277.315 28.1282L279.45 29.0783C279.687 28.5405 280.074 27.9816 280.645 27.4068L278.994 25.7463Z" fill="#121212"/>
</g>
<defs>
<filter id="filter0_d_3_235" x="1.05124" y="0.0640869" width="63.0738" height="67.5439" filterUnits="userSpaceOnUse" color-interpolation-filters="sRGB">
<feFlood flood-opacity="0" result="BackgroundImageFix"/>
<feColorMatrix in="SourceAlpha" type="matrix" values="0 0 0 0 0 0 0 0 0 0 0 0 0 0 0 0 0 0 127 0" result="hardAlpha"/>
<feOffset dx="4" dy="4"/>
<feGaussianBlur stdDeviation="2.5"/>
<feColorMatrix type="matrix" values="0 0 0 0 0 0 0 0 0 0 0 0 0 0 0 0 0 0 0.25 0"/>
<feBlend mode="normal" in2="BackgroundImageFix" result="effect1_dropShadow_3_235"/>
<feBlend mode="normal" in="SourceGraphic" in2="effect1_dropShadow_3_235" result="shape"/>
</filter>
<clipPath id="clip0_3_235">
<rect width="295" height="60" fill="white"/>
</clipPath>
</defs>
</svg>
