<svg width="146" height="129" viewBox="0 0 146 129" fill="none" xmlns="http://www.w3.org/2000/svg">
<g clip-path="url(#clip0_17_306)" filter="url(#filter0_di_17_306)">
<path d="M128.426 62.9057C128.444 77.8628 122.695 92.2445 112.388 103.028C111.766 103.682 111.128 104.32 110.473 104.943C109.475 105.898 108.444 106.815 107.379 107.696C97.4173 115.949 84.981 120.587 72.0766 120.861C71.6467 120.871 71.2151 120.876 70.7819 120.876C60.4903 120.876 47.546 115.348 35.7991 107.696C34.8272 107.063 33.864 106.415 32.9094 105.752C32.4632 105.446 32.0192 105.134 31.5774 104.819C27.0467 101.602 22.7463 98.0689 18.7077 94.2461C16.0634 91.7505 13.5839 89.0842 11.2847 86.2641C2.25873 75.0679 0.267922 64.9795 13.136 62.9057C14.6595 62.661 16.1382 62.3994 17.5719 62.1209C19.6487 61.7195 21.6363 61.2861 23.5346 60.8205C26.0917 60.1956 28.4941 59.5179 30.7418 58.7875C31.4979 58.5428 32.2366 58.2931 32.9581 58.0386C43.6244 54.2712 50.7635 49.3583 55.6228 44.0278C56.4471 43.1255 57.2069 42.2123 57.9025 41.2883C58.9666 39.8818 59.9332 38.4033 60.7954 36.8633C61.9854 34.7236 62.985 32.4822 63.7824 30.1655L63.8262 30.0382C67.6926 18.8224 66.5163 8.41911 70.7819 4.93721C89.0156 -9.94815 111.716 11.25 122.371 36.2482C122.908 37.5078 123.413 38.775 123.886 40.0499C124.099 40.6193 124.304 41.1898 124.501 41.7615C125.021 43.2511 125.492 44.7446 125.915 46.2419C126.077 46.813 126.231 47.3835 126.379 47.9535C126.536 48.5686 126.687 49.1821 126.826 49.7956C127.863 54.2875 128.426 58.7174 128.426 62.9057Z" fill="#F2F2F2"/>
<path d="M72.0766 120.861C71.6467 120.871 71.2151 120.876 70.7819 120.876C60.4903 120.876 47.546 115.348 35.7991 107.696C34.8272 107.063 33.864 106.415 32.9094 105.752L33.7466 100.629L59.0917 97.245L71.8122 107.027L72.0766 120.861Z" fill="#2F2E41"/>
<path d="M73.2967 29.3774H69.685C69.5732 29.3775 69.4659 29.4222 69.3868 29.5017C69.3077 29.5813 69.2633 29.6891 69.2632 29.8016V33.4352C69.2633 33.4909 69.2742 33.5459 69.2955 33.5973C69.3167 33.6486 69.3478 33.6953 69.387 33.7345C69.4262 33.7738 69.4726 33.8049 69.5238 33.826C69.5749 33.8472 69.6297 33.858 69.685 33.8579H73.2967C73.4083 33.8579 73.5154 33.8134 73.5945 33.7342C73.6736 33.655 73.7182 33.5475 73.7186 33.4352V29.8016C73.7183 29.6892 73.6737 29.5815 73.5947 29.502C73.5156 29.4225 73.4085 29.3777 73.2967 29.3774Z" fill="white"/>
<path d="M73.2967 35.5695H69.685C69.5732 35.5695 69.4659 35.6142 69.3868 35.6938C69.3077 35.7733 69.2633 35.8812 69.2632 35.9937V39.6273C69.2633 39.6829 69.2742 39.738 69.2955 39.7893C69.3167 39.8407 69.3478 39.8873 69.387 39.9266C69.4262 39.9658 69.4726 39.9969 69.5238 40.0181C69.5749 40.0393 69.6297 40.0501 69.685 40.0499H73.2967C73.4083 40.05 73.5154 40.0055 73.5945 39.9263C73.6736 39.8471 73.7182 39.7396 73.7186 39.6273V35.9937C73.7183 35.8813 73.6737 35.7736 73.5947 35.6941C73.5156 35.6146 73.4085 35.5698 73.2967 35.5695Z" fill="#E6E6E6"/>
<path d="M73.2967 41.7615H69.685C69.5732 41.7615 69.4659 41.8062 69.3868 41.8858C69.3077 41.9653 69.2633 42.0732 69.2632 42.1857V45.8177C69.2631 45.8735 69.2739 45.9287 69.2951 45.9802C69.3163 46.0317 69.3473 46.0785 69.3865 46.1179C69.4257 46.1573 69.4722 46.1886 69.5235 46.2099C69.5747 46.2311 69.6296 46.242 69.685 46.2419H73.2967C73.4086 46.2419 73.5159 46.1972 73.595 46.1176C73.6741 46.0381 73.7185 45.9302 73.7186 45.8177V42.1857C73.7183 42.0733 73.6737 41.9656 73.5947 41.8861C73.5156 41.8066 73.4085 41.7618 73.2967 41.7615Z" fill="#E6E6E6"/>
<path d="M73.7121 48.3027C73.6941 48.205 73.6427 48.1166 73.5669 48.0529C73.4911 47.9891 73.3955 47.954 73.2967 47.9535H69.685C69.5732 47.9536 69.4659 47.9983 69.3868 48.0778C69.3077 48.1574 69.2633 48.2652 69.2632 48.3777V52.0097C69.2631 52.0655 69.2739 52.1207 69.2951 52.1722C69.3163 52.2237 69.3473 52.2705 69.3865 52.31C69.4257 52.3494 69.4722 52.3806 69.5235 52.4019C69.5747 52.4232 69.6296 52.4341 69.685 52.434H73.2967C73.4086 52.4339 73.5159 52.3892 73.595 52.3097C73.6741 52.2301 73.7185 52.1222 73.7186 52.0097V48.3777C73.7189 48.3526 73.7167 48.3274 73.7121 48.3027Z" fill="#E6E6E6"/>
<path d="M73.4606 54.1782C73.4087 54.1566 73.353 54.1455 73.2968 54.1455H69.6851C69.6296 54.1454 69.5747 54.1563 69.5235 54.1776C69.4723 54.1989 69.4257 54.2301 69.3865 54.2695C69.3473 54.309 69.3163 54.3558 69.2951 54.4073C69.274 54.4588 69.2631 54.514 69.2632 54.5698V58.2018C69.263 58.2575 69.2737 58.3128 69.2948 58.3644C69.3159 58.416 69.347 58.4629 69.3862 58.5023C69.4255 58.5417 69.472 58.573 69.5233 58.5942C69.5746 58.6155 69.6296 58.6263 69.6851 58.626H73.2968C73.4086 58.626 73.5159 58.5812 73.595 58.5017C73.6741 58.4221 73.7186 58.3143 73.7186 58.2018V54.5698C73.7184 54.4863 73.6939 54.4047 73.648 54.3351C73.6022 54.2655 73.537 54.2109 73.4606 54.1782Z" fill="#E6E6E6"/>
<path d="M80.8836 29.3774H77.2719C77.16 29.3775 77.0528 29.4222 76.9737 29.5017C76.8946 29.5813 76.8501 29.6891 76.8501 29.8016V33.4352C76.8501 33.4909 76.8611 33.5459 76.8823 33.5973C76.9035 33.6486 76.9346 33.6953 76.9738 33.7345C77.013 33.7738 77.0595 33.8049 77.1106 33.826C77.1618 33.8472 77.2166 33.858 77.2719 33.8579H80.8836C80.9952 33.8579 81.1023 33.8134 81.1813 33.7342C81.2604 33.655 81.305 33.5475 81.3054 33.4352V29.8016C81.3051 29.6892 81.2606 29.5815 81.1815 29.502C81.1025 29.4225 80.9954 29.3777 80.8836 29.3774Z" fill="#E6E6E6"/>
<path d="M80.8836 35.5695H77.2719C77.16 35.5695 77.0527 35.6142 76.9737 35.6938C76.8946 35.7733 76.8501 35.8812 76.8501 35.9937V39.6273C76.8501 39.6829 76.8611 39.738 76.8823 39.7893C76.9035 39.8407 76.9346 39.8873 76.9738 39.9266C77.013 39.9658 77.0595 39.9969 77.1106 40.0181C77.1618 40.0393 77.2166 40.0501 77.2719 40.0499H80.8836C80.9952 40.05 81.1023 40.0055 81.1814 39.9263C81.2604 39.8471 81.305 39.7396 81.3054 39.6273V35.9937C81.3051 35.8813 81.2606 35.7736 81.1815 35.6941C81.1025 35.6146 80.9954 35.5698 80.8836 35.5695Z" fill="#89CCC5"/>
<path d="M80.8836 41.7615H77.2719C77.16 41.7615 77.0527 41.8062 76.9737 41.8858C76.8946 41.9653 76.8501 42.0732 76.8501 42.1857V45.8177C76.8499 45.8735 76.8608 45.9287 76.8819 45.9802C76.9031 46.0317 76.9342 46.0785 76.9734 46.1179C77.0125 46.1573 77.0591 46.1886 77.1103 46.2099C77.1616 46.2311 77.2165 46.242 77.2719 46.2419H80.8836C80.9954 46.2419 81.1027 46.1972 81.1818 46.1176C81.2609 46.0381 81.3054 45.9302 81.3054 45.8177V42.1857C81.3051 42.0733 81.2606 41.9656 81.1815 41.8861C81.1025 41.8066 80.9954 41.7618 80.8836 41.7615Z" fill="#89CCC5"/>
<path d="M80.8836 47.9535H77.2719C77.1834 47.9536 77.0973 47.9817 77.0256 48.0338C76.954 48.0859 76.9005 48.1595 76.8728 48.2439C76.8577 48.2869 76.8501 48.3322 76.8501 48.3777V52.0097C76.8499 52.0655 76.8608 52.1207 76.8819 52.1722C76.9031 52.2237 76.9342 52.2705 76.9733 52.3099C77.0125 52.3494 77.0591 52.3806 77.1103 52.4019C77.1615 52.4232 77.2165 52.4341 77.2719 52.434H80.8836C80.9954 52.4339 81.1027 52.3892 81.1818 52.3096C81.2609 52.2301 81.3054 52.1222 81.3054 52.0097V48.3777C81.3051 48.2653 81.2605 48.1576 81.1815 48.0781C81.1025 47.9986 80.9954 47.9538 80.8836 47.9535Z" fill="#89CCC5"/>
<path d="M80.8836 54.1455H77.2719C77.2165 54.1454 77.1616 54.1563 77.1103 54.1776C77.0591 54.1989 77.0125 54.2301 76.9734 54.2695C76.9342 54.309 76.9031 54.3558 76.8819 54.4073C76.8608 54.4588 76.8499 54.514 76.8501 54.5698V58.2018C76.8499 58.2575 76.8608 58.3127 76.8819 58.3642C76.9031 58.4158 76.9342 58.4626 76.9734 58.502C77.0125 58.5414 77.0591 58.5727 77.1103 58.5939C77.1616 58.6152 77.2165 58.6261 77.2719 58.626H80.8836C80.9954 58.626 81.1027 58.5812 81.1818 58.5017C81.2609 58.4221 81.3054 58.3143 81.3054 58.2018V54.5698C81.3054 54.4573 81.2609 54.3494 81.1818 54.2698C81.1027 54.1903 80.9954 54.1456 80.8836 54.1455Z" fill="#E6E6E6"/>
<path d="M88.4704 29.3774H84.8587C84.7469 29.3775 84.6396 29.4222 84.5605 29.5017C84.4814 29.5813 84.4369 29.6891 84.4369 29.8016V33.4352C84.4369 33.4909 84.4479 33.5459 84.4691 33.5973C84.4904 33.6486 84.5215 33.6953 84.5607 33.7345C84.5998 33.7738 84.6463 33.8049 84.6975 33.826C84.7486 33.8472 84.8034 33.858 84.8587 33.8579H88.4704C88.582 33.8579 88.6891 33.8134 88.7682 33.7342C88.8473 33.655 88.8919 33.5475 88.8923 33.4352V29.8016C88.8919 29.6892 88.8474 29.5815 88.7683 29.502C88.6893 29.4225 88.5822 29.3777 88.4704 29.3774Z" fill="#89CCC5"/>
<path d="M88.4704 35.5695H84.8587C84.7469 35.5695 84.6396 35.6142 84.5605 35.6938C84.4814 35.7733 84.4369 35.8812 84.4369 35.9937V39.6273C84.4369 39.6829 84.4479 39.738 84.4691 39.7893C84.4904 39.8407 84.5215 39.8873 84.5607 39.9266C84.5998 39.9658 84.6463 39.9969 84.6975 40.0181C84.7486 40.0393 84.8034 40.0501 84.8587 40.0499H88.4704C88.582 40.05 88.6891 40.0055 88.7682 39.9263C88.8473 39.8471 88.8919 39.7396 88.8923 39.6273V35.9937C88.8919 35.8813 88.8474 35.7736 88.7683 35.6941C88.6893 35.6146 88.5822 35.5698 88.4704 35.5695Z" fill="#89CCC5"/>
<path d="M88.4704 41.7615H84.8587C84.7469 41.7615 84.6396 41.8062 84.5605 41.8858C84.4814 41.9653 84.4369 42.0732 84.4369 42.1857V45.8177C84.4368 45.8735 84.4476 45.9287 84.4688 45.9802C84.4899 46.0317 84.521 46.0785 84.5602 46.1179C84.5994 46.1573 84.6459 46.1886 84.6972 46.2099C84.7484 46.2311 84.8033 46.242 84.8587 46.2419H88.4704C88.5823 46.2419 88.6895 46.1972 88.7686 46.1176C88.8478 46.0381 88.8922 45.9302 88.8923 45.8177V42.1857C88.8919 42.0733 88.8474 41.9656 88.7684 41.8861C88.6893 41.8066 88.5822 41.7618 88.4704 41.7615Z" fill="#E6E6E6"/>
<path d="M88.4704 47.9535H84.8587C84.7469 47.9536 84.6396 47.9983 84.5605 48.0778C84.4814 48.1574 84.4369 48.2652 84.4369 48.3777V52.0097C84.4368 52.0655 84.4476 52.1207 84.4688 52.1722C84.4899 52.2237 84.521 52.2705 84.5602 52.31C84.5994 52.3494 84.6459 52.3806 84.6972 52.4019C84.7484 52.4232 84.8033 52.4341 84.8587 52.434H88.4704C88.5823 52.4339 88.6896 52.3892 88.7687 52.3097C88.8478 52.2301 88.8922 52.1222 88.8923 52.0097V48.3777C88.8919 48.2653 88.8474 48.1576 88.7684 48.0781C88.6893 47.9986 88.5822 47.9538 88.4704 47.9535Z" fill="#89CCC5"/>
<path d="M88.4704 54.1455H84.8587C84.8033 54.1454 84.7484 54.1563 84.6972 54.1776C84.6459 54.1989 84.5994 54.2301 84.5602 54.2695C84.521 54.309 84.4899 54.3558 84.4688 54.4073C84.4476 54.4588 84.4368 54.514 84.4369 54.5698V58.2018C84.4368 58.2575 84.4476 58.3127 84.4688 58.3642C84.4899 58.4158 84.521 58.4626 84.5602 58.502C84.5994 58.5414 84.6459 58.5727 84.6972 58.5939C84.7484 58.6152 84.8033 58.6261 84.8587 58.626H88.4704C88.5823 58.626 88.6896 58.5812 88.7687 58.5017C88.8478 58.4221 88.8922 58.3143 88.8923 58.2018V54.5698C88.8922 54.4573 88.8478 54.3494 88.7687 54.2698C88.6896 54.1903 88.5823 54.1456 88.4704 54.1455Z" fill="#89CCC5"/>
<path d="M96.0572 29.3774H92.4455C92.3337 29.3775 92.2264 29.4222 92.1473 29.5017C92.0682 29.5813 92.0237 29.6891 92.0237 29.8016V33.4352C92.0237 33.4909 92.0347 33.5459 92.0559 33.5973C92.0772 33.6486 92.1083 33.6953 92.1475 33.7345C92.1866 33.7738 92.2331 33.8049 92.2843 33.826C92.3354 33.8472 92.3902 33.858 92.4455 33.8579H96.0572C96.1688 33.8579 96.2759 33.8134 96.355 33.7342C96.4341 33.655 96.4787 33.5475 96.4791 33.4352V29.8016C96.4788 29.6892 96.4342 29.5815 96.3552 29.502C96.2761 29.4225 96.169 29.3777 96.0572 29.3774Z" fill="#89CCC5"/>
<path d="M96.0572 35.5695H92.4455C92.3337 35.5695 92.2264 35.6142 92.1473 35.6938C92.0682 35.7733 92.0237 35.8812 92.0237 35.9937V39.6273C92.0237 39.6829 92.0347 39.738 92.0559 39.7894C92.0772 39.8407 92.1083 39.8873 92.1475 39.9266C92.1866 39.9658 92.2331 39.9969 92.2843 40.0181C92.3354 40.0393 92.3902 40.0501 92.4455 40.0499H96.0572C96.1688 40.05 96.2759 40.0055 96.355 39.9263C96.4341 39.8471 96.4787 39.7396 96.4791 39.6273V35.9937C96.4788 35.8813 96.4342 35.7736 96.3552 35.6941C96.2761 35.6146 96.169 35.5698 96.0572 35.5695Z" fill="white"/>
<path d="M96.0572 41.7615H92.4455C92.3337 41.7615 92.2264 41.8062 92.1473 41.8858C92.0682 41.9653 92.0237 42.0732 92.0237 42.1857V45.8177C92.0236 45.8735 92.0344 45.9287 92.0556 45.9802C92.0767 46.0317 92.1078 46.0785 92.147 46.1179C92.1862 46.1573 92.2327 46.1886 92.284 46.2099C92.3352 46.2311 92.3901 46.242 92.4455 46.2419H96.0572C96.1691 46.2419 96.2764 46.1972 96.3555 46.1176C96.4346 46.0381 96.479 45.9302 96.4791 45.8177V42.1857C96.4788 42.0733 96.4342 41.9656 96.3552 41.8861C96.2761 41.8066 96.169 41.7618 96.0572 41.7615Z" fill="white"/>
<path d="M96.0572 47.9535H92.4455C92.3337 47.9535 92.2264 47.9983 92.1473 48.0778C92.0682 48.1574 92.0237 48.2652 92.0237 48.3777V52.0097C92.0236 52.0655 92.0344 52.1207 92.0556 52.1722C92.0767 52.2237 92.1078 52.2705 92.147 52.31C92.1862 52.3494 92.2327 52.3806 92.284 52.4019C92.3352 52.4232 92.3901 52.4341 92.4455 52.434H96.0572C96.1691 52.4339 96.2764 52.3892 96.3555 52.3097C96.4346 52.2301 96.479 52.1222 96.4791 52.0097V48.3777C96.4788 48.2653 96.4342 48.1576 96.3552 48.0781C96.2761 47.9986 96.169 47.9538 96.0572 47.9535Z" fill="#E6E6E6"/>
<path d="M96.0572 54.1455H92.4455C92.3901 54.1454 92.3352 54.1563 92.284 54.1776C92.2327 54.1989 92.1862 54.2301 92.147 54.2695C92.1078 54.309 92.0767 54.3558 92.0556 54.4073C92.0344 54.4588 92.0236 54.514 92.0237 54.5698V58.2018C92.0236 58.2575 92.0344 58.3127 92.0556 58.3642C92.0767 58.4158 92.1078 58.4626 92.147 58.502C92.1862 58.5414 92.2327 58.5727 92.284 58.5939C92.3352 58.6152 92.3901 58.6261 92.4455 58.626H96.0572C96.1691 58.626 96.2764 58.5812 96.3555 58.5017C96.4346 58.4221 96.479 58.3143 96.4791 58.2018V54.5698C96.479 54.4573 96.4346 54.3494 96.3555 54.2698C96.2764 54.1903 96.1691 54.1456 96.0572 54.1455Z" fill="#89CCC5"/>
<path d="M103.644 29.3774H100.031C99.9191 29.3778 99.8122 29.4227 99.7334 29.5022C99.6547 29.5817 99.6105 29.6894 99.6105 29.8016V33.4352C99.6105 33.5473 99.6548 33.6548 99.7336 33.734C99.8124 33.8133 99.9193 33.8578 100.031 33.8579H103.644C103.756 33.8579 103.863 33.8134 103.942 33.7342C104.021 33.655 104.066 33.5475 104.066 33.4352V29.8016C104.066 29.6892 104.021 29.5815 103.942 29.502C103.863 29.4225 103.756 29.3777 103.644 29.3774Z" fill="white"/>
<path d="M103.644 35.5695H100.031C99.9191 35.5698 99.8122 35.6147 99.7334 35.6942C99.6547 35.7738 99.6105 35.8814 99.6105 35.9937V39.6273C99.6105 39.7394 99.6548 39.8469 99.7336 39.9261C99.8124 40.0054 99.9193 40.0499 100.031 40.0499H103.644C103.756 40.05 103.863 40.0055 103.942 39.9263C104.021 39.8471 104.066 39.7396 104.066 39.6273V35.9937C104.066 35.8813 104.021 35.7736 103.942 35.6941C103.863 35.6146 103.756 35.5698 103.644 35.5695Z" fill="white"/>
<path d="M103.644 41.7615H100.031C99.9191 41.7619 99.8122 41.8067 99.7335 41.8863C99.6547 41.9658 99.6105 42.0735 99.6105 42.1857V45.8177C99.6104 45.8733 99.6211 45.9284 99.6422 45.9799C99.6632 46.0313 99.6941 46.0781 99.7332 46.1175C99.7722 46.1569 99.8186 46.1881 99.8696 46.2095C99.9207 46.2308 99.9754 46.2419 100.031 46.2419H103.644C103.756 46.2419 103.863 46.1972 103.942 46.1176C104.021 46.0381 104.066 45.9302 104.066 45.8177V42.1857C104.066 42.0733 104.021 41.9656 103.942 41.8861C103.863 41.8066 103.756 41.7618 103.644 41.7615Z" fill="white"/>
<path d="M103.644 47.9535H100.031C99.9191 47.9539 99.8122 47.9988 99.7335 48.0783C99.6547 48.1578 99.6105 48.2655 99.6105 48.3777V52.0097C99.6104 52.0654 99.6211 52.1205 99.6421 52.1719C99.6632 52.2233 99.6941 52.2701 99.7331 52.3095C99.7722 52.3489 99.8186 52.3802 99.8696 52.4015C99.9207 52.4229 99.9754 52.4339 100.031 52.434H103.644C103.756 52.4339 103.863 52.3892 103.942 52.3097C104.021 52.2301 104.066 52.1222 104.066 52.0097V48.3777C104.066 48.2653 104.021 48.1576 103.942 48.0781C103.863 47.9986 103.756 47.9538 103.644 47.9535Z" fill="#89CCC5"/>
<path d="M103.644 54.1455H100.031C99.9754 54.1456 99.9207 54.1566 99.8696 54.178C99.8186 54.1993 99.7722 54.2306 99.7331 54.27C99.6941 54.3094 99.6632 54.3562 99.6421 54.4076C99.6211 54.459 99.6104 54.5141 99.6105 54.5698V58.2018C99.6104 58.2574 99.6211 58.3125 99.6421 58.3639C99.6632 58.4154 99.6941 58.4621 99.7331 58.5015C99.7722 58.5409 99.8186 58.5722 99.8696 58.5936C99.9207 58.6149 99.9754 58.6259 100.031 58.626H103.644C103.756 58.626 103.863 58.5812 103.942 58.5017C104.021 58.4221 104.066 58.3143 104.066 58.2018V54.5698C104.066 54.4573 104.021 54.3494 103.942 54.2698C103.863 54.1903 103.756 54.1456 103.644 54.1455Z" fill="#E6E6E6"/>
<path d="M111.231 29.3774H107.618C107.506 29.3778 107.399 29.4227 107.32 29.5022C107.242 29.5817 107.197 29.6894 107.197 29.8016V33.4352C107.197 33.5473 107.242 33.6548 107.32 33.734C107.399 33.8133 107.506 33.8578 107.618 33.8579H111.231C111.342 33.8579 111.45 33.8134 111.529 33.7342C111.608 33.655 111.652 33.5475 111.653 33.4352V29.8016C111.652 29.6892 111.608 29.5815 111.529 29.502C111.45 29.4225 111.343 29.3777 111.231 29.3774Z" fill="white"/>
<path d="M111.231 35.5695H107.618C107.506 35.5698 107.399 35.6147 107.32 35.6942C107.241 35.7738 107.197 35.8814 107.197 35.9937V39.6273C107.197 39.7394 107.242 39.8469 107.32 39.9261C107.399 40.0054 107.506 40.0499 107.618 40.0499H111.231C111.342 40.05 111.45 40.0055 111.529 39.9263C111.608 39.8471 111.652 39.7396 111.653 39.6273V35.9937C111.652 35.8813 111.608 35.7736 111.529 35.6941C111.45 35.6146 111.343 35.5698 111.231 35.5695Z" fill="white"/>
<path d="M111.231 41.7615H107.618C107.506 41.7619 107.399 41.8067 107.32 41.8863C107.241 41.9658 107.197 42.0735 107.197 42.1857V45.8177C107.197 45.8733 107.208 45.9284 107.229 45.9799C107.25 46.0313 107.281 46.0781 107.32 46.1175C107.359 46.1569 107.405 46.1881 107.456 46.2095C107.508 46.2308 107.562 46.2419 107.618 46.2419H111.231C111.343 46.2419 111.45 46.1972 111.529 46.1176C111.608 46.0381 111.653 45.9302 111.653 45.8177V42.1857C111.652 42.0733 111.608 41.9656 111.529 41.8861C111.45 41.8066 111.343 41.7618 111.231 41.7615Z" fill="#89CCC5"/>
<path d="M111.231 47.9535H107.618C107.506 47.9539 107.399 47.9988 107.32 48.0783C107.242 48.1578 107.197 48.2655 107.197 48.3777V52.0097C107.197 52.0654 107.208 52.1205 107.229 52.1719C107.25 52.2233 107.281 52.2701 107.32 52.3095C107.359 52.3489 107.405 52.3802 107.456 52.4015C107.508 52.4229 107.562 52.4339 107.618 52.434H111.231C111.343 52.4339 111.45 52.3892 111.529 52.3096C111.608 52.2301 111.653 52.1222 111.653 52.0097V48.3777C111.652 48.2653 111.608 48.1576 111.529 48.0781C111.45 47.9986 111.343 47.9538 111.231 47.9535Z" fill="#E6E6E6"/>
<path d="M111.231 54.1455H107.618C107.562 54.1456 107.508 54.1566 107.456 54.178C107.405 54.1993 107.359 54.2306 107.32 54.27C107.281 54.3094 107.25 54.3562 107.229 54.4076C107.208 54.459 107.197 54.5141 107.197 54.5698V58.2018C107.197 58.2574 107.208 58.3125 107.229 58.3639C107.25 58.4154 107.281 58.4621 107.32 58.5015C107.359 58.5409 107.405 58.5722 107.456 58.5936C107.508 58.6149 107.562 58.6259 107.618 58.626H111.231C111.343 58.6259 111.45 58.5812 111.529 58.5017C111.608 58.4221 111.653 58.3143 111.653 58.2018V54.5698C111.653 54.4573 111.608 54.3494 111.529 54.2698C111.45 54.1903 111.343 54.1456 111.231 54.1455Z" fill="white"/>
<path d="M118.818 29.3774H115.204C115.093 29.3778 114.986 29.4227 114.907 29.5022C114.828 29.5817 114.784 29.6894 114.784 29.8016V33.4352C114.784 33.5473 114.828 33.6548 114.907 33.734C114.986 33.8133 115.093 33.8578 115.204 33.8579H118.818C118.929 33.8579 119.036 33.8134 119.115 33.7342C119.195 33.655 119.239 33.5475 119.24 33.4352V29.8016C119.239 29.6892 119.195 29.5815 119.116 29.502C119.037 29.4225 118.929 29.3777 118.818 29.3774Z" fill="#89CCC5"/>
<path d="M118.818 35.5695H115.204C115.093 35.5698 114.986 35.6147 114.907 35.6942C114.828 35.7738 114.784 35.8814 114.784 35.9937V39.6273C114.784 39.7394 114.828 39.8469 114.907 39.9261C114.986 40.0054 115.093 40.0499 115.204 40.0499H118.818C118.929 40.05 119.036 40.0055 119.115 39.9263C119.195 39.8471 119.239 39.7396 119.24 39.6273V35.9937C119.239 35.8813 119.195 35.7736 119.116 35.6941C119.037 35.6146 118.929 35.5698 118.818 35.5695Z" fill="#89CCC5"/>
<path d="M118.818 41.7615H115.204C115.093 41.7619 114.986 41.8067 114.907 41.8863C114.828 41.9658 114.784 42.0735 114.784 42.1857V45.8177C114.784 45.8733 114.795 45.9284 114.816 45.9799C114.837 46.0313 114.868 46.0781 114.907 46.1175C114.946 46.1569 114.992 46.1881 115.043 46.2095C115.094 46.2308 115.149 46.2419 115.204 46.2419H118.818C118.93 46.2419 119.037 46.1972 119.116 46.1176C119.195 46.0381 119.239 45.9302 119.24 45.8177V42.1857C119.239 42.0733 119.195 41.9656 119.116 41.8861C119.037 41.8066 118.929 41.7618 118.818 41.7615Z" fill="#E6E6E6"/>
<path d="M118.818 47.9535H115.204C115.093 47.9539 114.986 47.9988 114.907 48.0783C114.828 48.1578 114.784 48.2655 114.784 48.3777V52.0097C114.784 52.0654 114.795 52.1205 114.816 52.1719C114.837 52.2233 114.868 52.2701 114.907 52.3095C114.946 52.3489 114.992 52.3802 115.043 52.4015C115.094 52.4229 115.149 52.4339 115.204 52.434H118.818C118.93 52.4339 119.037 52.3892 119.116 52.3096C119.195 52.2301 119.239 52.1222 119.24 52.0097V48.3777C119.239 48.2653 119.195 48.1576 119.116 48.0781C119.037 47.9986 118.929 47.9538 118.818 47.9535Z" fill="white"/>
<path d="M118.818 54.1455H115.204C115.149 54.1456 115.094 54.1566 115.043 54.178C114.992 54.1993 114.946 54.2306 114.907 54.27C114.868 54.3094 114.837 54.3562 114.816 54.4076C114.795 54.459 114.784 54.5141 114.784 54.5698V58.2018C114.784 58.2574 114.795 58.3125 114.816 58.3639C114.837 58.4154 114.868 58.4621 114.907 58.5015C114.946 58.5409 114.992 58.5722 115.043 58.5936C115.094 58.6149 115.149 58.6259 115.204 58.626H118.818C118.93 58.6259 119.037 58.5812 119.116 58.5017C119.195 58.4221 119.239 58.3143 119.24 58.2018V54.5698C119.239 54.4573 119.195 54.3494 119.116 54.2698C119.037 54.1903 118.93 54.1456 118.818 54.1455Z" fill="#89CCC5"/>
<path d="M126.404 29.3774H122.791C122.68 29.3778 122.573 29.4227 122.494 29.5022C122.415 29.5817 122.371 29.6894 122.371 29.8016V33.4352C122.371 33.5473 122.415 33.6548 122.494 33.734C122.573 33.8133 122.68 33.8578 122.791 33.8579H126.404C126.516 33.8579 126.623 33.8134 126.702 33.7342C126.781 33.655 126.826 33.5475 126.826 33.4352V29.8016C126.826 29.6892 126.781 29.5815 126.702 29.502C126.623 29.4225 126.516 29.3777 126.404 29.3774Z" fill="#89CCC5"/>
<path d="M126.404 35.5695H122.791C122.68 35.5698 122.573 35.6147 122.494 35.6942C122.415 35.7738 122.371 35.8814 122.371 35.9937V39.6273C122.371 39.7394 122.415 39.8469 122.494 39.9261C122.573 40.0054 122.68 40.0499 122.791 40.0499H126.404C126.516 40.05 126.623 40.0055 126.702 39.9263C126.781 39.8471 126.826 39.7396 126.826 39.6273V35.9937C126.826 35.8813 126.781 35.7736 126.702 35.6941C126.623 35.6146 126.516 35.5698 126.404 35.5695Z" fill="#89CCC5"/>
<path d="M126.404 41.7615H122.791C122.68 41.7619 122.573 41.8067 122.494 41.8863C122.415 41.9658 122.371 42.0735 122.371 42.1857V45.8177C122.371 45.8733 122.382 45.9284 122.403 45.9799C122.424 46.0313 122.455 46.0781 122.494 46.1175C122.533 46.1569 122.579 46.1881 122.63 46.2095C122.681 46.2308 122.736 46.2419 122.791 46.2419H126.404C126.516 46.2419 126.624 46.1972 126.703 46.1176C126.782 46.0381 126.826 45.9302 126.826 45.8177V42.1857C126.826 42.0733 126.781 41.9656 126.702 41.8861C126.623 41.8066 126.516 41.7618 126.404 41.7615Z" fill="#E6E6E6"/>
<path d="M126.404 47.9535H122.791C122.68 47.9539 122.573 47.9988 122.494 48.0783C122.415 48.1578 122.371 48.2655 122.371 48.3777V52.0097C122.371 52.0654 122.382 52.1205 122.403 52.1719C122.424 52.2233 122.455 52.2701 122.494 52.3095C122.533 52.3489 122.579 52.3802 122.63 52.4015C122.681 52.4229 122.736 52.4339 122.791 52.434H126.404C126.516 52.4339 126.624 52.3892 126.703 52.3096C126.782 52.2301 126.826 52.1222 126.826 52.0097V48.3777C126.826 48.2653 126.781 48.1576 126.702 48.0781C126.623 47.9986 126.516 47.9538 126.404 47.9535Z" fill="#89CCC5"/>
<path d="M126.404 54.1455H122.791C122.736 54.1456 122.681 54.1566 122.63 54.178C122.579 54.1993 122.533 54.2306 122.494 54.27C122.455 54.3094 122.424 54.3562 122.403 54.4076C122.382 54.459 122.371 54.5141 122.371 54.5698V58.2018C122.371 58.2574 122.382 58.3125 122.403 58.3639C122.424 58.4154 122.455 58.4621 122.494 58.5015C122.533 58.5409 122.579 58.5722 122.63 58.5936C122.681 58.6149 122.736 58.6259 122.791 58.626H126.404C126.516 58.6259 126.624 58.5812 126.703 58.5017C126.782 58.4221 126.826 58.3143 126.826 58.2018V54.5698C126.826 54.4573 126.782 54.3494 126.703 54.2698C126.624 54.1903 126.516 54.1456 126.404 54.1455Z" fill="#89CCC5"/>
<path d="M133.991 29.3774H130.378C130.266 29.3778 130.159 29.4227 130.081 29.5022C130.002 29.5817 129.958 29.6894 129.958 29.8016V33.4352C129.958 33.5473 130.002 33.6548 130.081 33.734C130.16 33.8133 130.267 33.8578 130.378 33.8579H133.991C134.103 33.8579 134.21 33.8134 134.289 33.7342C134.368 33.655 134.413 33.5475 134.413 33.4352V29.8016C134.413 29.6892 134.368 29.5815 134.289 29.502C134.21 29.4225 134.103 29.3777 133.991 29.3774Z" fill="#E6E6E6"/>
<path d="M133.991 35.5695H130.378C130.266 35.5698 130.159 35.6147 130.081 35.6942C130.002 35.7738 129.958 35.8814 129.958 35.9937V39.6273C129.958 39.7394 130.002 39.8469 130.081 39.9261C130.16 40.0054 130.267 40.0499 130.378 40.0499H133.991C134.103 40.05 134.21 40.0055 134.289 39.9263C134.368 39.8471 134.413 39.7396 134.413 39.6273V35.9937C134.413 35.8813 134.368 35.7736 134.289 35.6941C134.21 35.6146 134.103 35.5698 133.991 35.5695Z" fill="#89CCC5"/>
<path d="M133.991 41.7615H130.378C130.266 41.7619 130.159 41.8067 130.081 41.8863C130.002 41.9658 129.958 42.0735 129.958 42.1857V45.8177C129.958 45.8733 129.968 45.9284 129.989 45.9799C130.01 46.0313 130.041 46.0781 130.08 46.1175C130.119 46.1569 130.166 46.1881 130.217 46.2095C130.268 46.2308 130.323 46.2419 130.378 46.2419H133.991C134.103 46.2419 134.21 46.1972 134.29 46.1176C134.369 46.0381 134.413 45.9302 134.413 45.8177V42.1857C134.413 42.0733 134.368 41.9656 134.289 41.8861C134.21 41.8066 134.103 41.7618 133.991 41.7615Z" fill="#89CCC5"/>
<path d="M133.991 47.9535H130.378C130.266 47.9539 130.159 47.9988 130.081 48.0783C130.002 48.1578 129.958 48.2655 129.958 48.3777V52.0097C129.958 52.0654 129.968 52.1205 129.989 52.1719C130.01 52.2233 130.041 52.2701 130.08 52.3095C130.119 52.3489 130.166 52.3802 130.217 52.4015C130.268 52.4229 130.323 52.4339 130.378 52.434H133.991C134.103 52.4339 134.21 52.3892 134.29 52.3096C134.369 52.2301 134.413 52.1222 134.413 52.0097V48.3777C134.413 48.2653 134.368 48.1576 134.289 48.0781C134.21 47.9986 134.103 47.9538 133.991 47.9535Z" fill="#89CCC5"/>
<path d="M133.991 54.1455H130.378C130.323 54.1456 130.268 54.1566 130.217 54.178C130.166 54.1993 130.119 54.2306 130.08 54.27C130.041 54.3094 130.01 54.3562 129.989 54.4076C129.968 54.459 129.958 54.5141 129.958 54.5698V58.2018C129.958 58.2574 129.968 58.3125 129.989 58.3639C130.01 58.4154 130.041 58.4621 130.08 58.5015C130.119 58.5409 130.166 58.5722 130.217 58.5936C130.268 58.6149 130.323 58.6259 130.378 58.626H133.991C134.103 58.6259 134.21 58.5812 134.29 58.5017C134.369 58.4221 134.413 58.3143 134.413 58.2018V54.5698C134.413 54.4573 134.369 54.3494 134.29 54.2698C134.21 54.1903 134.103 54.1456 133.991 54.1455Z" fill="#E6E6E6"/>
<path d="M141.578 29.3774H137.965C137.853 29.3778 137.746 29.4227 137.668 29.5022C137.589 29.5817 137.545 29.6894 137.545 29.8016V33.4352C137.545 33.5473 137.589 33.6548 137.668 33.734C137.746 33.8133 137.853 33.8578 137.965 33.8579H141.578C141.69 33.8579 141.797 33.8134 141.876 33.7342C141.955 33.655 142 33.5475 142 33.4352V29.8016C142 29.6892 141.955 29.5815 141.876 29.502C141.797 29.4225 141.69 29.3777 141.578 29.3774Z" fill="#E6E6E6"/>
<path d="M141.578 35.5695H137.965C137.853 35.5698 137.746 35.6147 137.668 35.6942C137.589 35.7738 137.545 35.8814 137.545 35.9937V39.6273C137.545 39.7394 137.589 39.8469 137.668 39.9261C137.746 40.0054 137.853 40.0499 137.965 40.0499H141.578C141.69 40.05 141.797 40.0055 141.876 39.9263C141.955 39.8471 142 39.7396 142 39.6273V35.9937C142 35.8813 141.955 35.7736 141.876 35.6941C141.797 35.6146 141.69 35.5698 141.578 35.5695Z" fill="#E6E6E6"/>
<path d="M141.578 41.7615H137.965C137.853 41.7619 137.746 41.8067 137.668 41.8863C137.589 41.9658 137.545 42.0735 137.545 42.1857V45.8177C137.544 45.8733 137.555 45.9284 137.576 45.9799C137.597 46.0313 137.628 46.0781 137.667 46.1175C137.706 46.1569 137.753 46.1881 137.804 46.2095C137.855 46.2308 137.909 46.2419 137.965 46.2419H141.578C141.69 46.2419 141.797 46.1972 141.876 46.1176C141.955 46.0381 142 45.9302 142 45.8177V42.1857C142 42.0733 141.955 41.9656 141.876 41.8861C141.797 41.8066 141.69 41.7618 141.578 41.7615Z" fill="#89CCC5"/>
<path d="M141.578 47.9535H137.965C137.853 47.9539 137.746 47.9988 137.668 48.0783C137.589 48.1578 137.545 48.2655 137.545 48.3777V52.0097C137.544 52.0654 137.555 52.1205 137.576 52.1719C137.597 52.2233 137.628 52.2701 137.667 52.3095C137.706 52.3489 137.753 52.3802 137.804 52.4015C137.855 52.4229 137.909 52.4339 137.965 52.434H141.578C141.69 52.4339 141.797 52.3892 141.876 52.3096C141.955 52.2301 142 52.1222 142 52.0097V48.3777C142 48.2653 141.955 48.1576 141.876 48.0781C141.797 47.9986 141.69 47.9538 141.578 47.9535Z" fill="#E6E6E6"/>
<path d="M141.578 54.1455H137.965C137.909 54.1456 137.855 54.1566 137.804 54.178C137.753 54.1993 137.706 54.2306 137.667 54.27C137.628 54.3094 137.597 54.3562 137.576 54.4076C137.555 54.459 137.544 54.5141 137.545 54.5698V58.2018C137.544 58.2574 137.555 58.3125 137.576 58.3639C137.597 58.4154 137.628 58.4621 137.667 58.5015C137.706 58.5409 137.753 58.5722 137.804 58.5936C137.855 58.6149 137.909 58.6259 137.965 58.626H141.578C141.69 58.6259 141.797 58.5812 141.876 58.5017C141.955 58.4221 142 58.3143 142 58.2018V54.5698C142 54.4573 141.955 54.3494 141.876 54.2698C141.797 54.1903 141.69 54.1456 141.578 54.1455Z" fill="#E6E6E6"/>
<path d="M58.5322 107.696H58.4309L58.5175 107.684L58.5322 107.696Z" fill="#2F2E41"/>
<path d="M49.8867 39.9838C56.0089 39.9838 60.9719 34.9929 60.9719 28.8363C60.9719 22.6796 56.0089 17.6887 49.8867 17.6887C43.7645 17.6887 38.8015 22.6796 38.8015 28.8363C38.8015 34.9929 43.7645 39.9838 49.8867 39.9838Z" fill="#FFB6B6"/>
<path d="M59.5944 20.663C59.5944 20.663 62.4937 15.0892 56.1151 14.5825C56.1151 14.5825 50.6773 9.62197 45.1347 13.6756C45.1347 13.6756 42.1115 13.6756 40.4582 17.116C40.4582 17.116 38.0805 16.2092 37.5579 18.6362C37.5579 18.6362 35.818 23.7033 37.5579 28.2636C39.2978 32.824 39.8757 33.3307 39.8757 33.3307C39.8757 33.3307 37.0167 23.7696 43.9758 23.2629C50.9348 22.7562 58.7222 18.3828 59.3021 23.9566C59.8821 29.5304 60.7548 30.9037 60.7548 30.9037C60.7548 30.9037 66.2631 22.9432 59.5944 20.663Z" fill="#2F2E41"/>
<path d="M78.5618 56.3091L78.5261 56.4984L78.1253 58.626L75.3557 73.3433L75.1918 74.2097L74.8479 76.042L74.3774 78.5417L73.3341 84.0811L73.0355 85.6686L72.9236 86.2642L72.8846 86.473L72.5747 88.1161L72.4806 88.6121L71.7246 94.2461L71.0642 99.1557L73.2741 101.378L71.9566 102.703L71.0918 107.684L71.0934 107.696H35.7991C34.3713 106.766 32.9641 105.807 31.5774 104.819L31.8678 102.633C31.8678 102.633 32.8672 98.7282 32.447 98.2615C32.0284 97.7949 31.1101 96.9611 31.1101 96.9611L32.2669 94.2461L32.4275 93.8692L32.1582 88.2515L32.1517 88.1161L32.0625 86.2642L32.0511 86.0259L32.0333 85.6686L31.6909 78.5417L31.6844 78.4242L31.5806 76.2639L31.4833 74.2097L31.4411 73.3433L31.0241 64.6744L30.7418 58.7875L30.4952 53.6626L31.4865 53.3248L42.0896 49.701L46.4817 43.9593L55.6229 44.0278L60.0977 44.0621L67.5645 51.0259L69.2632 51.8417L69.2762 51.8482L70.4947 52.4339L73.584 53.9171L76.8501 55.4867L78.5261 56.2911L78.5618 56.3091Z" fill="#CACACA"/>
<path d="M47.663 90.9716C46.9931 91.2326 46.2745 91.3427 45.5577 91.2942C44.841 91.2456 44.1435 91.0397 43.5145 90.6907C42.8855 90.3418 42.3402 89.8584 41.917 89.2747C41.4938 88.6909 41.2031 88.0209 41.0653 87.3119L23.7761 84.8452L29.7863 78.0084L45.2829 81.3989C46.4827 81.245 47.6969 81.539 48.6955 82.2253C49.6941 82.9115 50.4077 83.9422 50.7011 85.1222C50.9945 86.3022 50.8472 87.5494 50.2873 88.6274C49.7274 89.7055 48.7936 90.5396 47.663 90.9716V90.9716Z" fill="#FFB6B6"/>
<path d="M39.9543 78.5417C39.6341 78.1334 39.1807 77.8519 38.6742 77.7471L31.5806 76.2639L30.8521 76.1122C30.4287 76.0233 30.0288 75.8456 29.6784 75.5905C29.3281 75.3355 29.0353 75.009 28.8191 74.6323C28.5948 74.2368 28.4592 73.7969 28.4216 73.3433C28.3878 72.9309 28.4369 72.5158 28.566 72.1228L31.0241 64.6745L32.619 59.8416C32.8123 59.2587 32.9263 58.6522 32.9581 58.0386C33.047 56.3406 32.5245 54.6671 31.4865 53.3249C30.5739 52.145 29.3081 51.2917 27.8762 50.891C26.4442 50.4902 24.9221 50.5632 23.5346 51.0993C23.494 51.114 23.4518 51.1303 23.4113 51.1466C22.4162 51.5462 21.5272 52.173 20.8145 52.9775C20.1018 53.782 19.5849 54.7421 19.3047 55.7821L17.5719 62.121L13.9975 75.1887C13.6397 76.4979 13.5674 77.8695 13.7856 79.2095C14.0038 80.5494 14.5073 81.8262 15.2617 82.9523C16.016 84.0785 17.0034 85.0274 18.1563 85.7342C19.3092 86.441 20.6003 86.8889 21.9413 87.0473L32.1582 88.2515L36.8862 88.8095C37.4329 88.8756 37.9843 88.7321 38.4305 88.4076C38.8767 88.0832 39.185 87.6016 39.294 87.0588C39.3016 87.0292 39.3076 86.9993 39.3118 86.969L39.4254 86.2641L40.3875 80.3283L40.3973 80.2679C40.4474 79.965 40.4339 79.6549 40.3576 79.3576C40.2813 79.0603 40.1439 78.7823 39.9543 78.5417Z" fill="#CACACA"/>
<path d="M58.6755 91.1619C59.3753 91.3253 60.1022 91.3324 60.8049 91.1827C61.5077 91.033 62.1693 90.7301 62.7431 90.2955C63.317 89.8609 63.789 89.305 64.1261 88.667C64.4632 88.0291 64.6571 87.3246 64.6941 86.6031L81.4646 81.7092L74.5557 75.793L59.6894 81.3473C58.48 81.3651 57.3191 81.8283 56.4267 82.6493C55.5343 83.4703 54.9724 84.592 54.8474 85.8018C54.7225 87.0115 55.0431 88.2254 55.7487 89.2133C56.4542 90.2012 57.4956 90.8946 58.6755 91.1619V91.1619Z" fill="#FFB6B6"/>
<path d="M89.7911 70.7621L81.8149 52.3018C81.1625 50.7862 79.9973 49.5521 78.5261 48.8183C78.0713 48.5931 77.5937 48.4181 77.1015 48.2961C77.0252 48.2766 76.949 48.2586 76.8727 48.2439C75.8291 48.0149 74.7466 48.035 73.7121 48.3027C72.7665 48.547 71.8827 48.989 71.1183 49.5999C70.354 50.2108 69.7263 50.9769 69.2762 51.8482C69.2713 51.8555 69.2669 51.8631 69.2632 51.871C68.7604 52.8491 68.4931 53.9323 68.4826 55.0333C68.4722 56.1343 68.719 57.2224 69.2032 58.2099L69.3022 58.409L74.9387 69.7929C75.1312 70.1821 75.2396 70.608 75.2569 71.0423C75.2743 71.4767 75.2001 71.9099 75.0392 72.3134C74.8783 72.7169 74.6344 73.0817 74.3235 73.3837C74.0126 73.6858 73.6417 73.9183 73.2351 74.0661L72.8392 74.2097L65.7197 76.7958C65.1854 76.9875 64.746 77.3802 64.4939 77.8912C64.2418 78.4021 64.1967 78.9916 64.3681 79.5353L64.386 79.5924L66.3816 86.0145C66.3914 86.0439 66.4011 86.0733 66.4125 86.1026C66.43 86.158 66.4517 86.212 66.4773 86.2641C66.6895 86.7425 67.0643 87.1291 67.5346 87.3543C68.0048 87.5795 68.5395 87.6286 69.0425 87.4928L72.8846 86.473L73.6683 86.2641L83.5899 83.6291C84.8954 83.2822 86.1109 82.6557 87.1532 81.7924C88.1956 80.9292 89.0401 79.8497 89.629 78.6278C90.2179 77.4058 90.5373 76.0703 90.5653 74.7127C90.5933 73.3551 90.3292 72.0075 89.7911 70.762L89.7911 70.7621Z" fill="#CACACA"/>
<path d="M11.2847 86.2642C13.5839 89.0842 16.0634 91.7505 18.7077 94.2461H92.0399C92.7464 94.2472 93.4237 94.5301 93.9231 95.0326C94.4225 95.5352 94.7034 96.2164 94.704 96.9269L94.8095 115.614C99.3208 113.53 103.546 110.868 107.379 107.696C108.443 106.816 109.475 105.899 110.473 104.943C111.127 104.32 111.765 103.681 112.388 103.028C117.055 98.1384 120.834 92.4648 123.554 86.2642H11.2847Z" fill="#3F3D56"/>
<path d="M112.388 103.028C111.766 103.682 111.128 104.32 110.473 104.943H94.8631V103.028H112.388Z" fill="white"/>
<path d="M78.4158 41.7615C78.3386 41.6184 78.2245 41.4988 78.0854 41.4155C77.9463 41.3323 77.7875 41.2883 77.6256 41.2883H24.4335C24.195 41.289 23.9665 41.3846 23.798 41.5543C23.6295 41.7241 23.5348 41.954 23.5346 42.1939V74.2097H78.5261V42.1939C78.5269 42.0426 78.4889 41.8937 78.4158 41.7615Z" fill="#3F3D56"/>
<path d="M23.4864 73.3429V77.2937C23.4864 77.4575 23.5185 77.6197 23.5808 77.771C23.6432 77.9223 23.7345 78.0598 23.8497 78.1756C23.9648 78.2914 24.1016 78.3833 24.252 78.4459C24.4025 78.5086 24.5638 78.5409 24.7266 78.5409H45.0236V86.3379H44.754C44.7328 86.3379 44.7119 86.3421 44.6923 86.3502C44.6728 86.3584 44.655 86.3703 44.6401 86.3853C44.6251 86.4004 44.6132 86.4182 44.6051 86.4379C44.597 86.4576 44.5929 86.4786 44.5929 86.4999V87.0422C44.5929 87.0635 44.597 87.0846 44.6051 87.1042C44.6132 87.1239 44.6251 87.1417 44.6401 87.1568C44.655 87.1718 44.6728 87.1838 44.6923 87.1919C44.7119 87.2 44.7328 87.2042 44.754 87.2042H57.3541C57.3752 87.2042 57.3962 87.2 57.4157 87.1919C57.4353 87.1838 57.453 87.1718 57.468 87.1568C57.483 87.1417 57.4948 87.1239 57.5029 87.1042C57.511 87.0846 57.5152 87.0635 57.5152 87.0422V86.4999C57.5152 86.4786 57.511 86.4576 57.5029 86.4379C57.4948 86.4182 57.483 86.4004 57.468 86.3853C57.453 86.3703 57.4353 86.3584 57.4157 86.3502C57.3962 86.3421 57.3752 86.3379 57.3541 86.3379H57.0844V78.5409H77.3814C77.5443 78.5409 77.7055 78.5086 77.856 78.4459C78.0065 78.3833 78.1432 78.2914 78.2584 78.1756C78.3735 78.0598 78.4649 77.9223 78.5272 77.771C78.5895 77.6197 78.6216 77.4575 78.6216 77.2937V73.3429H23.4864Z" fill="#3F3D56"/>
<path d="M50.3878 62.0036C53.1931 62.0036 55.4673 59.7166 55.4673 56.8955C55.4673 54.0744 53.1931 51.7875 50.3878 51.7875C47.5825 51.7875 45.3083 54.0744 45.3083 56.8955C45.3083 59.7166 47.5825 62.0036 50.3878 62.0036Z" fill="#89CCC5"/>
<path d="M63.3297 28.2271H62.5185C62.5185 22.0596 56.4487 18.018 50.3254 18.0148C49.4347 18.0121 48.546 18.099 47.6726 18.2742C46.6893 18.4716 45.6688 18.7082 44.6661 19.0166C40.712 20.2354 37.0452 22.5915 37.0452 28.2271C37.0443 29.3216 37.1828 30.4117 37.4573 31.4708L36.672 31.6764C36.3807 30.55 36.2335 29.3909 36.2339 28.2271C36.2339 23.3029 38.2442 19.9205 41.7164 17.9038C43.5417 16.8432 45.7694 16.1596 48.3216 15.8267C49.3836 15.6846 50.4573 15.6518 51.526 15.7288C58.5677 16.2379 63.3297 21.668 63.3297 28.2271Z" fill="#89CCC5"/>
<path d="M64.6813 28.6791L64.3616 26.3034C64.2828 25.7035 63.9954 25.1509 63.5504 24.7436C63.2647 24.478 62.9227 24.2813 62.5502 24.1682C62.1778 24.0552 61.7847 24.0287 61.4006 24.0909L60.8927 24.1611C60.7538 24.1795 60.6198 24.2255 60.4987 24.2963C60.3775 24.3672 60.2715 24.4615 60.1869 24.5739C60.1016 24.6859 60.0392 24.8138 60.0033 24.9502C59.9673 25.0865 59.9586 25.2287 59.9776 25.3685L60.7159 30.841C60.7463 31.064 60.8457 31.2718 61 31.4349C61.1544 31.598 61.3558 31.7082 61.5758 31.7498C61.641 31.7629 61.7073 31.7695 61.7737 31.7694C61.8215 31.7694 61.8692 31.7661 61.9165 31.7596L62.4844 31.6829C62.8306 31.6367 63.1638 31.5198 63.4635 31.3394C63.7631 31.159 64.023 30.9189 64.227 30.6338C64.2708 30.5718 64.313 30.5081 64.3519 30.4429C64.656 29.909 64.7721 29.2875 64.6813 28.6791Z" fill="#89CCC5"/>
<path d="M60.565 24.2606C60.416 24.3334 60.2864 24.4408 60.1869 24.5739C60.1016 24.6859 60.0392 24.8138 60.0033 24.9501C59.9673 25.0865 59.9586 25.2287 59.9776 25.3685L60.7159 30.841C60.7463 31.064 60.8457 31.2718 61 31.4349C61.1544 31.598 61.3558 31.7082 61.5758 31.7498L60.565 24.2606Z" fill="white"/>
<path d="M64.6813 28.6791L64.3616 26.3034C64.2828 25.7035 63.9954 25.1509 63.5504 24.7436L64.2854 30.1883C64.2964 30.2757 64.3188 30.3613 64.3519 30.4429C64.656 29.909 64.7721 29.2875 64.6813 28.6791Z" fill="#3F3D56"/>
<path d="M62.1551 30.3908C62.3771 30.3605 62.4887 29.8292 62.4043 29.2042C62.32 28.5791 62.0717 28.097 61.8497 28.1272C61.6277 28.1575 61.5161 28.6888 61.6005 29.3138C61.6848 29.9389 61.9331 30.4211 62.1551 30.3908Z" fill="#3F3D56"/>
<path d="M61.6683 27.4538C61.8903 27.4235 62.0019 26.8923 61.9176 26.2672C61.8333 25.6422 61.585 25.16 61.363 25.1903C61.141 25.2206 61.0294 25.7518 61.1137 26.3769C61.198 27.002 61.4463 27.4841 61.6683 27.4538Z" fill="#3F3D56"/>
<path d="M64.7511 28.596C64.9731 28.5657 65.0847 28.0344 65.0004 27.4094C64.916 26.7843 64.6677 26.3022 64.4457 26.3324C64.2237 26.3627 64.1121 26.894 64.1965 27.519C64.2808 28.1441 64.5291 28.6263 64.7511 28.596Z" fill="#3F3D56"/>
<path d="M50.3254 18.0148C49.4347 18.0121 48.546 18.099 47.6726 18.2742C46.6893 18.4716 45.6688 18.7082 44.6661 19.0166C43.1004 18.9399 41.9484 18.532 41.7164 17.9038C43.5417 16.8432 45.7694 16.1596 48.3216 15.8267C49.3836 15.6846 50.4573 15.6518 51.526 15.7288C51.6391 15.7955 51.737 15.8855 51.813 15.993C51.8891 16.1004 51.9417 16.2228 51.9673 16.3521C52.0436 16.9199 51.3995 17.5236 50.3254 18.0148Z" fill="#3F3D56"/>
<path d="M39.9673 33.8889L38.718 28.666C38.6734 28.4776 38.5745 28.3066 38.4336 28.1745C38.2928 28.0424 38.1162 27.9552 37.9262 27.9236C37.8725 27.9152 37.8183 27.9109 37.764 27.9106C37.6874 27.9109 37.6112 27.9202 37.5368 27.9383L37.0533 28.0558C36.4308 28.2072 35.8934 28.6008 35.5591 29.1502C35.2248 29.6996 35.1209 30.3599 35.2702 30.9862L35.8299 33.3292C35.9577 33.8808 36.2621 34.375 36.6963 34.7357C36.7667 34.7928 36.8404 34.8457 36.917 34.894C37.189 35.0654 37.4923 35.1803 37.8092 35.2318C38.126 35.2834 38.4499 35.2706 38.7618 35.1942L39.2437 35.0767C39.3711 35.0468 39.491 34.9907 39.5958 34.9119C39.7516 34.7977 39.8701 34.6394 39.9363 34.4572C40.0024 34.2751 40.0132 34.0772 39.9673 33.8889Z" fill="#89CCC5"/>
<path d="M37.3482 32.9171C37.566 32.8644 37.6236 32.3245 37.4769 31.7112C37.3301 31.0979 37.0346 30.6435 36.8168 30.6962C36.599 30.7489 36.5414 31.2888 36.6881 31.9021C36.8349 32.5154 37.1304 32.9698 37.3482 32.9171Z" fill="#3F3D56"/>
<path d="M35.7257 33.4066C35.9435 33.3539 36.0011 32.814 35.8544 32.2007C35.7076 31.5874 35.4121 31.133 35.1943 31.1857C34.9765 31.2384 34.9189 31.7783 35.0656 32.3916C35.2124 33.0048 35.5079 33.4593 35.7257 33.4066Z" fill="#3F3D56"/>
<path d="M40.0468 33.8693L38.7975 28.6464C38.7488 28.4425 38.6414 28.2576 38.4887 28.1148C38.3361 27.9721 38.1449 27.8777 37.9392 27.8437L39.6444 34.9771C39.8128 34.8531 39.9409 34.6817 40.0125 34.4845C40.0842 34.2873 40.0961 34.0733 40.0468 33.8693Z" fill="white"/>
<path d="M35.5525 29.9518C35.518 29.8065 35.4533 29.6703 35.3626 29.552C35.187 30.0094 35.1547 30.5098 35.2702 30.9862L35.8299 33.3292C35.9577 33.8808 36.2621 34.375 36.6963 34.7357L35.5525 29.9518Z" fill="#3F3D56"/>
</g>
<defs>
<filter id="filter0_di_17_306" x="0" y="0" width="146" height="128.876" filterUnits="userSpaceOnUse" color-interpolation-filters="sRGB">
<feFlood flood-opacity="0" result="BackgroundImageFix"/>
<feColorMatrix in="SourceAlpha" type="matrix" values="0 0 0 0 0 0 0 0 0 0 0 0 0 0 0 0 0 0 127 0" result="hardAlpha"/>
<feOffset dy="4"/>
<feGaussianBlur stdDeviation="2"/>
<feComposite in2="hardAlpha" operator="out"/>
<feColorMatrix type="matrix" values="0 0 0 0 0 0 0 0 0 0 0 0 0 0 0 0 0 0 0.25 0"/>
<feBlend mode="normal" in2="BackgroundImageFix" result="effect1_dropShadow_17_306"/>
<feBlend mode="normal" in="SourceGraphic" in2="effect1_dropShadow_17_306" result="shape"/>
<feColorMatrix in="SourceAlpha" type="matrix" values="0 0 0 0 0 0 0 0 0 0 0 0 0 0 0 0 0 0 127 0" result="hardAlpha"/>
<feOffset/>
<feGaussianBlur stdDeviation="2.5"/>
<feComposite in2="hardAlpha" operator="arithmetic" k2="-1" k3="1"/>
<feColorMatrix type="matrix" values="0 0 0 0 0 0 0 0 0 0 0 0 0 0 0 0 0 0 0.3 0"/>
<feBlend mode="normal" in2="shape" result="effect2_innerShadow_17_306"/>
</filter>
<clipPath id="clip0_17_306">
<rect width="138" height="120.876" fill="white" transform="translate(4)"/>
</clipPath>
</defs>
</svg>
