<svg width="146" height="127" viewBox="0 0 146 127" fill="none" xmlns="http://www.w3.org/2000/svg">
<g filter="url(#filter0_di_17_230)">
<path d="M125.221 115.476L122.352 115.476L120.988 103.497L125.222 103.498L125.221 115.476Z" fill="#FFB6B6"/>
<path d="M125.322 118.715L116.5 118.715V118.594C116.5 116.541 118.038 114.877 119.934 114.877H119.934L121.546 113.554L124.552 114.878L125.322 114.878L125.322 118.715Z" fill="#2F2E41"/>
<path d="M112.503 115.476L109.634 115.476L108.269 103.497L112.503 103.498L112.503 115.476Z" fill="#FFB6B6"/>
<path d="M112.604 118.715L103.782 118.715V118.594C103.782 116.541 105.319 114.877 107.215 114.877H107.216L108.827 113.554L111.834 114.878L112.604 114.878L112.604 118.715Z" fill="#2F2E41"/>
<path d="M111.136 48.6284L127.687 49.0055C127.687 49.0055 130.663 54.2862 128.391 61.7357L128.645 63.8102L127.6 67.0163L127.077 76.8233L127.6 78.332L127.252 81.1609C127.252 81.1609 128.645 99.8318 125.161 109.262L120.979 109.073L119.411 84.4703L120.283 82.6697L120.108 81.9153L118.018 70.5996L115.927 76.4461V79.6945L114.01 82.1039C114.01 82.1039 114.707 104.358 112.791 108.884H108.109L106.344 78.7092L108.087 61.1699L107.738 60.0383L108.261 59.4726L107.912 57.5866L111.136 48.6284L111.136 48.6284Z" fill="#2F2E41"/>
<path d="M118.192 14.2098L123.244 12.8897L124.638 16.473C124.638 16.473 131.849 20.6221 132.198 26.2799C132.198 26.2799 133.175 30.8062 132.304 32.8807C131.433 34.9553 127.774 41.5561 127.774 41.5561C127.774 41.5561 131.085 53.0603 130.213 53.6261C129.342 54.1919 108.609 53.0603 108.609 51.9288C108.609 50.7972 112.06 38.9157 112.06 38.9157L112.791 18.5475L117.495 16.6616L118.192 14.2098L118.192 14.2098V14.2098Z" fill="#3F3D56"/>
<path d="M131.662 60.6353C130.604 60.0584 130.179 58.6628 130.712 57.5181C130.765 57.4029 130.828 57.2966 130.896 57.1956L128.085 36.3301L131.977 36.4649L134.013 56.7951C134.751 57.4726 134.996 58.6302 134.541 59.6069C134.008 60.7516 132.719 61.212 131.662 60.6353H131.662Z" fill="#FFB6B6"/>
<path d="M94.7291 50.7874C94.3033 49.5913 94.8539 48.248 95.9589 47.7871C96.0701 47.7407 96.1828 47.7079 96.2958 47.6824L107.157 30.1778L109.957 33.107L98.8539 49.6514C98.9804 50.6898 98.4436 51.7255 97.5008 52.1187C96.3958 52.5796 95.1549 51.9835 94.7291 50.7874V50.7874Z" fill="#FFB6B6"/>
<path d="M124.569 31.0673C123.469 26.9775 125.296 22.8049 129.231 22.825C130.368 22.8309 131.252 23.1881 131.497 24.177C132.354 27.6381 132.821 32.8626 132.821 32.8626L133.838 38.4252L133.222 39.5802L134.506 43.3079L133.883 45.0715L133.749 54.0775L130.612 53.8889L127.157 47.0233L125.836 46.1728C125.836 46.1728 126.897 35.0721 124.786 31.8759L124.569 31.0673H124.569V31.0673Z" fill="#3F3D56"/>
<path d="M110.522 21.0022C112.356 17.2335 117.05 16.3408 119.868 19.3144C120.682 20.1739 121.088 21.0954 120.63 21.9908C119.025 25.1249 115.305 28.4993 115.305 28.4993L110.724 36.4711L109.54 36.8387L108.071 40.4855L104.923 44.4918L100.754 46.8719L98.3146 44.2315L98.8326 40.8375L105.109 31.7843C105.109 31.7843 109.626 25.6333 110.159 21.7474L110.522 21.0022V21.0022V21.0022Z" fill="#3F3D56"/>
<path d="M119.152 13.1076C119.267 13.1226 119.382 13.1339 119.497 13.1395C119.853 13.1606 120.205 13.1387 120.544 13.0764C121.574 12.8977 122.51 12.3696 123.232 11.5951C123.995 10.7778 124.518 9.68705 124.659 8.44526C124.99 5.51409 123.061 2.844 120.354 2.48584C117.685 2.13075 115.252 4.15146 114.863 7.01534C114.857 7.05968 114.851 7.10215 114.846 7.14628C114.516 10.0793 116.442 12.7477 119.152 13.1076V13.1076V13.1076Z" fill="#FFB6B6"/>
<path d="M113.75 6.81914C114.451 7.19463 115.597 6.01416 116.036 6.69335C116.108 6.54657 116.186 6.40462 116.264 6.27038C116.335 6.15027 116.435 5.89386 116.552 5.84995C116.404 6.2351 116.437 6.75672 116.59 7.20363C117.282 7.48349 118.188 6.86401 118.828 6.13127C119.834 4.98234 121.476 7.92854 121.087 9.45325C121.581 8.80013 122.654 9.1685 123.017 9.91528C123.38 10.6602 122.766 11.257 122.635 12.0879L123.626 11.9518C124.251 11.2929 124.207 10.1827 124.722 9.41903C125.581 8.14105 125.914 6.83709 125.268 5.51815C124.695 4.35194 124.641 2.84262 123.59 2.17027C124.049 1.9271 122.415 2.30699 122.852 1.51453C123.29 0.723734 120.953 0.627752 120.801 1.05142C120.133 0.186415 119.46 -0.383897 118.639 0.309216C117.832 0.991128 117.915 1.7079 116.968 1.64366C116.524 1.61385 116.572 2.51105 116.308 2.90222C116.045 3.29129 115.024 3.54106 114.974 3.49943C114.705 3.27097 113.787 5.21582 113.787 5.21582C113.787 5.21582 113.043 6.43864 113.75 6.81914H113.75Z" fill="#2F2E41"/>
<path d="M51.9266 40.7643C68.5241 40.7643 81.9791 55.3289 81.9791 73.2952C81.9791 91.2616 68.5241 105.826 51.9266 105.826C35.329 105.826 12.3586 88.0132 21.874 73.2952C31.3894 58.5773 35.329 40.7643 51.9266 40.7643Z" fill="#F2F2F2"/>
<path d="M92.1498 42.3118C91.8803 42.3118 91.6611 42.5491 91.6611 42.8408V59.7675C91.6611 60.0592 91.8803 60.2964 92.1498 60.2964C92.4193 60.2964 92.6384 60.0592 92.6384 59.7675V42.8408C92.6384 42.5491 92.4193 42.3118 92.1498 42.3118Z" fill="#3F3D56"/>
<path d="M10.0549 29.6168C9.78544 29.6168 9.56628 29.8541 9.56628 30.1458V34.3774C9.56628 34.6692 9.78544 34.9064 10.0549 34.9064C10.3244 34.9064 10.5436 34.6692 10.5436 34.3774V30.1458C10.5436 29.854 10.3244 29.6168 10.0549 29.6168Z" fill="#3F3D56"/>
<path d="M10.0549 42.3118C9.78544 42.3118 9.56628 42.5491 9.56628 42.8408V51.0396C9.56628 51.3314 9.78544 51.5686 10.0549 51.5686C10.3244 51.5686 10.5436 51.3314 10.5436 51.0396V42.8408C10.5436 42.5491 10.3244 42.3118 10.0549 42.3118Z" fill="#3F3D56"/>
<path d="M10.0549 53.9489C9.78544 53.9489 9.56628 54.1861 9.56628 54.4779V62.6767C9.56628 62.9685 9.78544 63.2057 10.0549 63.2057C10.3244 63.2057 10.5436 62.9685 10.5436 62.6767V54.4779C10.5436 54.1861 10.3244 53.9489 10.0549 53.9489Z" fill="#3F3D56"/>
<path d="M53.8812 12.9547C53.6117 12.9547 53.3925 13.1919 53.3925 13.4836V21.6825C53.3925 21.9742 53.6117 22.2114 53.8812 22.2114C54.1507 22.2114 54.3699 21.9742 54.3699 21.6825V13.4836C54.3699 13.1919 54.1507 12.9547 53.8812 12.9547Z" fill="#3F3D56"/>
<path d="M128.743 114.416C129.248 114.45 129.527 113.771 129.145 113.375L129.107 113.212C129.112 113.199 129.117 113.186 129.122 113.173C129.632 111.855 131.362 111.864 131.868 113.184C132.318 114.355 132.89 115.528 133.03 116.766C133.094 117.313 133.065 117.87 132.953 118.406C134.006 115.917 134.56 113.2 134.56 110.466C134.56 109.78 134.525 109.093 134.454 108.408C134.396 107.848 134.315 107.291 134.211 106.739C133.648 103.756 132.428 100.916 130.668 98.5429C129.822 98.0424 129.117 97.26 128.691 96.3222C128.538 95.984 128.418 95.6201 128.361 95.2495C128.457 95.2631 128.724 93.6762 128.651 93.5788C128.785 93.3584 129.026 93.2489 129.172 93.0339C129.901 91.9645 130.905 92.1512 131.429 93.6044C132.548 94.2161 132.559 95.2305 131.872 96.2061C131.435 96.8268 131.375 97.6666 130.992 98.3311C131.031 98.3858 131.072 98.4387 131.112 98.4934C131.835 99.4979 132.461 100.578 132.988 101.712C132.839 100.451 133.059 98.9325 133.434 97.9536C133.862 96.8382 134.662 95.8988 135.367 94.9346C136.214 93.7764 137.951 94.2818 138.1 95.75C138.101 95.7643 138.103 95.7785 138.104 95.7927C137.999 95.8566 137.897 95.9246 137.797 95.9963C137.225 96.4055 137.422 97.3647 138.1 97.4778L138.115 97.4804C138.077 97.8887 138.013 98.2935 137.918 98.6916C138.822 102.478 136.87 103.857 134.082 103.919C134.02 103.953 133.96 103.987 133.898 104.02C134.181 104.881 134.407 105.764 134.574 106.659C134.724 107.45 134.828 108.249 134.886 109.052C134.959 110.065 134.953 111.083 134.874 112.094L134.878 112.059C135.079 110.945 135.638 109.904 136.449 109.184C137.657 108.109 139.364 107.713 140.668 106.85C141.295 106.434 142.099 106.971 141.99 107.759L141.985 107.796C141.79 107.882 141.601 107.981 141.418 108.092C141.313 108.156 141.211 108.224 141.111 108.296C140.539 108.705 140.736 109.664 141.414 109.777L141.429 109.78C141.44 109.781 141.45 109.783 141.461 109.785C141.128 110.641 140.664 111.435 140.083 112.12C139.517 115.425 137.088 115.739 134.49 114.776H134.489C134.205 116.116 133.79 117.424 133.256 118.671H128.853C128.837 118.618 128.823 118.563 128.809 118.511C129.216 118.538 129.627 118.512 130.027 118.432C129.701 117.998 129.374 117.561 129.047 117.127C129.04 117.118 129.033 117.11 129.027 117.101C128.861 116.879 128.694 116.659 128.528 116.437L128.528 116.436C128.518 115.755 128.593 115.075 128.743 114.416L128.743 114.416L128.743 114.416H128.743Z" fill="#F2F2F2"/>
<path d="M4 118.685C4 118.86 4.1295 119 4.29077 119H141.675C141.836 119 141.966 118.86 141.966 118.685C141.966 118.511 141.836 118.371 141.675 118.371H4.29077C4.1295 118.371 4 118.511 4 118.685Z" fill="#CCCCCC"/>
<path d="M38.7867 71.1024H21.874V70.5735H38.7867C40.2559 70.5735 41.4512 69.2795 41.4512 67.689V55.3106H41.9398V67.689C41.9398 69.5711 40.5254 71.1024 38.7867 71.1024H38.7867Z" fill="#89CCC5"/>
<path d="M71.0576 97.9352H32.5912V98.4641H71.0576V97.9352Z" fill="#89CCC5"/>
<path d="M95.4632 67.5654H74.917C73.8082 67.5654 72.9062 66.589 72.9062 65.3888V43.4196C72.9062 42.2193 73.8082 41.2429 74.917 41.2429H95.4632C96.5719 41.2429 97.474 42.2193 97.474 43.4196V65.3888C97.474 66.589 96.5719 67.5654 95.4632 67.5654Z" fill="#E6E6E6"/>
<path d="M78.7434 41.8915C75.8505 41.8915 73.5053 44.43 73.5053 47.5615V64.9227C73.5053 66.0241 74.3301 66.9169 75.3476 66.9169H87.911C92.8616 66.9169 96.8748 62.5727 96.8748 57.2139V43.8857C96.8748 42.7843 96.05 41.8914 95.0325 41.8914H78.7434V41.8915Z" fill="white"/>
<path d="M90.6929 48.2758H79.6442C79.4334 48.2758 79.2619 48.0902 79.2619 47.862C79.2619 47.6338 79.4334 47.4482 79.6442 47.4482H90.6929C90.9037 47.4482 91.0751 47.6338 91.0751 47.862C91.0751 48.0902 90.9037 48.2758 90.6929 48.2758Z" fill="#E6E6E6"/>
<path d="M90.6929 57.0998H79.6442C79.4334 57.0998 79.2619 56.9141 79.2619 56.686C79.2619 56.4578 79.4334 56.2722 79.6442 56.2722H90.6929C90.9037 56.2722 91.0751 56.4578 91.0751 56.686C91.0751 56.9141 90.9037 57.0998 90.6929 57.0998Z" fill="#E6E6E6"/>
<path d="M95.1796 52.6907H75.1575C74.9467 52.6907 74.7752 52.505 74.7752 52.2769C74.7752 52.0487 74.9467 51.8631 75.1575 51.8631H95.1796C95.3904 51.8631 95.5618 52.0487 95.5618 52.2769C95.5618 52.5051 95.3904 52.6907 95.1796 52.6907Z" fill="#E6E6E6"/>
<path d="M95.384 60.6876H88.151C87.9402 60.6876 87.7687 60.502 87.7687 60.2738C87.7687 60.0456 87.9402 59.86 88.151 59.86H95.384C95.5948 59.86 95.7662 60.0456 95.7662 60.2738C95.7662 60.502 95.5948 60.6876 95.384 60.6876Z" fill="#E6E6E6"/>
<path d="M52.3068 111.338H35.9918C35.1113 111.338 34.395 110.563 34.395 109.61V92.1645C34.395 91.2114 35.1113 90.4361 35.9918 90.4361H52.3068C53.1872 90.4361 53.9035 91.2114 53.9035 92.1645V109.61C53.9035 110.563 53.1872 111.338 52.3068 111.338H52.3068Z" fill="#E6E6E6"/>
<path d="M39.0301 90.951C36.733 90.951 34.8708 92.9668 34.8708 95.4534V109.239C34.8708 110.114 35.5257 110.823 36.3337 110.823H46.3099C50.241 110.823 53.4277 107.373 53.4277 103.118V92.5346C53.4277 91.66 52.7728 90.951 51.9648 90.951H39.0301L39.0301 90.951H39.0301Z" fill="white"/>
<path d="M48.5189 96.0206H39.7454C39.5781 96.0206 39.4419 95.8732 39.4419 95.692C39.4419 95.5109 39.5781 95.3635 39.7454 95.3635H48.5189C48.6863 95.3635 48.8224 95.5109 48.8224 95.692C48.8224 95.8732 48.6863 96.0206 48.5189 96.0206Z" fill="#E6E6E6"/>
<path d="M48.5189 103.027H39.7454C39.5781 103.027 39.4419 102.88 39.4419 102.699C39.4419 102.518 39.5781 102.37 39.7454 102.37H48.5189C48.6863 102.37 48.8224 102.518 48.8224 102.699C48.8224 102.88 48.6863 103.027 48.5189 103.027Z" fill="#E6E6E6"/>
<path d="M52.0816 99.5264H36.1827C36.0153 99.5264 35.8792 99.379 35.8792 99.1978C35.8792 99.0166 36.0153 98.8692 36.1827 98.8692H52.0816C52.249 98.8692 52.3851 99.0166 52.3851 99.1978C52.3851 99.379 52.249 99.5264 52.0816 99.5264Z" fill="#E6E6E6"/>
<path d="M52.2439 105.876H46.5004C46.333 105.876 46.1968 105.729 46.1968 105.548C46.1968 105.367 46.333 105.219 46.5004 105.219H52.2439C52.4113 105.219 52.5475 105.367 52.5475 105.548C52.5475 105.729 52.4113 105.876 52.2439 105.876Z" fill="#E6E6E6"/>
<path d="M40.9036 55.1772H28.8379C28.1868 55.1772 27.6571 54.6038 27.6571 53.8989V40.9976C27.6571 40.2927 28.1868 39.7193 28.8379 39.7193H40.9036C41.5547 39.7193 42.0845 40.2927 42.0845 40.9976V53.8989C42.0845 54.6038 41.5547 55.1772 40.9036 55.1772Z" fill="#E6E6E6"/>
<path d="M31.0849 40.1002C29.3861 40.1002 28.0089 41.5909 28.0089 43.4299V53.6252C28.0089 54.272 28.4933 54.7963 29.0908 54.7963H36.4686C39.3758 54.7963 41.7326 52.2452 41.7326 49.0982V41.2713C41.7326 40.6245 41.2482 40.1002 40.6507 40.1002H31.0849V40.1002L31.0849 40.1002Z" fill="white"/>
<path d="M38.1023 43.8494H31.6139C31.4901 43.8494 31.3894 43.7403 31.3894 43.6063C31.3894 43.4723 31.4901 43.3634 31.6139 43.3634H38.1023C38.226 43.3634 38.3267 43.4723 38.3267 43.6063C38.3267 43.7403 38.226 43.8494 38.1023 43.8494Z" fill="#E6E6E6"/>
<path d="M38.1023 49.0312H31.6139C31.4901 49.0312 31.3894 48.9222 31.3894 48.7882C31.3894 48.6542 31.4901 48.5452 31.6139 48.5452H38.1023C38.226 48.5452 38.3267 48.6542 38.3267 48.7882C38.3267 48.9222 38.226 49.0312 38.1023 49.0312Z" fill="#E6E6E6"/>
<path d="M40.7371 46.442H28.9791C28.8554 46.442 28.7546 46.333 28.7546 46.199C28.7546 46.065 28.8554 45.956 28.9791 45.956H40.7371C40.8608 45.956 40.9615 46.065 40.9615 46.199C40.9615 46.333 40.8608 46.442 40.7371 46.442Z" fill="#E6E6E6"/>
<path d="M40.8571 51.1382H36.6095C36.4858 51.1382 36.385 51.0292 36.385 50.8952C36.385 50.7612 36.4858 50.6522 36.6095 50.6522H40.8571C40.9809 50.6522 41.0816 50.7612 41.0816 50.8952C41.0816 51.0292 40.9809 51.1382 40.8571 51.1382Z" fill="#E6E6E6"/>
<path d="M76.1152 71.4439C77.4646 71.4439 78.5585 70.2598 78.5585 68.7991C78.5585 67.3384 77.4646 66.1543 76.1152 66.1543C74.7658 66.1543 73.6719 67.3384 73.6719 68.7991C73.6719 70.2598 74.7658 71.4439 76.1152 71.4439Z" fill="#89CCC5"/>
<path d="M41.6647 57.9554C43.0141 57.9554 44.108 56.7713 44.108 55.3107C44.108 53.85 43.0141 52.6659 41.6647 52.6659C40.3153 52.6659 39.2214 53.85 39.2214 55.3107C39.2214 56.7713 40.3153 57.9554 41.6647 57.9554Z" fill="#89CCC5"/>
<path d="M53.3925 94.1891C54.7419 94.1891 55.8358 93.005 55.8358 91.5443C55.8358 90.0836 54.7419 88.8995 53.3925 88.8995C52.0432 88.8995 50.9492 90.0836 50.9492 91.5443C50.9492 93.005 52.0432 94.1891 53.3925 94.1891Z" fill="#89CCC5"/>
<path d="M58.6703 20.8549C60.3521 20.8549 61.7155 19.4102 61.7155 17.6281C61.7155 15.846 60.3521 14.4013 58.6703 14.4013C56.9885 14.4013 55.6252 15.846 55.6252 17.6281C55.6252 19.4102 56.9885 20.8549 58.6703 20.8549Z" fill="#F2F2F2"/>
<path d="M83.082 16.5242H66.6912C66.1289 16.5242 65.6714 16.0289 65.6714 15.4203C65.6714 14.8116 66.1289 14.3163 66.6912 14.3163H83.082C83.6443 14.3163 84.1018 14.8116 84.1018 15.4203C84.1018 16.0289 83.6443 16.5242 83.082 16.5242Z" fill="#F2F2F2"/>
<path d="M95.8735 20.2605H66.6912C66.1289 20.2605 65.6714 19.7653 65.6714 19.1566C65.6714 18.5479 66.1289 18.0527 66.6912 18.0527H95.8735C96.4358 18.0527 96.8933 18.5479 96.8933 19.1566C96.8933 19.7653 96.4358 20.2605 95.8735 20.2605Z" fill="#F2F2F2"/>
<path d="M14.5939 34.4168C15.6823 34.4168 16.5647 33.4818 16.5647 32.3284C16.5647 31.1751 15.6823 30.2401 14.5939 30.2401C13.5055 30.2401 12.6231 31.1751 12.6231 32.3284C12.6231 33.4818 13.5055 34.4168 14.5939 34.4168Z" fill="#F2F2F2"/>
<path d="M30.3928 31.614H19.7849C19.421 31.614 19.1249 31.2935 19.1249 30.8996C19.1249 30.5056 19.421 30.1851 19.7849 30.1851H30.3928C30.7567 30.1851 31.0528 30.5056 31.0528 30.8996C31.0528 31.2935 30.7567 31.614 30.3928 31.614H30.3928Z" fill="#F2F2F2"/>
<path d="M38.6713 34.0321H19.7849C19.421 34.0321 19.1249 33.7116 19.1249 33.3176C19.1249 32.9237 19.421 32.6032 19.7849 32.6032H38.6713C39.0352 32.6032 39.3313 32.9237 39.3313 33.3176C39.3313 33.7116 39.0352 34.0321 38.6713 34.0321Z" fill="#F2F2F2"/>
<path d="M73.7218 108.735C74.8102 108.735 75.6925 107.8 75.6925 106.647C75.6925 105.494 74.8102 104.559 73.7218 104.559C72.6333 104.559 71.751 105.494 71.751 106.647C71.751 107.8 72.6333 108.735 73.7218 108.735Z" fill="#F2F2F2"/>
<path d="M89.5206 105.933H78.9127C78.5488 105.933 78.2527 105.612 78.2527 105.218C78.2527 104.824 78.5488 104.504 78.9127 104.504H89.5206C89.8846 104.504 90.1807 104.824 90.1807 105.218C90.1807 105.612 89.8846 105.933 89.5206 105.933Z" fill="#F2F2F2"/>
<path d="M97.7991 108.351H78.9127C78.5488 108.351 78.2527 108.03 78.2527 107.636C78.2527 107.242 78.5488 106.922 78.9127 106.922H97.7991C98.163 106.922 98.4591 107.242 98.4591 107.636C98.4591 108.03 98.163 108.351 97.7991 108.351Z" fill="#F2F2F2"/>
<path d="M50.033 41.2509H49.5443V66.3764H50.033V41.2509Z" fill="#E6E6E6"/>
<path d="M49.7887 67.9633C50.5983 67.9633 51.2547 67.2529 51.2547 66.3765C51.2547 65.5001 50.5983 64.7896 49.7887 64.7896C48.979 64.7896 48.3227 65.5001 48.3227 66.3765C48.3227 67.2529 48.979 67.9633 49.7887 67.9633Z" fill="#E6E6E6"/>
<path d="M72.0227 86.2124C72.8323 86.2124 73.4887 85.5019 73.4887 84.6255C73.4887 83.7491 72.8323 83.0386 72.0227 83.0386C71.213 83.0386 70.5567 83.7491 70.5567 84.6255C70.5567 85.5019 71.213 86.2124 72.0227 86.2124Z" fill="#E6E6E6"/>
<path d="M32.4412 64.5251C33.2509 64.5251 33.9072 63.8146 33.9072 62.9382C33.9072 62.0618 33.2509 61.3513 32.4412 61.3513C31.6316 61.3513 30.9753 62.0618 30.9753 62.9382C30.9753 63.8146 31.6316 64.5251 32.4412 64.5251Z" fill="#E6E6E6"/>
<path d="M31.8995 62.9406L23.8823 63.2034L23.8971 63.7323L31.9143 63.4696L31.8995 62.9406Z" fill="#E6E6E6"/>
<path d="M83.9486 90.7006H71.7918V84.6255H72.2805V90.1716H83.9486V90.7006Z" fill="#E6E6E6"/>
<path d="M31.8395 81.8525C32.6492 81.8525 33.3055 81.142 33.3055 80.2656C33.3055 79.3892 32.6492 78.6787 31.8395 78.6787C31.0299 78.6787 30.3735 79.3892 30.3735 80.2656C30.3735 81.142 31.0299 81.8525 31.8395 81.8525Z" fill="#E6E6E6"/>
<path d="M43.6208 86.3406H31.4639V80.2656H31.9526V85.8117H43.6208V86.3406Z" fill="#E6E6E6"/>
<path d="M80.8185 74.2274H22.428V74.7564H80.8185V74.2274Z" fill="#E6E6E6"/>
</g>
<defs>
<filter id="filter0_di_17_230" x="0" y="0" width="146" height="127" filterUnits="userSpaceOnUse" color-interpolation-filters="sRGB">
<feFlood flood-opacity="0" result="BackgroundImageFix"/>
<feColorMatrix in="SourceAlpha" type="matrix" values="0 0 0 0 0 0 0 0 0 0 0 0 0 0 0 0 0 0 127 0" result="hardAlpha"/>
<feOffset dy="4"/>
<feGaussianBlur stdDeviation="2"/>
<feComposite in2="hardAlpha" operator="out"/>
<feColorMatrix type="matrix" values="0 0 0 0 0 0 0 0 0 0 0 0 0 0 0 0 0 0 0.25 0"/>
<feBlend mode="normal" in2="BackgroundImageFix" result="effect1_dropShadow_17_230"/>
<feBlend mode="normal" in="SourceGraphic" in2="effect1_dropShadow_17_230" result="shape"/>
<feColorMatrix in="SourceAlpha" type="matrix" values="0 0 0 0 0 0 0 0 0 0 0 0 0 0 0 0 0 0 127 0" result="hardAlpha"/>
<feOffset/>
<feGaussianBlur stdDeviation="2.5"/>
<feComposite in2="hardAlpha" operator="arithmetic" k2="-1" k3="1"/>
<feColorMatrix type="matrix" values="0 0 0 0 0 0 0 0 0 0 0 0 0 0 0 0 0 0 0.3 0"/>
<feBlend mode="normal" in2="shape" result="effect2_innerShadow_17_230"/>
</filter>
</defs>
</svg>
