<svg width="329" height="337" viewBox="0 0 329 337" fill="none" xmlns="http://www.w3.org/2000/svg">
<g clip-path="url(#clip0_23_114)">
<path d="M259.801 27.8293C259.431 27.5375 259.057 27.2609 258.687 26.9791C247.999 18.8878 236.543 12.3145 224.556 7.39497L221.777 52.7812H204.156V0.769653C203.047 0.498 201.929 0.241439 200.812 -3.05176e-05V52.7812H179.872C168.345 52.7812 157.29 47.3608 149.139 37.7124C140.988 28.064 136.408 14.978 136.408 1.33314V1.33309C135.286 1.61983 134.173 1.9267 133.059 2.25369V52.7812H116.004L113.357 9.5028C101.038 15.095 89.3435 22.449 78.5329 31.4011C78.3459 31.552 78.1589 31.7079 77.9761 31.8588C77.0369 32.6386 76.1104 33.4334 75.1882 34.2383V207.387H125.452L124.564 192.823L119.676 112.862H218.1L213.213 192.823L212.325 207.387H262.032V29.58C261.292 28.9864 260.549 28.4028 259.801 27.8293ZM133.059 99.6564H118.869L116.247 56.7453H133.059V99.6564ZM200.812 99.6564H176.978V98.8062C176.978 98.3975 176.91 97.9928 176.778 97.6153C176.646 97.2378 176.452 96.8948 176.207 96.6061C175.963 96.3173 175.673 96.0884 175.354 95.9325C175.035 95.7766 174.693 95.6966 174.347 95.6973H163.986C163.641 95.6971 163.3 95.7775 162.981 95.9336C162.662 96.0898 162.373 96.3188 162.129 96.6075C161.885 96.8963 161.691 97.239 161.559 97.6163C161.427 97.9936 161.36 98.3979 161.36 98.8062V99.6564H136.408V56.7453H200.812V99.6564ZM204.156 99.6564V56.7453H221.534L218.912 99.6564H204.156Z" fill="#F2F2F2"/>
<path d="M314.388 314.69L314.72 305.848C318.183 303.657 322.046 302.499 325.973 302.476C320.568 307.706 321.244 317.788 317.58 324.822C316.423 327.005 314.866 328.852 313.024 330.226C311.181 331.6 309.102 332.466 306.939 332.759L302.416 336.037C301.795 331.942 301.932 327.736 302.817 323.709C303.702 319.683 305.314 315.931 307.541 312.713C308.806 310.922 310.256 309.327 311.858 307.965C312.941 311.346 314.388 314.69 314.388 314.69Z" fill="#F2F2F2"/>
<path d="M71.7383 305L60.8243 301.089C59.393 294.206 59.4028 287.013 60.8529 280.135C65.3473 291.559 78.1892 294.175 85.5903 303.233C87.8804 306.08 89.6 309.499 90.6218 313.239C91.6435 316.979 91.9411 320.943 91.4926 324.838L93.8815 333.984C88.5349 333.527 83.3356 331.704 78.6417 328.639C73.9478 325.575 69.8709 321.343 66.6919 316.234C64.9325 313.346 63.4872 310.209 62.3902 306.894C67.0191 306.273 71.7383 305 71.7383 305Z" fill="#F2F2F2"/>
<path d="M305.895 334.591C305.894 334.859 305.804 335.115 305.645 335.305C305.566 335.398 305.472 335.472 305.37 335.522C305.267 335.572 305.157 335.598 305.045 335.597H301.628C301.517 335.598 301.406 335.572 301.303 335.522C301.199 335.471 301.106 335.397 301.027 335.304C300.948 335.21 300.885 335.099 300.842 334.977C300.8 334.854 300.778 334.723 300.778 334.591V212.277C300.778 209.58 300.013 207.392 299.074 207.387H43.0205C42.077 207.392 41.3163 209.58 41.3121 212.277V333.842C41.3114 334.092 41.2323 334.332 41.0902 334.517C40.9481 334.702 40.753 334.818 40.5428 334.843C39.8543 334.923 39.1658 334.994 38.4816 335.059C38.4646 335.059 38.4476 335.064 38.4306 335.064C38.0566 335.104 37.6826 335.134 37.3086 335.17H37.3044C37.1089 334.752 36.9219 334.324 36.7306 333.897C36.6693 333.752 36.6373 333.591 36.6371 333.429V205.933C36.6371 205.189 36.6626 204.439 36.7051 203.7C36.7658 202.684 36.8722 201.673 37.0239 200.671C37.7421 195.998 39.3656 192.833 41.2101 192.823H300.88C301.15 192.826 301.416 192.892 301.662 193.02C302.025 193.209 302.353 193.481 302.627 193.819C303 194.278 303.319 194.794 303.575 195.354C304.484 197.25 305.135 200.078 305.364 203.368C305.364 203.398 305.368 203.428 305.368 203.458C305.428 204.273 305.458 205.103 305.453 205.933L305.513 216.714L305.551 223.143L305.666 243.316L305.708 250.479L305.895 334.591Z" fill="#F2F2F2"/>
<path d="M328.494 336.845L211.302 337C211.168 337 211.04 336.936 210.945 336.824C210.851 336.712 210.798 336.56 210.798 336.401C210.798 336.242 210.851 336.09 210.945 335.978C211.04 335.866 211.168 335.802 211.302 335.802L328.494 335.647C328.628 335.648 328.756 335.711 328.851 335.823C328.945 335.936 328.999 336.088 328.999 336.246C328.999 336.405 328.945 336.557 328.851 336.669C328.756 336.782 328.628 336.845 328.494 336.845Z" fill="#F2F2F2"/>
<path d="M183.031 157.087H162.275C161.981 157.087 161.7 157.226 161.492 157.472C161.285 157.718 161.169 158.051 161.169 158.399V197.21H184.139V158.399C184.139 158.226 184.111 158.056 184.055 157.897C183.999 157.737 183.918 157.593 183.815 157.471C183.712 157.349 183.59 157.252 183.455 157.186C183.32 157.12 183.176 157.086 183.031 157.087ZM172.723 179.139C172.073 179.135 171.452 178.828 170.993 178.285C170.534 177.742 170.275 177.006 170.272 176.237V171.761C170.272 170.991 170.53 170.254 170.99 169.709C171.449 169.165 172.073 168.86 172.723 168.86C173.373 168.86 173.996 169.165 174.456 169.709C174.915 170.254 175.174 170.991 175.174 171.761V176.237C175.17 177.006 174.911 177.742 174.452 178.285C173.993 178.828 173.372 179.135 172.723 179.139V179.139Z" fill="#2F2E41"/>
<path d="M217.401 96.5173H128.677C127.915 96.5188 127.184 96.8778 126.645 97.5159C126.106 98.1539 125.803 99.0188 125.802 99.9211V170.79C125.802 171.692 126.106 172.558 126.645 173.196C127.184 173.834 127.915 174.193 128.677 174.194H217.401C218.163 174.193 218.894 173.834 219.433 173.196C219.972 172.558 220.275 171.692 220.276 170.79V99.9211C220.275 99.0188 219.972 98.1539 219.433 97.5159C218.894 96.8778 218.163 96.5188 217.401 96.5173V96.5173Z" fill="#3F3D56"/>
<path d="M216.658 98.9752H129.417C129.009 98.9762 128.618 99.1689 128.329 99.5108C128.041 99.8528 127.879 100.316 127.879 100.799V169.911C127.88 170.394 128.042 170.857 128.33 171.198C128.619 171.539 129.009 171.731 129.417 171.732H216.658C217.066 171.731 217.457 171.539 217.745 171.198C218.033 170.857 218.196 170.394 218.196 169.911V100.799C218.196 100.316 218.034 99.8528 217.746 99.5108C217.458 99.1689 217.067 98.9762 216.658 98.9752V98.9752Z" fill="white"/>
<path d="M161.098 195.969V199.713C161.098 199.907 161.163 200.093 161.279 200.23C161.395 200.367 161.552 200.445 161.716 200.445H183.592C183.756 200.444 183.913 200.367 184.029 200.23C184.144 200.093 184.21 199.907 184.211 199.713V195.969H161.098Z" fill="#3F3D56"/>
<path d="M199.667 201.748H147.763C147.621 201.748 147.481 201.711 147.352 201.638C147.224 201.566 147.111 201.461 147.021 201.33C146.932 201.199 146.868 201.047 146.835 200.883C146.801 200.72 146.799 200.55 146.829 200.385L147.634 195.857C147.68 195.604 147.797 195.377 147.967 195.214C148.137 195.05 148.349 194.961 148.568 194.96H198.862C199.08 194.961 199.292 195.05 199.462 195.214C199.632 195.377 199.75 195.604 199.796 195.857L200.601 200.385C200.63 200.55 200.628 200.72 200.595 200.883C200.562 201.047 200.498 201.199 200.408 201.33C200.319 201.461 200.206 201.566 200.077 201.638C199.949 201.711 199.809 201.748 199.667 201.748V201.748Z" fill="#2F2E41"/>
<path d="M150.328 195.775H149.144C149.03 195.775 148.937 195.885 148.937 196.021V196.665C148.937 196.801 149.03 196.911 149.144 196.911H150.328C150.442 196.911 150.535 196.801 150.535 196.665V196.021C150.535 195.885 150.442 195.775 150.328 195.775Z" fill="#3F3D56"/>
<path d="M153.525 195.775H152.341C152.227 195.775 152.134 195.885 152.134 196.021V196.665C152.134 196.801 152.227 196.911 152.341 196.911H153.525C153.64 196.911 153.732 196.801 153.732 196.665V196.021C153.732 195.885 153.64 195.775 153.525 195.775Z" fill="#3F3D56"/>
<path d="M156.722 195.775H155.539C155.424 195.775 155.331 195.885 155.331 196.021V196.665C155.331 196.801 155.424 196.911 155.539 196.911H156.722C156.837 196.911 156.93 196.801 156.93 196.665V196.021C156.93 195.885 156.837 195.775 156.722 195.775Z" fill="#3F3D56"/>
<path d="M159.919 195.775H158.736C158.621 195.775 158.528 195.885 158.528 196.021V196.665C158.528 196.801 158.621 196.911 158.736 196.911H159.919C160.034 196.911 160.127 196.801 160.127 196.665V196.021C160.127 195.885 160.034 195.775 159.919 195.775Z" fill="#3F3D56"/>
<path d="M163.117 195.775H161.933C161.818 195.775 161.725 195.885 161.725 196.021V196.665C161.725 196.801 161.818 196.911 161.933 196.911H163.117C163.231 196.911 163.324 196.801 163.324 196.665V196.021C163.324 195.885 163.231 195.775 163.117 195.775Z" fill="#3F3D56"/>
<path d="M166.314 195.775H165.13C165.016 195.775 164.923 195.885 164.923 196.021V196.665C164.923 196.801 165.016 196.911 165.13 196.911H166.314C166.428 196.911 166.521 196.801 166.521 196.665V196.021C166.521 195.885 166.428 195.775 166.314 195.775Z" fill="#3F3D56"/>
<path d="M169.511 195.775H168.327C168.213 195.775 168.12 195.885 168.12 196.021V196.665C168.12 196.801 168.213 196.911 168.327 196.911H169.511C169.626 196.911 169.718 196.801 169.718 196.665V196.021C169.718 195.885 169.626 195.775 169.511 195.775Z" fill="#3F3D56"/>
<path d="M172.708 195.775H171.524C171.41 195.775 171.317 195.885 171.317 196.021V196.665C171.317 196.801 171.41 196.911 171.524 196.911H172.708C172.823 196.911 172.916 196.801 172.916 196.665V196.021C172.916 195.885 172.823 195.775 172.708 195.775Z" fill="#3F3D56"/>
<path d="M175.905 195.775H174.722C174.607 195.775 174.514 195.885 174.514 196.021V196.665C174.514 196.801 174.607 196.911 174.722 196.911H175.905C176.02 196.911 176.113 196.801 176.113 196.665V196.021C176.113 195.885 176.02 195.775 175.905 195.775Z" fill="#3F3D56"/>
<path d="M179.102 195.775H177.919C177.804 195.775 177.711 195.885 177.711 196.021V196.665C177.711 196.801 177.804 196.911 177.919 196.911H179.102C179.217 196.911 179.31 196.801 179.31 196.665V196.021C179.31 195.885 179.217 195.775 179.102 195.775Z" fill="#3F3D56"/>
<path d="M182.3 195.775H181.116C181.001 195.775 180.909 195.885 180.909 196.021V196.665C180.909 196.801 181.001 196.911 181.116 196.911H182.3C182.414 196.911 182.507 196.801 182.507 196.665V196.021C182.507 195.885 182.414 195.775 182.3 195.775Z" fill="#3F3D56"/>
<path d="M185.497 195.775H184.313C184.199 195.775 184.106 195.885 184.106 196.021V196.665C184.106 196.801 184.199 196.911 184.313 196.911H185.497C185.611 196.911 185.704 196.801 185.704 196.665V196.021C185.704 195.885 185.611 195.775 185.497 195.775Z" fill="#3F3D56"/>
<path d="M188.694 195.775H187.51C187.396 195.775 187.303 195.885 187.303 196.021V196.665C187.303 196.801 187.396 196.911 187.51 196.911H188.694C188.809 196.911 188.902 196.801 188.902 196.665V196.021C188.902 195.885 188.809 195.775 188.694 195.775Z" fill="#3F3D56"/>
<path d="M191.891 195.775H190.708C190.593 195.775 190.5 195.885 190.5 196.021V196.665C190.5 196.801 190.593 196.911 190.708 196.911H191.891C192.006 196.911 192.099 196.801 192.099 196.665V196.021C192.099 195.885 192.006 195.775 191.891 195.775Z" fill="#3F3D56"/>
<path d="M195.088 195.775H193.905C193.79 195.775 193.697 195.885 193.697 196.021V196.665C193.697 196.801 193.79 196.911 193.905 196.911H195.088C195.203 196.911 195.296 196.801 195.296 196.665V196.021C195.296 195.885 195.203 195.775 195.088 195.775Z" fill="#3F3D56"/>
<path d="M198.286 195.775H197.102C196.987 195.775 196.894 195.885 196.894 196.021V196.665C196.894 196.801 196.987 196.911 197.102 196.911H198.286C198.4 196.911 198.493 196.801 198.493 196.665V196.021C198.493 195.885 198.4 195.775 198.286 195.775Z" fill="#3F3D56"/>
<path d="M150.29 197.668H149.106C148.992 197.668 148.899 197.777 148.899 197.913V198.557C148.899 198.693 148.992 198.803 149.106 198.803H150.29C150.405 198.803 150.498 198.693 150.498 198.557V197.913C150.498 197.777 150.405 197.668 150.29 197.668Z" fill="#3F3D56"/>
<path d="M153.487 197.668H152.304C152.189 197.668 152.096 197.777 152.096 197.913V198.557C152.096 198.693 152.189 198.803 152.304 198.803H153.487C153.602 198.803 153.695 198.693 153.695 198.557V197.913C153.695 197.777 153.602 197.668 153.487 197.668Z" fill="#3F3D56"/>
<path d="M156.684 197.668H155.501C155.386 197.668 155.293 197.777 155.293 197.913V198.557C155.293 198.693 155.386 198.803 155.501 198.803H156.684C156.799 198.803 156.892 198.693 156.892 198.557V197.913C156.892 197.777 156.799 197.668 156.684 197.668Z" fill="#3F3D56"/>
<path d="M159.882 197.668H158.698C158.583 197.668 158.49 197.777 158.49 197.913V198.557C158.49 198.693 158.583 198.803 158.698 198.803H159.882C159.996 198.803 160.089 198.693 160.089 198.557V197.913C160.089 197.777 159.996 197.668 159.882 197.668Z" fill="#3F3D56"/>
<path d="M163.079 197.668H161.895C161.781 197.668 161.688 197.777 161.688 197.913V198.557C161.688 198.693 161.781 198.803 161.895 198.803H163.079C163.193 198.803 163.286 198.693 163.286 198.557V197.913C163.286 197.777 163.193 197.668 163.079 197.668Z" fill="#3F3D56"/>
<path d="M166.276 197.668H165.092C164.978 197.668 164.885 197.777 164.885 197.913V198.557C164.885 198.693 164.978 198.803 165.092 198.803H166.276C166.391 198.803 166.483 198.693 166.483 198.557V197.913C166.483 197.777 166.391 197.668 166.276 197.668Z" fill="#3F3D56"/>
<path d="M169.473 197.668H168.29C168.175 197.668 168.082 197.777 168.082 197.913V198.557C168.082 198.693 168.175 198.803 168.29 198.803H169.473C169.588 198.803 169.681 198.693 169.681 198.557V197.913C169.681 197.777 169.588 197.668 169.473 197.668Z" fill="#3F3D56"/>
<path d="M172.67 197.668H171.487C171.372 197.668 171.279 197.777 171.279 197.913V198.557C171.279 198.693 171.372 198.803 171.487 198.803H172.67C172.785 198.803 172.878 198.693 172.878 198.557V197.913C172.878 197.777 172.785 197.668 172.67 197.668Z" fill="#3F3D56"/>
<path d="M175.868 197.668H174.684C174.569 197.668 174.476 197.777 174.476 197.913V198.557C174.476 198.693 174.569 198.803 174.684 198.803H175.868C175.982 198.803 176.075 198.693 176.075 198.557V197.913C176.075 197.777 175.982 197.668 175.868 197.668Z" fill="#3F3D56"/>
<path d="M179.065 197.668H177.881C177.766 197.668 177.674 197.777 177.674 197.913V198.557C177.674 198.693 177.766 198.803 177.881 198.803H179.065C179.179 198.803 179.272 198.693 179.272 198.557V197.913C179.272 197.777 179.179 197.668 179.065 197.668Z" fill="#3F3D56"/>
<path d="M182.262 197.668H181.078C180.964 197.668 180.871 197.777 180.871 197.913V198.557C180.871 198.693 180.964 198.803 181.078 198.803H182.262C182.376 198.803 182.469 198.693 182.469 198.557V197.913C182.469 197.777 182.376 197.668 182.262 197.668Z" fill="#3F3D56"/>
<path d="M185.459 197.668H184.275C184.161 197.668 184.068 197.777 184.068 197.913V198.557C184.068 198.693 184.161 198.803 184.275 198.803H185.459C185.574 198.803 185.667 198.693 185.667 198.557V197.913C185.667 197.777 185.574 197.668 185.459 197.668Z" fill="#3F3D56"/>
<path d="M188.656 197.668H187.473C187.358 197.668 187.265 197.777 187.265 197.913V198.557C187.265 198.693 187.358 198.803 187.473 198.803H188.656C188.771 198.803 188.864 198.693 188.864 198.557V197.913C188.864 197.777 188.771 197.668 188.656 197.668Z" fill="#3F3D56"/>
<path d="M191.853 197.668H190.67C190.555 197.668 190.462 197.777 190.462 197.913V198.557C190.462 198.693 190.555 198.803 190.67 198.803H191.853C191.968 198.803 192.061 198.693 192.061 198.557V197.913C192.061 197.777 191.968 197.668 191.853 197.668Z" fill="#3F3D56"/>
<path d="M195.051 197.668H193.867C193.752 197.668 193.659 197.777 193.659 197.913V198.557C193.659 198.693 193.752 198.803 193.867 198.803H195.051C195.165 198.803 195.258 198.693 195.258 198.557V197.913C195.258 197.777 195.165 197.668 195.051 197.668Z" fill="#3F3D56"/>
<path d="M198.248 197.668H197.064C196.95 197.668 196.857 197.777 196.857 197.913V198.557C196.857 198.693 196.95 198.803 197.064 198.803H198.248C198.362 198.803 198.455 198.693 198.455 198.557V197.913C198.455 197.777 198.362 197.668 198.248 197.668Z" fill="#3F3D56"/>
<path d="M176.827 199.938H164.453C164.338 199.938 164.245 200.048 164.245 200.184V200.828C164.245 200.964 164.338 201.074 164.453 201.074H176.827C176.941 201.074 177.034 200.964 177.034 200.828V200.184C177.034 200.048 176.941 199.938 176.827 199.938Z" fill="#3F3D56"/>
<path d="M212.275 108.498H130.643C130.558 108.496 130.477 108.454 130.418 108.383C130.358 108.311 130.325 108.214 130.325 108.114C130.325 108.013 130.358 107.917 130.418 107.845C130.477 107.773 130.558 107.732 130.643 107.729H212.275C212.359 107.732 212.44 107.773 212.5 107.845C212.559 107.917 212.592 108.013 212.592 108.114C212.592 108.214 212.559 108.311 212.5 108.383C212.44 108.454 212.359 108.496 212.275 108.498V108.498Z" fill="#F2F2F2"/>
<path d="M136.2 105.767C137.251 105.767 138.102 104.737 138.102 103.465C138.102 102.194 137.251 101.163 136.2 101.163C135.149 101.163 134.297 102.194 134.297 103.465C134.297 104.737 135.149 105.767 136.2 105.767Z" fill="#3F3D56"/>
<path d="M142.772 105.767C143.823 105.767 144.674 104.737 144.674 103.465C144.674 102.194 143.823 101.163 142.772 101.163C141.721 101.163 140.87 102.194 140.87 103.465C140.87 104.737 141.721 105.767 142.772 105.767Z" fill="#3F3D56"/>
<path d="M149.344 105.767C150.395 105.767 151.247 104.737 151.247 103.465C151.247 102.194 150.395 101.163 149.344 101.163C148.293 101.163 147.442 102.194 147.442 103.465C147.442 104.737 148.293 105.767 149.344 105.767Z" fill="#3F3D56"/>
<path d="M208.318 101.734H203.649C203.556 101.736 203.468 101.781 203.404 101.859C203.339 101.938 203.302 102.043 203.302 102.152C203.302 102.262 203.339 102.367 203.404 102.445C203.468 102.523 203.556 102.569 203.649 102.571H208.318C208.41 102.569 208.498 102.523 208.563 102.445C208.628 102.367 208.664 102.262 208.664 102.152C208.664 102.043 208.628 101.938 208.563 101.859C208.498 101.781 208.41 101.736 208.318 101.734V101.734Z" fill="#3F3D56"/>
<path d="M208.318 103.305H203.649C203.556 103.307 203.468 103.352 203.404 103.43C203.339 103.508 203.302 103.613 203.302 103.723C203.302 103.832 203.339 103.938 203.404 104.016C203.468 104.094 203.556 104.139 203.649 104.141H208.318C208.41 104.139 208.498 104.094 208.563 104.016C208.628 103.938 208.664 103.832 208.664 103.723C208.664 103.613 208.628 103.508 208.563 103.43C208.498 103.352 208.41 103.307 208.318 103.305V103.305Z" fill="#3F3D56"/>
<path d="M208.318 104.873H203.649C203.556 104.875 203.468 104.92 203.404 104.999C203.339 105.077 203.302 105.182 203.302 105.291C203.302 105.401 203.339 105.506 203.404 105.584C203.468 105.663 203.556 105.708 203.649 105.71H208.318C208.41 105.708 208.498 105.663 208.563 105.584C208.628 105.506 208.664 105.401 208.664 105.291C208.664 105.182 208.628 105.077 208.563 104.999C208.498 104.92 208.41 104.875 208.318 104.873V104.873Z" fill="#3F3D56"/>
<path d="M177.98 130.947H167.779C167.013 130.947 166.392 131.682 166.392 132.589V132.589C166.392 133.496 167.013 134.231 167.779 134.231H177.98C178.746 134.231 179.367 133.496 179.367 132.589V132.589C179.367 131.682 178.746 130.947 177.98 130.947Z" fill="black"/>
<path d="M184.569 137.515H161.19C160.424 137.515 159.803 138.25 159.803 139.157V139.157C159.803 140.064 160.424 140.799 161.19 140.799H184.569C185.335 140.799 185.956 140.064 185.956 139.157V139.157C185.956 138.25 185.335 137.515 184.569 137.515Z" fill="#F2F2F2"/>
<path d="M184.569 144.083H161.19C160.424 144.083 159.803 144.818 159.803 145.725C159.803 146.632 160.424 147.367 161.19 147.367H184.569C185.335 147.367 185.956 146.632 185.956 145.725C185.956 144.818 185.335 144.083 184.569 144.083Z" fill="#F2F2F2"/>
<path d="M131.44 206.688H105.941C105.039 206.688 104.174 207.112 103.537 207.866C102.899 208.621 102.541 209.645 102.541 210.712C102.541 211.78 102.899 212.803 103.537 213.558C104.174 214.313 105.039 214.737 105.941 214.737H115.29V245.927H122.09V214.737H131.44C132.342 214.737 133.207 214.313 133.844 213.558C134.482 212.803 134.84 211.78 134.84 210.712C134.84 209.645 134.482 208.621 133.844 207.866C133.207 207.112 132.342 206.688 131.44 206.688Z" fill="#3F3D56"/>
<path d="M148.27 263.2H80.0663C73.4543 263.171 67.0716 260.328 62.0843 255.189C57.0969 250.051 53.8378 242.96 52.9023 235.212L50.488 224.7C45.491 202.917 37.8796 182.096 27.8864 162.872C23.3188 154.092 20.9679 145.593 26.3076 137.41C26.3531 137.34 26.3978 137.271 26.4417 137.204C30.7244 130.605 52.0409 129.177 58.99 128.899C59.2645 128.888 59.5401 128.883 59.8167 128.883H102.239C102.516 128.883 102.791 128.888 103.066 128.899C106.812 129.028 110.458 130.356 113.619 132.74C116.779 135.124 119.335 138.477 121.016 142.442C122.809 146.49 123.643 151.038 123.429 155.602C123.216 160.166 121.962 164.576 119.802 168.365C104.9 194.861 100.338 211.476 105.009 222.235C109.527 232.642 123.377 237.963 148.595 238.979C155.372 239.253 158.483 245.499 158.504 251.187C158.526 256.728 155.535 262.846 148.92 263.184C148.705 263.195 148.488 263.2 148.27 263.2Z" fill="#3F3D56"/>
<path d="M91.6527 334.886H117.152C118.054 334.886 118.919 334.462 119.556 333.708C120.194 332.953 120.552 331.929 120.552 330.862C120.552 329.794 120.194 328.771 119.556 328.016C118.919 327.261 118.054 326.837 117.152 326.837H107.802V258.924H101.003V326.837H91.6527C90.751 326.837 89.8862 327.261 89.2486 328.016C88.611 328.771 88.2527 329.794 88.2527 330.862C88.2527 331.929 88.611 332.953 89.2486 333.708C89.8862 334.462 90.751 334.886 91.6527 334.886Z" fill="#3F3D56"/>
<path d="M89.6162 131.404L90.1508 135.248C90.4036 137.113 91.3193 150.283 90.6409 151.854C90.5812 148.92 85.966 144.308 82.9757 145.361L78.2828 146.595L75.3701 147.363L72.9995 147.978L66.1107 149.759C66.0987 149.665 66.09 149.564 66.078 149.469C66.0617 149.35 66.0454 149.231 66.025 149.113C65.8967 148.348 65.6628 147.613 65.3325 146.939C65.2976 147.842 65.0722 148.721 64.677 149.496C64.6662 149.516 64.6568 149.537 64.6489 149.559C64.5265 149.793 64.3915 150.018 64.2447 150.232C64.2379 150.237 64.2317 150.244 64.2264 150.252C64.2264 150.252 62.811 123.544 62.9592 123.298C63.0678 123.122 63.1772 122.952 63.2916 122.786C63.4051 122.615 63.5154 122.449 63.6339 122.282C63.6491 122.266 63.662 122.247 63.672 122.226C64.004 121.761 64.3557 121.316 64.7256 120.893C64.8343 120.769 64.9472 120.644 65.06 120.519C66.7834 118.632 68.8425 117.226 71.0857 116.405C71.3388 116.313 71.6018 116.229 71.869 116.143C72.133 116.064 72.4019 115.989 72.6725 115.923L72.7642 115.901C72.8932 115.87 73.0273 115.842 73.1572 115.816C73.3204 115.782 73.4845 115.752 73.6453 115.729C75.7324 115.373 77.8586 115.514 79.8989 116.145C79.903 116.144 79.9039 116.149 79.9081 116.148C81.6112 116.674 83.2299 117.528 84.7001 118.674C87.243 120.661 88.2328 123.903 88.9358 127.543C89.1822 128.792 89.3896 130.093 89.6162 131.404Z" fill="#2F2E41"/>
<path d="M114.732 307.507L119.125 310.332L130.754 291.3L124.27 287.131L114.732 307.507Z" fill="#FFB6B6"/>
<path d="M116.847 300.725L124.821 303.681L123.552 307.636L129.02 317.03C129.29 317.494 129.428 318.048 129.413 318.611C129.399 319.175 129.232 319.718 128.939 320.161C128.645 320.604 128.239 320.925 127.78 321.076C127.322 321.227 126.834 321.2 126.389 321L117.106 316.825L116.761 312.194L114.881 315.824L111.381 314.25L116.847 300.725Z" fill="#2F2E41"/>
<path d="M139.614 222.383C138.913 222.585 138.183 222.603 137.475 222.435C136.768 222.267 136.1 221.917 135.519 221.411C134.938 220.904 134.458 220.253 134.112 219.503C133.767 218.753 133.565 217.923 133.52 217.07L96.0519 201.115L102.928 194.032L138.49 210.792C139.705 210.798 140.876 211.331 141.782 212.29C142.687 213.249 143.263 214.568 143.402 215.997C143.54 217.426 143.231 218.865 142.533 220.042C141.835 221.219 140.796 222.052 139.614 222.383V222.383Z" fill="#FFB6B6"/>
<path d="M85.585 161.588C85.585 161.588 79.2746 161.753 78.7135 170.28C78.1525 178.808 91.9218 199.902 94.0552 203.38C96.1885 206.858 119.885 211.14 119.885 211.14L127.94 204.218C119.476 197.726 111.751 192.748 106.567 192.972L85.585 161.588Z" fill="black"/>
<path d="M77.8456 199.216L79.3833 207.036C79.3833 207.036 79.3984 214.248 80.4773 215.577C81.5487 216.901 105.108 214.244 105.108 214.244C105.108 214.244 102.61 202.623 102.643 193.83L77.8456 199.216Z" fill="#FFB6B6"/>
<path d="M127.615 299.251L119.115 293.717C118.954 280.625 125.606 262.908 133.497 244.351C115.85 247.943 99.2017 249.094 84.8017 244.748C82.4376 244.009 80.4142 242.199 79.1686 239.708C77.923 237.218 77.5554 234.247 78.1451 231.438C78.2012 231.163 78.266 230.89 78.3395 230.62C80.063 224.396 76.1986 220.494 79.7529 213.649C89.1012 209.869 97.9817 208.802 106.102 212.139L111.191 225.456L136.411 221.593C137.629 221.421 138.864 221.535 140.045 221.931C141.226 222.326 142.329 222.994 143.291 223.896C144.253 224.798 145.054 225.917 145.649 227.187C146.244 228.458 146.62 229.855 146.757 231.299C146.791 231.623 146.813 231.948 146.823 232.275C141.723 260.574 136.005 286.036 127.615 299.251Z" fill="#2F2E41"/>
<path d="M79.0135 145.173C84.7175 143.792 88.3953 137.198 87.2282 130.447C86.0611 123.695 80.4909 119.341 74.7869 120.723C69.0829 122.104 65.4051 128.698 66.5722 135.45C67.7394 142.201 73.3095 146.555 79.0135 145.173Z" fill="#FFB6B6"/>
<path d="M74.4221 149.703L84.1378 149.024C84.5475 148.995 84.9546 149.119 85.3023 149.377C85.6499 149.635 85.9209 150.015 86.0774 150.464L88.8231 158.343L100.234 169.507C100.234 169.507 104.752 176.312 104.763 185.102C104.773 193.891 106.366 214.234 106.366 214.234C106.366 214.234 99.7718 203.248 95.702 206.169C95.0096 206.667 94.7661 207.683 94.0408 208.197C93.6791 208.453 92.8433 208.204 92.4779 208.461C86.8698 212.402 81.0211 216.251 80.4746 215.576C79.4016 214.251 78.1 207.478 78.1 207.478L69.2065 168.799C68.7244 166.764 68.6286 164.628 68.9262 162.544C69.2237 160.46 69.9071 158.48 70.9275 156.745C71.5488 155.71 72.1998 154.939 72.8047 154.812C74.1631 154.47 73.4405 150.866 74.4221 149.703Z" fill="black"/>
<path d="M157.07 323.891L161.171 320.516L151.88 299.768L145.828 304.749L157.07 323.891Z" fill="#FFB6B6"/>
<path d="M157.69 309.969L151.262 316.77C141.042 303.29 133.316 284.385 126.769 262.916C109.614 256.968 96.6763 247.377 85.3821 235.989C81.5507 232.151 78.6785 227.221 81.9462 222.546C82.099 222.328 82.2585 222.116 82.4248 221.912C86.283 217.219 96.0673 218.113 101.798 213.813L114.599 230.01L113.794 234.352L137.839 243.993C138.996 244.473 140.061 245.219 140.973 246.189C141.885 247.159 142.626 248.333 143.153 249.643C143.68 250.953 143.982 252.374 144.043 253.823C144.104 255.273 143.921 256.722 143.506 258.088C143.416 258.396 143.315 258.7 143.203 258.999L157.69 309.969Z" fill="#2F2E41"/>
<path d="M154.679 322.523L161.244 316.403L163.284 319.877L172.922 319.842C173.398 319.84 173.862 320.018 174.246 320.351C174.63 320.683 174.915 321.153 175.058 321.69C175.201 322.227 175.195 322.805 175.041 323.338C174.888 323.871 174.594 324.332 174.203 324.654L166.049 331.364L162.625 329.084L164.094 332.972L161.02 335.502L154.679 322.523Z" fill="#2F2E41"/>
<path d="M88.7691 247.181C88.1048 246.847 87.5105 246.345 87.0279 245.71C86.5453 245.075 86.1862 244.322 85.9759 243.505C85.7656 242.688 85.7091 241.826 85.8106 240.98C85.9121 240.135 86.169 239.326 86.5632 238.61L64.5681 199.32L73.6571 198.503L93.7177 237.091C94.6892 237.954 95.3593 239.21 95.6011 240.619C95.8429 242.028 95.6395 243.494 95.0295 244.737C94.4195 245.981 93.4453 246.917 92.2915 247.367C91.1376 247.817 89.8843 247.751 88.7691 247.181Z" fill="#FFB6B6"/>
<path d="M76.1226 160.22C76.1226 160.22 70.9788 155.89 66.2251 162.332C61.4713 168.774 61.8682 195.427 61.8236 199.725C61.8096 201.071 63.4515 203.975 65.7136 207.33C66.7291 208.836 67.8697 210.432 69.0415 212.02C69.7197 212.938 69.1354 214.85 69.8163 215.743C70.4935 216.631 72.436 216.5 73.0802 217.324C76.1376 221.235 78.6215 224.213 78.6215 224.213L88.5749 224.358C88.6872 215.599 83.6201 207.781 77.1104 200.226L76.1226 160.22Z" fill="black"/>
<path d="M90.076 126.886C89.686 127.114 89.3075 127.334 88.9358 127.543C87.444 128.411 85.9024 129.153 84.3224 129.764C84.0595 128.918 83.6584 128.141 83.142 127.477C83.2741 128.393 83.2068 129.334 82.9463 130.21C80.5547 130.911 78.0442 130.797 75.7054 129.879C77.2349 133.232 78.365 140.296 78.2828 146.596C78.2469 149.926 77.866 153.043 77.0343 155.283L75.9655 151.434C75.8664 150.059 75.6672 148.697 75.3701 147.363C74.6534 143.618 73.9843 146.122 72.9994 147.978L66.1107 149.759C66.0987 149.665 66.09 149.564 66.0779 149.469C66.0617 149.35 66.0454 149.231 66.0249 149.113C65.8967 148.348 65.6627 147.613 65.3325 146.939C65.2975 147.842 65.0722 148.721 64.6769 149.496C64.6661 149.516 64.6567 149.537 64.6489 149.559C64.5265 149.793 64.3915 150.018 64.2446 150.232C64.2378 150.237 64.2317 150.244 64.2264 150.252C59.7789 150.956 56.6611 123.808 62.96 123.303C63.1432 123.288 63.178 122.957 63.2915 122.786C63.4051 122.615 63.5153 122.449 63.6339 122.282C63.649 122.266 63.6619 122.247 63.672 122.226C64.0087 121.765 64.3571 121.321 64.7255 120.893C64.8342 120.769 64.9471 120.644 65.06 120.519C66.7887 118.641 68.8466 117.238 71.0865 116.41C71.3396 116.318 71.6018 116.229 71.869 116.143C72.1329 116.064 72.4019 115.989 72.6725 115.923L72.7641 115.901C72.8932 115.87 73.0273 115.842 73.1572 115.816C73.3204 115.782 73.4845 115.752 73.6453 115.729C74.2489 116.089 74.7655 116.624 75.1464 117.285L79.5474 116.22C79.664 116.191 79.7814 116.168 79.8997 116.15L79.908 116.148C85.4025 115.058 88.9352 120.287 90.076 126.886Z" fill="#2F2E41"/>
<path d="M66.0897 122.087C65.1474 122.892 64.156 123.721 63.0062 123.921C61.8563 124.12 60.5101 123.462 60.1919 122.139C59.8028 120.521 61.0369 119.048 62.1461 117.997L65.6633 114.663C66.3074 113.987 67.0345 113.431 67.8197 113.013C68.2141 112.808 68.6425 112.71 69.0732 112.727C69.5039 112.744 69.9258 112.875 70.3078 113.111C70.6858 113.414 70.9922 113.825 71.1977 114.307C71.4033 114.789 71.5012 115.325 71.4821 115.865C71.4319 116.946 71.1305 117.99 70.611 118.881C69.9581 120.086 69.106 121.122 68.106 121.926C67.1061 122.731 65.9789 123.288 64.7924 123.563" fill="#2F2E41"/>
<path d="M92.7659 208.7H67.2663C66.3646 208.7 65.4998 209.124 64.8622 209.879C64.2246 210.633 63.8664 211.657 63.8664 212.725C63.8664 213.792 64.2246 214.815 64.8622 215.57C65.4998 216.325 66.3646 216.749 67.2663 216.749H76.6162V247.939H83.416V216.749H92.7659C93.6676 216.749 94.5324 216.325 95.17 215.57C95.8076 214.815 96.1658 213.792 96.1658 212.725C96.1658 211.657 95.8076 210.633 95.17 209.879C94.5324 209.124 93.6676 208.7 92.7659 208.7Z" fill="#3F3D56"/>
<path d="M186.972 336.342L0.506094 336.497C0.37214 336.497 0.243808 336.433 0.149225 336.321C0.0546425 336.209 0.00152588 336.057 0.00152588 335.898C0.00152588 335.739 0.0546425 335.587 0.149225 335.475C0.243808 335.363 0.37214 335.299 0.506094 335.299L186.972 335.144C187.106 335.145 187.234 335.208 187.328 335.32C187.423 335.433 187.476 335.585 187.476 335.743C187.476 335.902 187.423 336.054 187.328 336.166C187.234 336.279 187.106 336.342 186.972 336.342Z" fill="#F2F2F2"/>
<path d="M241.235 269.528L245.386 274.883L264.809 258.479L258.683 250.576L241.235 269.528Z" fill="#FFB6B6"/>
<path d="M249.826 277.106V277.101L249.405 271.754L249.214 271.648L248.096 271.019L242.822 268.066L242.712 267.925L241.653 266.557L235.793 272.926L243.732 283.168L249.176 290.191L249.359 289.99C250.105 289.181 250.709 288.205 251.136 287.12C251.563 286.034 251.806 284.859 251.849 283.663C251.892 282.466 251.736 281.271 251.389 280.146C251.042 279.021 250.511 277.988 249.826 277.106H249.826Z" fill="#2F2E41"/>
<path d="M219.729 322.945L225.603 325.058L235.282 299.242L226.612 296.124L219.729 322.945Z" fill="#FFB6B6"/>
<path d="M234.939 328.725C234.465 327.667 233.818 326.73 233.036 325.97C232.254 325.21 231.352 324.642 230.383 324.298L227.718 319.947L227.51 319.967L220.468 320.732L220.31 320.676L218.814 320.138L216.502 329.148L235.444 335.959L235.517 335.673C235.812 334.527 235.913 333.323 235.814 332.131C235.715 330.938 235.417 329.781 234.939 328.725V328.725Z" fill="#2F2E41"/>
<path d="M268.169 187.776C268.169 187.776 305.675 230.641 281.965 243.909H274.636C274.636 243.909 272.434 234.648 267.392 226.837C266.699 225.765 264.105 225.983 263.385 224.938C258.987 218.555 254.218 213.074 250.925 213.291L251.713 242.908L252.988 253.472C253.657 258.934 234.763 306.617 234.763 306.617L222.888 301.093C222.888 301.093 235.261 261.818 235.406 256.156L225.49 193.9L268.169 187.776Z" fill="#2F2E41"/>
<path d="M271.297 189.891C271.106 190.213 270.856 190.481 270.566 190.675C270.088 190.995 269.57 191.223 269.032 191.349C260.587 193.618 233.001 198.322 225.84 196.078C224.96 195.807 224.386 195.424 224.199 194.921C223.6 193.331 223.676 186.616 224.029 178.506C224.093 176.987 225.508 175.342 225.593 173.752C225.653 172.56 224.382 171.438 224.45 170.226C224.917 162.026 225.521 153.67 225.925 148.388C226.18 144.992 226.354 142.869 226.354 142.869L221.998 110.357L222.202 109.959L222.431 109.823L236.477 101.593L237.242 99.2791C237.464 98.6128 237.849 98.0405 238.348 97.6361C238.848 97.2316 239.438 97.0137 240.043 97.0103L249.295 96.9651C249.775 96.9619 250.249 97.0945 250.677 97.3517C251.105 97.609 251.474 97.9834 251.756 98.444L254.263 102.554L270.838 115.131L270.774 115.362L262.997 143.377L262.958 145.561V145.566L262.669 163.123L263.473 165.502L262.567 169.406C262.567 169.406 262.984 173.969 265.215 177.359C267.238 180.438 269.814 183.648 270.978 186.253V186.258C271.624 187.697 271.841 188.945 271.297 189.891Z" fill="black"/>
<path d="M283.765 241.363L281.761 244.361C281.761 244.361 263.323 259.63 262.69 261.057L259.776 264.321L252.726 255.4L256.392 249.96C259.326 245.607 263.117 242.171 267.433 239.954V239.954L273.052 234.053L283.765 241.363Z" fill="#2F2E41"/>
<path d="M272.05 198.508L268.692 160.039L267.806 144.206L277.204 142.195C277.204 142.195 276.832 153.516 278.063 159.903C279.278 166.206 278.224 197.664 278.149 198.505C278.839 199.235 279.325 200.197 279.544 201.262C279.763 202.327 279.703 203.445 279.373 204.469C279.043 205.493 278.458 206.374 277.695 206.996C276.933 207.618 276.029 207.951 275.103 207.951C274.177 207.952 273.273 207.62 272.51 206.999C271.747 206.378 271.162 205.497 270.831 204.474C270.5 203.45 270.439 202.332 270.657 201.267C270.875 200.201 271.36 199.24 272.05 198.508V198.508Z" fill="#FFB6B6"/>
<path d="M281.217 168.011L269.138 170.97L268.082 165.986L266.85 164.44L264.39 149.186L260.861 140.25L261.778 109.692L270.743 115.32L270.754 115.33C272.125 117.091 273.07 119.613 274.641 122.143C279.592 130.116 280.141 149.49 279.992 160.101C279.989 160.276 280.137 160.459 280.315 160.653C281.158 161.569 281.708 162.801 281.872 164.142C282.037 165.482 281.805 166.849 281.217 168.011V168.011Z" fill="black"/>
<path d="M217.351 200.017L220.709 161.548L221.595 145.715L212.198 143.704C212.198 143.704 212.57 155.025 211.339 161.412C210.124 167.715 211.178 199.173 211.253 200.014C210.563 200.745 210.076 201.706 209.857 202.771C209.639 203.836 209.699 204.954 210.029 205.978C210.359 207.002 210.944 207.883 211.706 208.505C212.469 209.127 213.372 209.46 214.298 209.461C215.224 209.461 216.128 209.129 216.891 208.508C217.654 207.887 218.24 207.006 218.571 205.983C218.902 204.959 218.962 203.841 218.745 202.776C218.527 201.711 218.041 200.749 217.351 200.017V200.017Z" fill="#FFB6B6"/>
<path d="M228.543 141.758L225.925 148.388L225.011 150.697L222.55 165.95L221.322 167.494L220.264 172.48L219.766 172.359L210.799 170.16L208.185 169.522C207.596 168.36 207.364 166.993 207.528 165.652C207.693 164.311 208.243 163.078 209.086 162.162C209.265 161.971 209.414 161.784 209.409 161.608C209.261 150.999 209.809 131.626 214.76 123.652C216.332 121.122 217.276 118.602 218.649 116.841C218.653 116.836 218.653 116.831 218.657 116.831L221.998 110.357L222.202 109.959L222.431 109.823L228.543 141.758Z" fill="black"/>
<path d="M244.402 93.8472C251.201 93.8472 256.712 87.3234 256.712 79.2757C256.712 71.2281 251.201 64.7043 244.402 64.7043C237.603 64.7043 232.092 71.2281 232.092 79.2757C232.092 87.3234 237.603 93.8472 244.402 93.8472Z" fill="#FFB6B6"/>
<path d="M258.241 72.8835C258.198 70.3984 257.96 67.219 256.49 64.6836C255.249 62.5506 252.746 60.8603 250.413 61.7055C250.439 61.1532 250.335 60.6032 250.113 60.1165C249.891 59.6298 249.559 59.2256 249.155 58.9487C248.271 58.3098 247.208 58.1941 246.269 58.0885C243.902 57.8269 241.449 57.5552 239.053 58.0935C236.362 58.6972 234.161 60.3371 233.018 62.5959L232.992 62.6663L232.758 64.0045C232.727 64.1839 232.664 64.3533 232.572 64.5009C232.48 64.6485 232.363 64.7709 232.227 64.8597C232.092 64.9497 231.941 65.0031 231.786 65.0162C231.631 65.0292 231.475 65.0015 231.33 64.9351C231.172 64.8647 231 64.8445 230.833 64.8765C230.666 64.9086 230.509 64.9917 230.377 65.1177C230.245 65.2437 230.143 65.4082 230.082 65.595C230.02 65.7818 230.001 65.9844 230.026 66.1827L230.089 66.716L229.414 66.5651C229.244 66.5262 229.069 66.5416 228.906 66.6097C228.743 66.6779 228.598 66.7963 228.487 66.9527C228.376 67.1091 228.302 67.2978 228.273 67.4994C228.243 67.701 228.26 67.9081 228.321 68.0994L228.508 68.7081C228.369 68.7103 228.231 68.7457 228.103 68.8123C227.976 68.8788 227.86 68.9751 227.765 69.0955C227.628 69.2708 227.542 69.493 227.519 69.7299C227.497 69.9668 227.538 70.2061 227.637 70.4135C228.395 71.9438 229.468 73.2213 230.757 74.1261C231.336 74.5393 231.961 74.8558 232.614 75.0668C232.75 75.1121 232.89 75.1523 233.035 75.1875C238.253 76.5186 243.632 76.7096 248.908 75.751C248.597 76.983 248.478 78.2716 248.555 79.5541C248.725 81.1589 249.52 82.4819 250.583 82.9246C250.823 83.0211 251.071 83.0918 251.322 83.1359C251.563 83.1821 251.8 83.2511 252.032 83.3422C252.374 83.4904 252.676 83.7428 252.909 84.0739C253.142 84.4051 253.297 84.8031 253.358 85.2279C253.42 85.6526 253.385 86.089 253.258 86.4928C253.131 86.8966 252.916 87.2536 252.635 87.5276C252.635 87.5276 253.749 88.6193 253.889 88.5639C254.436 88.2778 254.894 87.7957 255.198 87.1855C257.319 83.5735 258.343 78.7643 258.241 72.8835Z" fill="#2F2E41"/>
</g>
<defs>
<clipPath id="clip0_23_114">
<rect width="329" height="337" fill="white"/>
</clipPath>
</defs>
</svg>
