<svg width="151" height="167" viewBox="0 0 151 167" fill="none" xmlns="http://www.w3.org/2000/svg">
<path d="M121.171 61.0839C115.272 61.0839 109.505 59.2927 104.599 55.9367C99.6942 52.5807 95.871 47.8107 93.6133 42.2299C91.3557 36.649 90.7649 30.5081 91.9159 24.5835C93.0668 18.659 95.9077 13.2169 100.079 8.94554C104.251 4.67417 109.566 1.76533 115.352 0.586867C121.138 -0.591599 127.136 0.0132353 132.586 2.32488C138.037 4.63653 142.695 8.55117 145.973 13.5738C149.251 18.5964 151 24.5013 151 30.542C150.991 38.6394 147.846 46.4025 142.254 52.1283C136.662 57.854 129.08 61.0748 121.171 61.0839ZM121.171 0.452487C115.359 0.452487 109.678 2.2172 104.845 5.52348C100.012 8.82975 96.2458 13.5291 94.0216 19.0272C91.7974 24.5253 91.2154 30.5753 92.3493 36.4121C93.4832 42.2489 96.282 47.6103 100.392 51.8184C104.502 56.0265 109.738 58.8923 115.438 60.0533C121.139 61.2143 127.047 60.6184 132.417 58.341C137.787 56.0636 142.376 52.207 145.606 47.2588C148.835 42.3106 150.558 36.4931 150.558 30.542C150.549 22.5645 147.45 14.9163 141.941 9.27542C136.432 3.6345 128.963 0.46148 121.171 0.452496V0.452487Z" fill="#3F3D56"/>
<path d="M120.288 45.2474C128.219 45.2474 134.649 38.6635 134.649 30.542C134.649 22.4204 128.219 15.8366 120.288 15.8366C112.356 15.8366 105.926 22.4204 105.926 30.542C105.926 38.6635 112.356 45.2474 120.288 45.2474Z" fill="#3F3D56"/>
<path d="M144.224 75.1327L135.693 80.176L140.619 88.9113L149.15 83.868L144.224 75.1327Z" fill="#FF6584"/>
<path d="M14.0239 26.1771L5.49257 31.2205L10.4181 39.9558L18.9494 34.9125L14.0239 26.1771Z" fill="#3F3D56"/>
<path d="M132.339 130.173L123.807 135.216L128.733 143.952L137.264 138.908L132.339 130.173Z" fill="#E5E5E5"/>
<path d="M120.288 34.1618C122.24 34.1618 123.823 32.5411 123.823 30.542C123.823 28.5428 122.24 26.9222 120.288 26.9222C118.335 26.9222 116.752 28.5428 116.752 30.542C116.752 32.5411 118.335 34.1618 120.288 34.1618Z" fill="#E29589"/>
<path d="M108.201 79.6901L89.9006 90.5085L100.466 109.247L118.767 98.4281L108.201 79.6901Z" fill="#E29589"/>
<path d="M115.073 166.447H1.62074V167H115.073V166.447Z" fill="#CBCBCB"/>
<path d="M44.6759 91.8381C44.3471 91.4055 44.115 90.9045 43.9959 90.3702C43.8767 89.8359 43.8735 89.2813 43.9863 88.7456C44.0991 88.2098 44.3253 87.7059 44.6489 87.2693C44.9725 86.8328 45.3856 86.4742 45.8592 86.2188L45.0946 77.6879L50.0445 75.9477L50.9589 88.0106C51.3252 88.8536 51.3767 89.805 51.1037 90.6843C50.8307 91.5637 50.2522 92.31 49.4777 92.7818C48.7033 93.2536 47.7867 93.4181 46.9017 93.2441C46.0166 93.0702 45.2247 92.5699 44.6759 91.8381Z" fill="#FFB8B8"/>
<path d="M49.9897 42.8755C49.9897 42.8755 53.3865 35.5765 56.4048 38.144C59.4231 40.7116 52.2667 62.2933 52.2667 62.2933L51.1783 83.2442L45.4419 82.6571L43.82 62.2452L49.9897 42.8755Z" fill="#CCCCCC"/>
<path d="M4.42735 150.861L8.68561 154.391L24.0074 139.253L17.7226 134.044L4.42735 150.861Z" fill="#FFB8B8"/>
<path d="M4.46665 148.537L12.8526 155.488L12.853 155.488C14.2702 156.663 15.1736 158.366 15.3645 160.223C15.5554 162.08 15.0181 163.938 13.8709 165.39L13.7303 165.568L0 154.187L4.46665 148.537Z" fill="#2F2E41"/>
<path d="M63.6067 160.659L69.0853 160.658L71.6915 139.022L63.6059 139.022L63.6067 160.659Z" fill="#FFB8B8"/>
<path d="M62.2093 158.827L72.9985 158.827H72.9989C74.8224 158.827 76.5712 159.568 77.8606 160.889C79.15 162.209 79.8745 164 79.8746 165.867V166.095L62.2096 166.096L62.2093 158.827Z" fill="#2F2E41"/>
<path d="M73.22 59.2234C73.22 59.2234 83.4979 72.0349 81.2636 84.8464C79.0292 97.6579 77.2418 107.266 77.2418 107.266L73.6668 136.092C73.6668 136.092 75.0074 143.943 73.22 145.966C73.22 145.966 75.9012 150.734 70.9856 152.564C66.0701 154.394 63.4179 151.932 63.4179 151.932C63.4179 151.932 59.814 146.616 62.0483 145.243L62.9895 88.6734L27.1927 136.55C27.1927 136.55 26.5347 142.374 21.9482 142.436L16.4679 146.616L10.2118 142.956L13.3399 138.838C13.3399 138.838 11.5524 134.262 15.5742 133.347L38.8112 102.233L44.6205 86.219C44.6205 86.219 47.7486 73.8651 56.239 68.832V63.4765L73.22 59.2234Z" fill="#2F2E41"/>
<path d="M55.5688 37.0321C56.9218 35.3949 58.8157 34.3244 60.8898 34.0245C62.9639 33.7246 65.0732 34.2164 66.8161 35.4061L67.1873 35.6595C71.1538 40.2588 73.8197 45.8789 74.8979 51.9146L76.5715 61.2824L55.5688 65.9408L50.645 48.5537C50.0201 46.3468 50.1705 43.9855 51.0701 41.8804C51.9697 39.7753 53.5616 38.0597 55.5688 37.0321V37.0321Z" fill="#CCCCCC"/>
<path d="M90.0749 93.8298C89.4927 93.6349 88.9592 93.3116 88.5121 92.8828C88.0651 92.454 87.7153 91.93 87.4874 91.3478C87.2595 90.7656 87.159 90.1393 87.1931 89.5131C87.2272 88.8868 87.3949 88.2758 87.6846 87.7231L81.6259 80.1308L85.2339 75.2356L93.6429 86.0804C94.5175 86.6402 95.1611 87.509 95.4519 88.5222C95.7426 89.5354 95.6603 90.6226 95.2205 91.5778C94.7807 92.533 94.014 93.2898 93.0656 93.7049C92.1173 94.1199 91.0532 94.1644 90.0749 93.8298Z" fill="#FFB8B8"/>
<path d="M64.5061 43.8954C64.5061 43.8954 63.1655 34.7444 67.6342 35.2019C72.1028 35.6595 78.8058 60.8249 78.8058 60.8249L90.8712 81.4147L85.062 84.6176L70.7622 66.3155L64.5061 43.8954Z" fill="#CCCCCC"/>
<path d="M72.6892 30.517H51.4097C50.972 30.5165 50.5524 30.3382 50.2428 30.0213C49.9333 29.7044 49.7592 29.2747 49.7587 28.8265V19.4349C49.7587 16.0973 51.0537 12.8963 53.3586 10.5363C55.6636 8.17618 58.7898 6.8503 62.0495 6.8503C65.3092 6.8503 68.4354 8.17618 70.7403 10.5363C73.0453 12.8963 74.3402 16.0973 74.3402 19.4349V28.8265C74.3397 29.2747 74.1656 29.7044 73.8561 30.0213C73.5466 30.3382 73.1269 30.5165 72.6892 30.517Z" fill="#2F2E41"/>
<path d="M72.482 25.4974C74.8691 21.0261 73.2642 15.42 68.8974 12.9758C64.5306 10.5316 59.0554 12.1748 56.6683 16.6461C54.2811 21.1173 55.886 26.7235 60.2528 29.1677C64.6197 31.6119 70.0948 29.9686 72.482 25.4974Z" fill="#FFB8B8"/>
<path d="M77.2479 20.3741H65.9075L65.7912 18.4613L65.2098 20.3741H63.4636L63.2332 16.583L62.0808 20.3741H58.702V20.1863C58.702 14.697 62.5032 10.2313 67.1755 10.2313H68.7744C73.4467 10.2313 77.2479 14.697 77.2479 20.1863L77.2479 20.3741Z" fill="#2F2E41"/>
<path d="M66.3769 32.2701C66.2383 32.27 66.0999 32.259 65.963 32.2374L52.4649 30.1087V15.7134C52.4649 14.9852 52.605 14.2642 52.8771 13.5915C53.1493 12.9188 53.5482 12.3075 54.051 11.7927C54.5539 11.2778 55.1508 10.8694 55.8078 10.5907C56.4648 10.3121 57.169 10.1687 57.8801 10.1687H67.3237L66.9558 10.552C61.8376 15.8875 65.6935 24.5391 68.4476 29.2212C68.6497 29.5578 68.741 29.9519 68.7081 30.3456C68.6751 30.7392 68.5196 31.1117 68.2645 31.4081C68.0301 31.6838 67.7397 31.9038 67.4137 32.0526C67.0877 32.2015 66.7338 32.2757 66.3769 32.2701Z" fill="#2F2E41"/>
</svg>
