<svg width="121" height="185" viewBox="0 0 121 185" fill="none" xmlns="http://www.w3.org/2000/svg">
<g clip-path="url(#clip0_15_133)">
<path d="M2.88 33V20.25H0.78V17.7H2.88V17.07C2.88 15.79 3.08 14.68 3.48 13.74C3.9 12.8 4.48 12.08 5.22 11.58C5.98 11.06 6.87 10.8 7.89 10.8C8.53 10.8 9.16 10.89 9.78 11.07C10.4 11.23 10.99 11.46 11.55 11.76L10.83 14.22C10.53 14.02 10.17 13.87 9.75 13.77C9.35 13.65 8.96 13.59 8.58 13.59C7.82 13.59 7.23 13.88 6.81 14.46C6.39 15.04 6.18 15.88 6.18 16.98V17.7H10.2V20.25H6.18V33H2.88ZM14.0831 18.36L14.7131 14.82H13.6931V11.1H16.9031V14.85L15.9431 18.36H14.0831ZM19.6556 22.62C19.6556 20.58 20.0756 18.57 20.9156 16.59C21.7756 14.59 22.8056 12.56 24.0056 10.5L26.5556 11.58C26.1956 12.1 25.7956 12.78 25.3556 13.62C24.9356 14.46 24.5256 15.4 24.1256 16.44C23.7256 17.46 23.3956 18.51 23.1356 19.59C22.8756 20.65 22.7456 21.69 22.7456 22.71C22.7456 24.29 23.0856 25.97 23.7656 27.75C24.4456 29.53 25.3456 31.34 26.4656 33.18L24.0656 34.41C23.2256 33.15 22.4656 31.87 21.7856 30.57C21.1256 29.27 20.6056 27.95 20.2256 26.61C19.8456 25.25 19.6556 23.92 19.6556 22.62ZM31.3205 17.31L35.0405 22.68L35.3105 23.19L35.5805 22.68L39.2705 17.31H42.8405L37.2005 25.17L42.9005 33H39.3305L35.5805 27.66L35.3105 27.18L35.0405 27.66L31.2905 33H27.7205L33.4205 25.2L27.7805 17.31H31.3205ZM50.9522 22.62C50.9522 23.92 50.7622 25.25 50.3822 26.61C50.0022 27.95 49.4822 29.27 48.8222 30.57C48.1622 31.87 47.4122 33.15 46.5722 34.41L44.1422 33.18C45.2622 31.34 46.1622 29.53 46.8422 27.75C47.5422 25.97 47.8922 24.29 47.8922 22.71C47.8922 21.69 47.7622 20.65 47.5022 19.59C47.2422 18.51 46.9022 17.46 46.4822 16.44C46.0822 15.4 45.6622 14.46 45.2222 13.62C44.8022 12.78 44.4222 12.1 44.0822 11.58L46.6022 10.5C47.8222 12.56 48.8522 14.59 49.6922 16.59C50.5322 18.57 50.9522 20.58 50.9522 22.62ZM61.4513 28.14V25.95H70.7213V28.14H61.4513ZM61.4513 23.49V21.3H70.7213V23.49H61.4513ZM84.0877 26.37C84.0877 25.67 84.1677 25.03 84.3277 24.45C84.4877 23.87 84.7477 23.34 85.1077 22.86C85.4677 22.36 85.9577 21.92 86.5777 21.54C86.9177 21.34 87.3177 21.12 87.7777 20.88C88.2377 20.62 88.6777 20.32 89.0977 19.98C89.5177 19.64 89.8677 19.24 90.1477 18.78C90.4477 18.32 90.5977 17.78 90.5977 17.16C90.5977 16.5 90.4377 15.95 90.1177 15.51C89.7977 15.05 89.3877 14.71 88.8877 14.49C88.4077 14.25 87.8777 14.13 87.2977 14.13C86.6777 14.13 86.1077 14.26 85.5877 14.52C85.0677 14.78 84.6177 15.11 84.2377 15.51C83.8577 15.91 83.5377 16.33 83.2777 16.77L81.1177 15.3C81.4777 14.48 81.9777 13.78 82.6177 13.2C83.2577 12.62 83.9877 12.18 84.8077 11.88C85.6277 11.58 86.4877 11.43 87.3877 11.43C88.1277 11.43 88.8577 11.55 89.5777 11.79C90.3177 12.01 90.9777 12.36 91.5577 12.84C92.1377 13.32 92.5977 13.93 92.9377 14.67C93.2977 15.39 93.4777 16.26 93.4777 17.28C93.4777 17.98 93.3877 18.59 93.2077 19.11C93.0477 19.61 92.8077 20.06 92.4877 20.46C92.1677 20.86 91.7977 21.22 91.3777 21.54C90.9577 21.84 90.4977 22.13 89.9977 22.41C89.4977 22.71 89.0077 23.02 88.5277 23.34C88.0477 23.64 87.6477 24.02 87.3277 24.48C87.0077 24.94 86.8477 25.57 86.8477 26.37H84.0877ZM84.1777 33V29.22H86.9077V33H84.1777Z" fill="#272727"/>
<path d="M67.7978 97.7132V95.5232H77.0678V97.7132H67.7978ZM67.7978 93.0632V90.8732H77.0678V93.0632H67.7978ZM90.4342 95.9432C90.4342 95.2432 90.5142 94.6032 90.6742 94.0232C90.8342 93.4432 91.0942 92.9132 91.4542 92.4332C91.8142 91.9332 92.3042 91.4932 92.9242 91.1132C93.2642 90.9132 93.6642 90.6932 94.1242 90.4532C94.5842 90.1932 95.0242 89.8932 95.4442 89.5532C95.8642 89.2132 96.2142 88.8132 96.4942 88.3532C96.7942 87.8932 96.9442 87.3532 96.9442 86.7332C96.9442 86.0732 96.7842 85.5232 96.4642 85.0832C96.1442 84.6232 95.7342 84.2832 95.2342 84.0632C94.7542 83.8232 94.2242 83.7032 93.6442 83.7032C93.0242 83.7032 92.4542 83.8332 91.9342 84.0932C91.4142 84.3532 90.9642 84.6832 90.5842 85.0832C90.2042 85.4832 89.8842 85.9032 89.6242 86.3432L87.4642 84.8732C87.8242 84.0532 88.3242 83.3532 88.9642 82.7732C89.6042 82.1932 90.3342 81.7532 91.1542 81.4532C91.9742 81.1532 92.8342 81.0032 93.7342 81.0032C94.4742 81.0032 95.2042 81.1232 95.9242 81.3632C96.6642 81.5832 97.3242 81.9332 97.9042 82.4132C98.4842 82.8932 98.9442 83.5032 99.2842 84.2432C99.6442 84.9632 99.8242 85.8332 99.8242 86.8532C99.8242 87.5532 99.7342 88.1632 99.5542 88.6832C99.3942 89.1832 99.1542 89.6332 98.8342 90.0332C98.5142 90.4332 98.1442 90.7932 97.7242 91.1132C97.3042 91.4132 96.8442 91.7032 96.3442 91.9832C95.8442 92.2832 95.3542 92.5932 94.8742 92.9132C94.3942 93.2132 93.9942 93.5932 93.6742 94.0532C93.3542 94.5132 93.1942 95.1432 93.1942 95.9432H90.4342ZM90.5242 102.573V98.7932H93.2542V102.573H90.5242Z" fill="#272727"/>
<line y1="94.061" x2="60.5" y2="94.061" stroke="#272727" stroke-width="2"/>
<path d="M3.67887 77.67C3.67887 76.17 3.97887 74.81 4.57887 73.59C5.19887 72.35 6.03887 71.37 7.09887 70.65C8.15887 69.91 9.37887 69.54 10.7589 69.54C11.9589 69.54 13.0389 69.85 13.9989 70.47C14.9789 71.09 15.7389 71.86 16.2789 72.78V63.6H19.5789V81.78C19.5789 82.16 19.6489 82.43 19.7889 82.59C19.9289 82.75 20.1589 82.84 20.4789 82.86V85.5C19.8589 85.6 19.3789 85.65 19.0389 85.65C18.4189 85.65 17.8889 85.47 17.4489 85.11C17.0289 84.75 16.8089 84.32 16.7889 83.82L16.7589 82.65C16.1589 83.65 15.3489 84.43 14.3289 84.99C13.3089 85.53 12.2489 85.8 11.1489 85.8C10.0689 85.8 9.06887 85.59 8.14887 85.17C7.24887 84.75 6.45887 84.16 5.77887 83.4C5.11887 82.64 4.59887 81.77 4.21887 80.79C3.85887 79.81 3.67887 78.77 3.67887 77.67ZM16.2789 79.86V75.75C16.0589 75.11 15.6989 74.54 15.1989 74.04C14.7189 73.52 14.1689 73.11 13.5489 72.81C12.9489 72.51 12.3489 72.36 11.7489 72.36C11.0489 72.36 10.4089 72.51 9.82887 72.81C9.26887 73.11 8.77887 73.51 8.35887 74.01C7.95887 74.51 7.64887 75.08 7.42887 75.72C7.20887 76.36 7.09887 77.03 7.09887 77.73C7.09887 78.45 7.21887 79.13 7.45887 79.77C7.69887 80.39 8.03887 80.95 8.47887 81.45C8.93887 81.93 9.45887 82.31 10.0389 82.59C10.6389 82.85 11.2889 82.98 11.9889 82.98C12.4289 82.98 12.8689 82.9 13.3089 82.74C13.7689 82.58 14.1989 82.36 14.5989 82.08C15.0189 81.8 15.3689 81.47 15.6489 81.09C15.9489 80.71 16.1589 80.3 16.2789 79.86ZM24.2811 89.19C24.5811 89.23 24.8711 89.27 25.1511 89.31C25.4511 89.37 25.6911 89.4 25.8711 89.4C26.2111 89.4 26.5011 89.29 26.7411 89.07C27.0011 88.87 27.2611 88.49 27.5211 87.93C27.7811 87.37 28.1011 86.56 28.4811 85.5L22.0311 69.81H25.4811L30.2811 82.14L34.5411 69.81H37.7211L30.6111 89.13C30.3911 89.71 30.0711 90.24 29.6511 90.72C29.2311 91.22 28.7111 91.61 28.0911 91.89C27.4711 92.17 26.7411 92.31 25.9011 92.31C25.6611 92.31 25.4111 92.29 25.1511 92.25C24.8911 92.21 24.6011 92.15 24.2811 92.07V89.19ZM3.67887 112.67C3.67887 111.17 3.97887 109.81 4.57887 108.59C5.19887 107.35 6.03887 106.37 7.09887 105.65C8.15887 104.91 9.37887 104.54 10.7589 104.54C11.9589 104.54 13.0389 104.85 13.9989 105.47C14.9789 106.09 15.7389 106.86 16.2789 107.78V98.6H19.5789V116.78C19.5789 117.16 19.6489 117.43 19.7889 117.59C19.9289 117.75 20.1589 117.84 20.4789 117.86V120.5C19.8589 120.6 19.3789 120.65 19.0389 120.65C18.4189 120.65 17.8889 120.47 17.4489 120.11C17.0289 119.75 16.8089 119.32 16.7889 118.82L16.7589 117.65C16.1589 118.65 15.3489 119.43 14.3289 119.99C13.3089 120.53 12.2489 120.8 11.1489 120.8C10.0689 120.8 9.06887 120.59 8.14887 120.17C7.24887 119.75 6.45887 119.16 5.77887 118.4C5.11887 117.64 4.59887 116.77 4.21887 115.79C3.85887 114.81 3.67887 113.77 3.67887 112.67ZM16.2789 114.86V110.75C16.0589 110.11 15.6989 109.54 15.1989 109.04C14.7189 108.52 14.1689 108.11 13.5489 107.81C12.9489 107.51 12.3489 107.36 11.7489 107.36C11.0489 107.36 10.4089 107.51 9.82887 107.81C9.26887 108.11 8.77887 108.51 8.35887 109.01C7.95887 109.51 7.64887 110.08 7.42887 110.72C7.20887 111.36 7.09887 112.03 7.09887 112.73C7.09887 113.45 7.21887 114.13 7.45887 114.77C7.69887 115.39 8.03887 115.95 8.47887 116.45C8.93887 116.93 9.45887 117.31 10.0389 117.59C10.6389 117.85 11.2889 117.98 11.9889 117.98C12.4289 117.98 12.8689 117.9 13.3089 117.74C13.7689 117.58 14.1989 117.36 14.5989 117.08C15.0189 116.8 15.3689 116.47 15.6489 116.09C15.9489 115.71 16.1589 115.3 16.2789 114.86ZM25.6304 104.81L29.3504 110.18L29.6204 110.69L29.8904 110.18L33.5804 104.81H37.1504L31.5104 112.67L37.2104 120.5H33.6404L29.8904 115.16L29.6204 114.68L29.3504 115.16L25.6004 120.5H22.0304L27.7304 112.7L22.0904 104.81H25.6304Z" fill="#272727"/>
<path d="M2.52 173.69C2.82 173.73 3.11 173.77 3.39 173.81C3.69 173.87 3.93 173.9 4.11 173.9C4.45 173.9 4.74 173.79 4.98 173.57C5.24 173.37 5.5 172.99 5.76 172.43C6.02 171.87 6.34 171.06 6.72 170L0.27 154.31H3.72L8.52 166.64L12.78 154.31H15.96L8.85 173.63C8.63 174.21 8.31 174.74 7.89 175.22C7.47 175.72 6.95 176.11 6.33 176.39C5.71 176.67 4.98 176.81 4.14 176.81C3.9 176.81 3.65 176.79 3.39 176.75C3.13 176.71 2.84 176.65 2.52 176.57V173.69ZM17.423 155.36L18.053 151.82H17.033V148.1H20.243V151.85L19.283 155.36H17.423ZM30.6309 165.14V162.95H39.9009V165.14H30.6309ZM30.6309 160.49V158.3H39.9009V160.49H30.6309ZM53.2673 163.37C53.2673 162.67 53.3473 162.03 53.5073 161.45C53.6673 160.87 53.9273 160.34 54.2873 159.86C54.6473 159.36 55.1373 158.92 55.7573 158.54C56.0973 158.34 56.4973 158.12 56.9573 157.88C57.4173 157.62 57.8573 157.32 58.2773 156.98C58.6973 156.64 59.0473 156.24 59.3273 155.78C59.6273 155.32 59.7773 154.78 59.7773 154.16C59.7773 153.5 59.6173 152.95 59.2973 152.51C58.9773 152.05 58.5673 151.71 58.0673 151.49C57.5873 151.25 57.0573 151.13 56.4773 151.13C55.8573 151.13 55.2873 151.26 54.7673 151.52C54.2473 151.78 53.7973 152.11 53.4173 152.51C53.0373 152.91 52.7173 153.33 52.4573 153.77L50.2973 152.3C50.6573 151.48 51.1573 150.78 51.7973 150.2C52.4373 149.62 53.1673 149.18 53.9873 148.88C54.8073 148.58 55.6673 148.43 56.5673 148.43C57.3073 148.43 58.0373 148.55 58.7573 148.79C59.4973 149.01 60.1573 149.36 60.7373 149.84C61.3173 150.32 61.7773 150.93 62.1173 151.67C62.4773 152.39 62.6573 153.26 62.6573 154.28C62.6573 154.98 62.5673 155.59 62.3873 156.11C62.2273 156.61 61.9873 157.06 61.6673 157.46C61.3473 157.86 60.9773 158.22 60.5573 158.54C60.1373 158.84 59.6773 159.13 59.1773 159.41C58.6773 159.71 58.1873 160.02 57.7073 160.34C57.2273 160.64 56.8273 161.02 56.5073 161.48C56.1873 161.94 56.0273 162.57 56.0273 163.37H53.2673ZM53.3573 170V166.22H56.0873V170H53.3573Z" fill="#272727"/>
</g>
<defs>
<clipPath id="clip0_15_133">
<rect width="121" height="185" fill="white"/>
</clipPath>
</defs>
</svg>
