<svg width="146" height="127" viewBox="0 0 146 127" fill="none" xmlns="http://www.w3.org/2000/svg">
<g filter="url(#filter0_di_15_229)">
<path d="M39.8613 111.2L43.0888 110.178C43.491 108.448 43.4643 106.647 43.011 104.93C41.7144 107.809 37.9103 108.514 35.7429 110.811C35.0723 111.533 34.5731 112.396 34.2821 113.337C33.9911 114.277 33.9158 115.271 34.0619 116.244L33.3829 118.544C34.9687 118.409 36.5064 117.932 37.8899 117.146C39.2734 116.361 40.4698 115.285 41.3968 113.993C41.9096 113.263 42.3283 112.472 42.643 111.637C41.2667 111.5 39.8613 111.2 39.8613 111.2Z" fill="#F2F2F2"/>
<path d="M36.4126 106.947L38.8447 104.595C38.4322 102.868 37.6037 101.268 36.4312 99.9335C36.5564 103.087 33.4666 105.412 32.5529 108.433C32.2751 109.378 32.2138 110.373 32.3735 111.344C32.5332 112.315 32.9098 113.238 33.4754 114.045L33.8949 116.405C35.2539 115.578 36.4172 114.467 37.3045 113.147C38.1918 111.828 38.7821 110.333 39.0347 108.764C39.1676 107.882 39.1889 106.987 39.0979 106.1C37.8045 106.59 36.4126 106.947 36.4126 106.947Z" fill="#F2F2F2"/>
<path d="M42.9148 63.159C42.6491 63.1946 42.3788 63.1715 42.123 63.0915C41.8672 63.0115 41.6321 62.8765 41.4342 62.696C41.2364 62.5154 41.0805 62.2938 40.9778 62.0466C40.875 61.7994 40.8277 61.5328 40.8393 61.2654L29.1166 49.3904L32.3891 47.1158L42.8831 59.5038C43.3317 59.553 43.7467 59.7648 44.0493 60.0991C44.3519 60.4334 44.5212 60.8668 44.5251 61.3174C44.529 61.7679 44.3673 62.2043 44.0705 62.5437C43.7737 62.8831 43.3625 63.1021 42.9148 63.159L42.9148 63.159Z" fill="#FFB6B6"/>
<path d="M25.5102 44.2538C25.5102 44.2538 24.6794 44.751 26.0622 46.2649C27.1693 47.477 32.0003 53.3043 33.9286 54.5209C33.824 54.8226 33.8228 55.1504 33.9253 55.4527C34.0277 55.7551 34.2281 56.0148 34.4947 56.191L37.4595 52.4972C37.2901 51.4382 36.5749 51.4923 36.1731 51.6209L34.313 49.3125L30.0985 42.2548L26.1044 43.8838L25.5102 44.2538Z" fill="#89CCC5"/>
<path d="M16.2523 115.011H18.4624L19.5142 106.5H16.2523V115.011Z" fill="#FFB6B6"/>
<path d="M15.531 113.499L19.0619 113.289V114.799L22.4187 117.114C22.5845 117.228 22.7094 117.392 22.7751 117.583C22.8408 117.773 22.8439 117.979 22.7839 118.171C22.7239 118.363 22.6041 118.531 22.4418 118.65C22.2795 118.769 22.0832 118.834 21.8818 118.834H17.6782L16.9537 117.34L16.6708 118.834H15.0858L15.531 113.499Z" fill="#2F2E41"/>
<path d="M28.6664 115.011H30.8765L31.9283 106.5H28.6664V115.011Z" fill="#FFB6B6"/>
<path d="M27.9451 113.499L31.4759 113.289V114.799L34.8328 117.114C34.9986 117.228 35.1235 117.392 35.1892 117.583C35.2549 117.773 35.258 117.979 35.198 118.171C35.138 118.363 35.0182 118.531 34.8559 118.65C34.6936 118.769 34.4973 118.834 34.2958 118.834H30.0923L29.3677 117.34L29.0848 118.834H27.4999L27.9451 113.499Z" fill="#2F2E41"/>
<path d="M15.2987 107.672H15.3228L15.7478 93.8336C15.4727 93.304 15.3332 92.7146 15.3414 92.118C15.3497 91.5214 15.5057 90.9361 15.7954 90.4143L15.8562 90.3043L15.6984 89.5741C15.4958 88.636 15.5888 87.6582 15.9646 86.7749L16.3612 73.8668C14.9446 64.701 21.6956 58.7235 21.6956 58.7235L20.4619 53.5422L32.6758 52.3428L31.8087 58.7235L33.9799 66.171C35.4152 80.1323 35.1548 93.7371 32.8771 106.918L32.9392 106.949C33.1628 107.026 33.2587 107.335 33.1535 107.64C33.0482 107.944 32.7817 108.129 32.5581 108.052L27.2172 107.866C26.9936 107.789 26.8977 107.48 27.0029 107.175C27.1082 106.871 27.3747 106.687 27.5983 106.764L27.9615 106.947L27.187 93.5941L27.273 91.1551L27.0959 88.3881L26.2772 75.942L23.1785 91.2471L20.0133 107.826C20.1005 107.904 20.1618 108.008 20.189 108.122C20.2161 108.237 20.2079 108.357 20.1654 108.466C20.1228 108.576 20.048 108.67 19.9508 108.736C19.8535 108.803 19.7384 108.838 19.6206 108.838H15.2987C15.1438 108.838 14.9953 108.776 14.8857 108.667C14.7762 108.558 14.7147 108.409 14.7147 108.255C14.7147 108.1 14.7762 107.952 14.8857 107.842C14.9953 107.733 15.1438 107.672 15.2987 107.672Z" fill="#2F2E41"/>
<path d="M132.42 56.315H56.8807C54.3408 56.3122 51.9058 55.3036 50.1099 53.5105C48.314 51.7175 47.3038 49.2865 47.3009 46.7508V14.3331C47.3037 11.8021 48.3102 9.37516 50.1002 7.58291C51.8902 5.79066 54.3182 4.7789 56.8533 4.76883C68.5849 1.52687 81.0415 -0.0766392 93.8827 0.00281383C106.102 0.0784607 119.075 1.68197 132.443 4.76883C134.979 4.77785 137.408 5.78914 139.199 7.58149C140.99 9.37385 141.997 11.8014 142 14.3331V46.7508C141.997 49.2865 140.987 51.7175 139.191 53.5105C137.395 55.3036 134.96 56.3122 132.42 56.315ZM56.8807 5.16864C54.447 5.1714 52.1138 6.13782 50.3929 7.8559C48.6721 9.57397 47.7041 11.9034 47.7014 14.3331V46.7508C47.7041 49.1805 48.6721 51.5099 50.3929 53.228C52.1138 54.9461 54.447 55.9125 56.8806 55.9152H132.42C134.854 55.9125 137.187 54.9461 138.908 53.228C140.629 51.5099 141.597 49.1805 141.6 46.7508V14.3331C141.597 11.9034 140.629 9.57397 138.908 7.8559C137.187 6.13782 134.854 5.1714 132.42 5.16864L132.375 5.16347C104.712 -1.22734 80.0348 -1.22822 56.9341 5.16142L56.8807 5.16864Z" fill="#E6E6E6"/>
<path d="M55.5482 47.8547C55.5184 47.8547 55.489 47.8489 55.4615 47.8375C55.434 47.8261 55.409 47.8094 55.3879 47.7884C55.3669 47.7674 55.3502 47.7425 55.3388 47.715C55.3274 47.6875 55.3215 47.6581 55.3215 47.6284V13.4554C55.3215 13.3954 55.3454 13.3379 55.3879 13.2954C55.4304 13.253 55.4881 13.2291 55.5482 13.2291C55.6083 13.2291 55.666 13.253 55.7085 13.2954C55.751 13.3379 55.7749 13.3954 55.7749 13.4554V47.6284C55.7749 47.6581 55.769 47.6875 55.7576 47.715C55.7463 47.7425 55.7296 47.7674 55.7085 47.7884C55.6875 47.8094 55.6625 47.8261 55.635 47.8375C55.6075 47.8489 55.578 47.8547 55.5482 47.8547Z" fill="#E6E6E6"/>
<path d="M75.3707 47.8547C75.341 47.8547 75.3115 47.8489 75.284 47.8375C75.2565 47.8261 75.2315 47.8094 75.2104 47.7884C75.1894 47.7674 75.1727 47.7425 75.1613 47.715C75.1499 47.6875 75.1441 47.6581 75.1441 47.6284V13.4554C75.1441 13.3954 75.1679 13.3379 75.2104 13.2954C75.253 13.253 75.3106 13.2291 75.3707 13.2291C75.4309 13.2291 75.4885 13.253 75.531 13.2954C75.5735 13.3379 75.5974 13.3954 75.5974 13.4554V47.6284C75.5974 47.6581 75.5916 47.6875 75.5802 47.715C75.5688 47.7425 75.5521 47.7674 75.531 47.7884C75.51 47.8094 75.485 47.8261 75.4575 47.8375C75.43 47.8489 75.4005 47.8547 75.3707 47.8547Z" fill="#E6E6E6"/>
<path d="M95.1933 47.8547C95.1635 47.8547 95.134 47.8489 95.1065 47.8375C95.079 47.8261 95.054 47.8094 95.033 47.7884C95.0119 47.7674 94.9952 47.7425 94.9838 47.715C94.9724 47.6875 94.9666 47.6581 94.9666 47.6284V13.4554C94.9666 13.3954 94.9905 13.3379 95.033 13.2954C95.0755 13.253 95.1331 13.2291 95.1933 13.2291C95.2534 13.2291 95.311 13.253 95.3535 13.2954C95.3961 13.3379 95.4199 13.3954 95.4199 13.4554V47.6284C95.4199 47.6581 95.4141 47.6875 95.4027 47.715C95.3913 47.7425 95.3746 47.7674 95.3536 47.7884C95.3325 47.8094 95.3075 47.8261 95.28 47.8375C95.2525 47.8489 95.223 47.8547 95.1933 47.8547Z" fill="#E6E6E6"/>
<path d="M115.016 47.8547C114.986 47.8547 114.957 47.8489 114.929 47.8375C114.902 47.8261 114.877 47.8094 114.855 47.7884C114.834 47.7674 114.818 47.7425 114.806 47.715C114.795 47.6875 114.789 47.6581 114.789 47.6284V13.4554C114.789 13.3954 114.813 13.3379 114.855 13.2954C114.898 13.253 114.956 13.2291 115.016 13.2291C115.076 13.2291 115.134 13.253 115.176 13.2954C115.219 13.3379 115.242 13.3954 115.242 13.4554V47.6284C115.242 47.6581 115.237 47.6875 115.225 47.715C115.214 47.7425 115.197 47.7674 115.176 47.7884C115.155 47.8094 115.13 47.8261 115.103 47.8375C115.075 47.8489 115.046 47.8547 115.016 47.8547Z" fill="#E6E6E6"/>
<path d="M53.7827 18.5478C53.7827 18.5181 53.7886 18.4886 53.8 18.4612C53.8113 18.4337 53.828 18.4088 53.8491 18.3878C53.8701 18.3667 53.8951 18.3501 53.9226 18.3387C53.9501 18.3273 53.9796 18.3215 54.0094 18.3215H135.291C135.321 18.3215 135.351 18.3273 135.378 18.3387C135.406 18.3501 135.431 18.3668 135.452 18.3878C135.473 18.4088 135.489 18.4337 135.501 18.4612C135.512 18.4887 135.518 18.5181 135.518 18.5478C135.518 18.5775 135.512 18.6069 135.501 18.6344C135.489 18.6619 135.473 18.6868 135.452 18.7078C135.431 18.7288 135.406 18.7455 135.378 18.7569C135.351 18.7683 135.321 18.7741 135.291 18.7741H54.0094C53.9796 18.7741 53.9501 18.7683 53.9226 18.7569C53.8951 18.7455 53.8701 18.7289 53.8491 18.7078C53.828 18.6868 53.8113 18.6619 53.8 18.6344C53.7886 18.607 53.7827 18.5775 53.7827 18.5478Z" fill="#E6E6E6"/>
<path d="M53.7827 43.7355C53.7827 43.7057 53.7886 43.6763 53.8 43.6489C53.8113 43.6214 53.828 43.5964 53.8491 43.5754C53.8701 43.5544 53.8951 43.5377 53.9226 43.5264C53.9501 43.515 53.9796 43.5091 54.0094 43.5092H135.291C135.352 43.5092 135.409 43.533 135.452 43.5754C135.494 43.6179 135.518 43.6754 135.518 43.7355C135.518 43.7955 135.494 43.853 135.452 43.8955C135.409 43.9379 135.352 43.9618 135.291 43.9618H54.0094C53.9796 43.9618 53.9501 43.9559 53.9226 43.9446C53.8951 43.9332 53.8701 43.9165 53.8491 43.8955C53.828 43.8745 53.8113 43.8495 53.8 43.8221C53.7886 43.7946 53.7827 43.7652 53.7827 43.7355Z" fill="#E6E6E6"/>
<path d="M53.7827 31.1416C53.7827 31.1119 53.7886 31.0825 53.8 31.055C53.8113 31.0276 53.828 31.0026 53.8491 30.9816C53.8701 30.9606 53.8951 30.9439 53.9226 30.9325C53.9501 30.9212 53.9796 30.9153 54.0094 30.9153H135.291C135.352 30.9153 135.409 30.9392 135.452 30.9816C135.494 31.0241 135.518 31.0816 135.518 31.1416C135.518 31.2017 135.494 31.2592 135.452 31.3017C135.409 31.3441 135.352 31.368 135.291 31.368H54.0094C53.9796 31.368 53.9501 31.3621 53.9226 31.3507C53.8951 31.3394 53.8701 31.3227 53.8491 31.3017C53.828 31.2807 53.8113 31.2557 53.8 31.2283C53.7886 31.2008 53.7827 31.1714 53.7827 31.1416Z" fill="#E6E6E6"/>
<path d="M134.206 47.8547C134.236 47.8547 134.265 47.8489 134.293 47.8375C134.32 47.8261 134.345 47.8094 134.366 47.7884C134.387 47.7674 134.404 47.7425 134.415 47.715C134.427 47.6875 134.433 47.6581 134.433 47.6284V13.4554C134.433 13.3954 134.409 13.3379 134.366 13.2954C134.324 13.253 134.266 13.2291 134.206 13.2291C134.146 13.2291 134.088 13.253 134.046 13.2954C134.003 13.3379 133.979 13.3954 133.979 13.4554V47.6284C133.979 47.6581 133.985 47.6875 133.997 47.715C134.008 47.7425 134.025 47.7674 134.046 47.7884C134.067 47.8094 134.092 47.8261 134.119 47.8375C134.147 47.8489 134.176 47.8547 134.206 47.8547Z" fill="#E6E6E6"/>
<path d="M67.9125 29.6083H62.2031C61.889 29.6081 61.5856 29.4947 61.3486 29.2891C61.1115 29.0835 60.9567 28.7994 60.9127 28.4889C60.5601 25.899 60.5601 23.2733 60.9127 20.6833C60.9562 20.3766 61.1079 20.0955 61.3404 19.8903C61.5729 19.6852 61.871 19.5696 62.1812 19.5641C63.9776 18.7602 65.9121 18.7603 67.9321 19.564C68.1203 19.5665 68.3056 19.6101 68.4751 19.6917C68.6445 19.7733 68.7941 19.8909 68.9131 20.0363C69.0373 20.1876 69.1262 20.3646 69.1732 20.5545C69.2203 20.7444 69.2245 20.9423 69.1853 21.1339C68.7267 23.4126 68.7267 25.7596 69.1853 28.0383C69.2245 28.2299 69.2203 28.4279 69.1732 28.6177C69.1262 28.8076 69.0373 28.9846 68.9131 29.1359C68.792 29.2839 68.6393 29.4031 68.4662 29.4848C68.2931 29.5665 68.104 29.6087 67.9125 29.6083Z" fill="#89CCC5"/>
<path d="M67.3145 22.54H62.5091C62.4294 22.54 62.353 22.5084 62.2967 22.4522C62.2404 22.3959 62.2087 22.3197 62.2087 22.2401C62.2087 22.1606 62.2404 22.0844 62.2967 22.0281C62.353 21.9719 62.4294 21.9403 62.5091 21.9403H67.3145C67.3942 21.9403 67.4706 21.9719 67.5269 22.0281C67.5832 22.0844 67.6149 22.1606 67.6149 22.2401C67.6149 22.3197 67.5832 22.3959 67.5269 22.4522C67.4706 22.5084 67.3942 22.54 67.3145 22.54Z" fill="white"/>
<path d="M67.3145 24.9388H62.5091C62.4294 24.9388 62.353 24.9072 62.2967 24.851C62.2404 24.7948 62.2087 24.7185 62.2087 24.639C62.2087 24.5594 62.2404 24.4832 62.2967 24.4269C62.353 24.3707 62.4294 24.3391 62.5091 24.3391H67.3145C67.3942 24.3391 67.4706 24.3707 67.5269 24.4269C67.5832 24.4832 67.6149 24.5594 67.6149 24.639C67.6149 24.7185 67.5832 24.7948 67.5269 24.851C67.4706 24.9072 67.3942 24.9388 67.3145 24.9388Z" fill="white"/>
<path d="M67.3145 27.3376H62.5091C62.4294 27.3376 62.353 27.306 62.2967 27.2498C62.2404 27.1936 62.2087 27.1173 62.2087 27.0378C62.2087 26.9583 62.2404 26.882 62.2967 26.8258C62.353 26.7695 62.4294 26.7379 62.5091 26.7379H67.3145C67.3942 26.7379 67.4706 26.7695 67.5269 26.8258C67.5832 26.882 67.6149 26.9583 67.6149 27.0378C67.6149 27.1173 67.5832 27.1936 67.5269 27.2498C67.4706 27.306 67.3942 27.3376 67.3145 27.3376Z" fill="white"/>
<path d="M108.959 42.8018H103.25C102.936 42.8016 102.632 42.6883 102.395 42.4826C102.158 42.277 102.003 41.9929 101.959 41.6825C101.607 39.0925 101.607 36.4668 101.959 33.8768C102.003 33.5701 102.154 33.289 102.387 33.0839C102.619 32.8788 102.918 32.7631 103.228 32.7577C105.024 31.9538 106.959 31.9539 108.979 32.7576C109.167 32.7601 109.352 32.8036 109.522 32.8852C109.691 32.9668 109.841 33.0845 109.96 33.2299C110.084 33.3812 110.173 33.5582 110.22 33.748C110.267 33.9379 110.271 34.1358 110.232 34.3275C109.773 36.6062 109.773 38.9532 110.232 41.2318C110.271 41.4235 110.267 41.6214 110.22 41.8113C110.173 42.0011 110.084 42.1781 109.96 42.3294C109.839 42.4774 109.686 42.5966 109.513 42.6783C109.34 42.76 109.151 42.8022 108.959 42.8018Z" fill="#89CCC5"/>
<path d="M108.361 35.7335H103.556C103.476 35.7335 103.4 35.7019 103.343 35.6457C103.287 35.5895 103.255 35.5132 103.255 35.4337C103.255 35.3541 103.287 35.2779 103.343 35.2216C103.4 35.1654 103.476 35.1338 103.556 35.1338H108.361C108.441 35.1338 108.517 35.1654 108.574 35.2216C108.63 35.2779 108.662 35.3541 108.662 35.4337C108.662 35.5132 108.63 35.5895 108.574 35.6457C108.517 35.7019 108.441 35.7335 108.361 35.7335Z" fill="white"/>
<path d="M108.361 38.1324H103.556C103.476 38.1324 103.4 38.1008 103.343 38.0445C103.287 37.9883 103.255 37.912 103.255 37.8325C103.255 37.753 103.287 37.6767 103.343 37.6205C103.4 37.5642 103.476 37.5327 103.556 37.5327H108.361C108.441 37.5327 108.517 37.5642 108.574 37.6205C108.63 37.6767 108.662 37.753 108.662 37.8325C108.662 37.912 108.63 37.9883 108.574 38.0445C108.517 38.1008 108.441 38.1324 108.361 38.1324Z" fill="white"/>
<path d="M126.379 29.6083H120.669C120.355 29.6081 120.052 29.4947 119.815 29.2891C119.578 29.0835 119.423 28.7994 119.379 28.4889C119.026 25.899 119.026 23.2733 119.379 20.6833C119.423 20.3766 119.574 20.0955 119.807 19.8903C120.039 19.6852 120.337 19.5696 120.648 19.5641C122.444 18.7602 124.378 18.7603 126.399 19.564C126.587 19.5665 126.772 19.6101 126.941 19.6917C127.111 19.7733 127.26 19.8909 127.38 20.0363C127.504 20.1876 127.593 20.3646 127.64 20.5545C127.687 20.7444 127.691 20.9423 127.652 21.1339C127.193 23.4126 127.193 25.7596 127.652 28.0383C127.691 28.2299 127.687 28.4279 127.64 28.6177C127.593 28.8076 127.504 28.9846 127.38 29.1359C127.258 29.2839 127.106 29.4031 126.933 29.4848C126.759 29.5665 126.57 29.6087 126.379 29.6083Z" fill="#FD6584"/>
<path d="M125.781 24.9388H120.975C120.896 24.9388 120.819 24.9072 120.763 24.851C120.707 24.7948 120.675 24.7185 120.675 24.639C120.675 24.5594 120.707 24.4832 120.763 24.4269C120.819 24.3707 120.896 24.3391 120.975 24.3391H125.781C125.861 24.3391 125.937 24.3707 125.993 24.4269C126.05 24.4832 126.081 24.5594 126.081 24.639C126.081 24.7185 126.05 24.7948 125.993 24.851C125.937 24.9072 125.861 24.9388 125.781 24.9388Z" fill="white"/>
<path d="M125.781 27.3376H120.975C120.896 27.3376 120.819 27.306 120.763 27.2498C120.707 27.1936 120.675 27.1173 120.675 27.0378C120.675 26.9583 120.707 26.882 120.763 26.8258C120.819 26.7695 120.896 26.7379 120.975 26.7379H125.781C125.861 26.7379 125.937 26.7695 125.993 26.8258C126.05 26.882 126.081 26.9583 126.081 27.0378C126.081 27.1173 126.05 27.1936 125.993 27.2498C125.937 27.306 125.861 27.3376 125.781 27.3376Z" fill="white"/>
<path d="M30.0061 28.726C28.8701 26.9881 27.0154 25.6223 24.9499 25.5069C22.8842 25.3915 20.4018 27.1477 19.3823 28.9547C17.5175 32.2602 17.493 36.0506 20.0615 38.3496C20.4103 38.2315 21.8611 38.0622 22.2157 37.9481L22.4406 37.5427L22.718 37.7892C25.8921 38.1054 26.8692 35.9508 31.9481 34.5923C31.6511 32.5374 31.1421 30.4639 30.0061 28.726Z" fill="#2F2E41"/>
<path d="M25.6459 36.9117C27.9641 36.9117 29.8433 35.0355 29.8433 32.7211C29.8433 30.4066 27.9641 28.5304 25.6459 28.5304C23.3277 28.5304 21.4484 30.4066 21.4484 32.7211C21.4484 35.0355 23.3277 36.9117 25.6459 36.9117Z" fill="#FFB7B7"/>
<path d="M30.297 40.5074L27.895 39.0686L23.091 38.5889L18.845 40.7476L18.8876 47.3419L21.5812 54.1814L32.0751 56.3408L33.2994 50.3301C33.2994 50.3301 36.422 46.1429 33.0592 43.7448L30.297 40.5074Z" fill="#89CCC5"/>
<path d="M27.2152 26.3567C26.3057 26.1022 25.3444 26.0962 24.4318 26.3395C23.5192 26.5828 22.6888 27.0664 22.0275 27.7398C21.3662 28.4132 20.8982 29.2515 20.6725 30.1673C20.4468 31.083 20.4717 32.0425 20.7446 32.9453C23.301 33.149 25.828 32.9107 27.8199 31.1049L27.9972 29.556L28.724 30.8522C29.4571 30.6463 30.1913 30.4391 30.9267 30.2307C30.7017 29.3171 30.2406 28.4786 29.5893 27.7987C28.938 27.1189 28.1193 26.6217 27.2152 26.3567Z" fill="#2F2E41"/>
<path d="M20.0151 68.9795C19.7869 68.8392 19.5922 68.6506 19.4449 68.427C19.2975 68.2034 19.2011 67.9503 19.1623 67.6855C19.1236 67.4207 19.1434 67.1506 19.2205 66.8943C19.2976 66.638 19.4301 66.4017 19.6085 66.202L18.0596 49.6008L22.0352 49.9073L22.3077 66.1294C22.6238 66.451 22.8108 66.8771 22.8332 67.3272C22.8556 67.7772 22.7119 68.2198 22.4294 68.5711C22.1468 68.9224 21.7449 69.158 21.3 69.2333C20.855 69.3086 20.3978 69.2183 20.0151 68.9795H20.0151Z" fill="#FFB6B6"/>
<path d="M18.9922 40.8138C18.9922 40.8138 18.0338 40.6737 18.1448 42.7197C18.2337 44.3576 17.8113 54.4532 18.5331 56.6136C18.2608 56.781 18.0521 57.0341 17.9398 57.3329C17.8275 57.6318 17.818 57.9595 17.9127 58.2643L22.5497 57.2776C23.0899 56.3506 22.978 55.3988 22.5854 55.2446L22.6084 52.282L23.6332 42.5167L19.6868 40.9027L18.9922 40.8138Z" fill="#89CCC5"/>
<path d="M42.691 70.5156C42.5669 70.3643 42.478 70.1873 42.4309 69.9974C42.3838 69.8076 42.3797 69.6096 42.4189 69.418C42.8775 67.1393 42.8775 64.7923 42.4189 62.5136C42.3797 62.322 42.3838 62.1241 42.4309 61.9342C42.478 61.7443 42.5669 61.5673 42.691 61.416C42.8101 61.2706 42.9596 61.153 43.1291 61.0714C43.2986 60.9898 43.4839 60.9462 43.672 60.9437C45.6921 60.14 47.6266 60.1399 49.423 60.9438C49.7332 60.9493 50.0313 61.0649 50.2638 61.27C50.4963 61.4752 50.6479 61.7563 50.6915 62.063C51.0441 64.653 51.0441 67.2787 50.6915 69.8686C50.6474 70.1791 50.4926 70.4632 50.2556 70.6688C50.0185 70.8744 49.7151 70.9878 49.4011 70.988H43.6917C43.5002 70.9884 43.3111 70.9462 43.138 70.8645C42.9649 70.7828 42.8122 70.6636 42.691 70.5156Z" fill="#89CCC5"/>
<path d="M44.2896 63.9197H49.0951C49.1747 63.9197 49.2511 63.8881 49.3075 63.8319C49.3638 63.7756 49.3954 63.6994 49.3954 63.6198C49.3954 63.5403 49.3638 63.464 49.3075 63.4078C49.2511 63.3516 49.1747 63.32 49.0951 63.32H44.2896C44.21 63.32 44.1336 63.3516 44.0773 63.4078C44.0209 63.464 43.9893 63.5403 43.9893 63.6198C43.9893 63.6994 44.0209 63.7756 44.0773 63.8319C44.1336 63.8881 44.21 63.9197 44.2896 63.9197Z" fill="white"/>
<path d="M44.2896 66.3185H49.0951C49.1747 66.3185 49.2511 66.2869 49.3075 66.2307C49.3638 66.1745 49.3954 66.0982 49.3954 66.0187C49.3954 65.9391 49.3638 65.8629 49.3075 65.8066C49.2511 65.7504 49.1747 65.7188 49.0951 65.7188H44.2896C44.21 65.7188 44.1336 65.7504 44.0773 65.8066C44.0209 65.8629 43.9893 65.9391 43.9893 66.0187C43.9893 66.0982 44.0209 66.1745 44.0773 66.2307C44.1336 66.2869 44.21 66.3185 44.2896 66.3185Z" fill="white"/>
<path d="M44.2896 68.7174H49.0951C49.1747 68.7174 49.2511 68.6858 49.3075 68.6295C49.3638 68.5733 49.3954 68.497 49.3954 68.4175C49.3954 68.338 49.3638 68.2617 49.3075 68.2055C49.2511 68.1492 49.1747 68.1176 49.0951 68.1176H44.2896C44.21 68.1176 44.1336 68.1492 44.0773 68.2055C44.0209 68.2617 43.9893 68.338 43.9893 68.4175C43.9893 68.497 44.0209 68.5733 44.0773 68.6295C44.1336 68.6858 44.21 68.7174 44.2896 68.7174Z" fill="white"/>
<path d="M123.779 14.5613C125.88 14.5613 127.584 12.8608 127.584 10.7631C127.584 8.6655 125.88 6.96501 123.779 6.96501C121.678 6.96501 119.975 8.6655 119.975 10.7631C119.975 12.8608 121.678 14.5613 123.779 14.5613Z" fill="#E6E6E6"/>
<path d="M125.732 9.18022C125.675 9.12572 125.599 9.09531 125.52 9.09531C125.441 9.09531 125.365 9.12572 125.307 9.18022C124.5 9.82298 123.775 10.5623 123.149 11.3817C122.995 11.0846 122.841 10.7874 122.687 10.4903C122.51 10.1473 121.991 10.4503 122.169 10.793C122.394 11.2276 122.619 11.6622 122.843 12.0968C122.871 12.1412 122.909 12.1778 122.954 12.2033C123 12.2287 123.051 12.2421 123.103 12.2421C123.155 12.2421 123.206 12.2287 123.251 12.2033C123.297 12.1778 123.335 12.1412 123.362 12.0968C124.03 11.158 124.828 10.3187 125.732 9.60428C125.788 9.54782 125.819 9.47163 125.819 9.39225C125.819 9.31287 125.788 9.23669 125.732 9.18022Z" fill="white"/>
<path d="M105.158 14.5613C107.259 14.5613 108.962 12.8608 108.962 10.7631C108.962 8.6655 107.259 6.96501 105.158 6.96501C103.057 6.96501 101.354 8.6655 101.354 10.7631C101.354 12.8608 103.057 14.5613 105.158 14.5613Z" fill="#E6E6E6"/>
<path d="M107.111 9.18022C107.054 9.12572 106.978 9.09531 106.899 9.09531C106.82 9.09531 106.744 9.12572 106.686 9.18022C105.879 9.82298 105.154 10.5623 104.528 11.3817C104.374 11.0846 104.22 10.7874 104.066 10.4903C103.889 10.1473 103.37 10.4503 103.547 10.793C103.772 11.2276 103.997 11.6622 104.222 12.0968C104.249 12.1412 104.288 12.1778 104.333 12.2033C104.378 12.2287 104.43 12.2421 104.482 12.2421C104.534 12.2421 104.585 12.2287 104.63 12.2033C104.676 12.1778 104.714 12.1412 104.741 12.0968C105.409 11.158 106.207 10.3187 107.111 9.60428C107.167 9.54782 107.198 9.47163 107.198 9.39225C107.198 9.31287 107.167 9.23669 107.111 9.18022Z" fill="white"/>
<path d="M65.9136 14.1615C68.0146 14.1615 69.7179 12.461 69.7179 10.3634C69.7179 8.2657 68.0146 6.56522 65.9136 6.56522C63.8125 6.56522 62.1093 8.2657 62.1093 10.3634C62.1093 12.461 63.8125 14.1615 65.9136 14.1615Z" fill="#E6E6E6"/>
<path d="M67.8665 8.78041C67.8092 8.72591 67.7332 8.6955 67.6541 8.6955C67.575 8.6955 67.4989 8.72591 67.4417 8.78041C66.6345 9.42317 65.9095 10.1625 65.2829 10.9819C65.1291 10.6848 64.9753 10.3876 64.8215 10.0905C64.6439 9.74751 64.1254 10.0505 64.3028 10.3932C64.5278 10.8278 64.7528 11.2624 64.9777 11.697C65.0049 11.7414 65.043 11.778 65.0884 11.8035C65.1338 11.8289 65.185 11.8423 65.2371 11.8423C65.2891 11.8423 65.3403 11.8289 65.3858 11.8035C65.4312 11.778 65.4693 11.7414 65.4964 11.697C66.1641 10.7582 66.9621 9.91894 67.8665 9.20447C67.9224 9.148 67.9537 9.07182 67.9537 8.99244C67.9537 8.91306 67.9224 8.83688 67.8665 8.78041Z" fill="white"/>
<path d="M20.4619 29.7538C21.8995 29.7538 23.0649 28.5904 23.0649 27.1551C23.0649 25.7199 21.8995 24.5564 20.4619 24.5564C19.0244 24.5564 17.859 25.7199 17.859 27.1551C17.859 28.5904 19.0244 29.7538 20.4619 29.7538Z" fill="#2F2E41"/>
<path d="M60.5983 118.762C60.5984 118.793 60.5923 118.824 60.5803 118.853C60.5684 118.882 60.5509 118.908 60.5287 118.931C60.5066 118.953 60.4803 118.97 60.4513 118.982C60.4224 118.994 60.3913 119 60.36 119H4.23827C4.17508 119 4.11447 118.975 4.06979 118.93C4.0251 118.886 4 118.825 4 118.762C4 118.699 4.0251 118.639 4.06979 118.594C4.11447 118.549 4.17508 118.524 4.23827 118.524H60.36C60.3913 118.524 60.4224 118.53 60.4513 118.542C60.4803 118.554 60.5066 118.572 60.5287 118.594C60.5509 118.616 60.5684 118.642 60.5803 118.671C60.5923 118.7 60.5984 118.731 60.5983 118.762Z" fill="#CCCCCC"/>
<path d="M19.678 24.5485C19.2274 24.4234 18.7588 24.6329 18.3383 24.8372L16.8425 25.564C17.878 25.6547 18.9136 25.7454 19.9492 25.8362L20.0636 25.6212C20.422 25.3212 20.1286 24.6736 19.678 24.5485Z" fill="#2F2E41"/>
</g>
<defs>
<filter id="filter0_di_15_229" x="0" y="0" width="146" height="127" filterUnits="userSpaceOnUse" color-interpolation-filters="sRGB">
<feFlood flood-opacity="0" result="BackgroundImageFix"/>
<feColorMatrix in="SourceAlpha" type="matrix" values="0 0 0 0 0 0 0 0 0 0 0 0 0 0 0 0 0 0 127 0" result="hardAlpha"/>
<feOffset dy="4"/>
<feGaussianBlur stdDeviation="2"/>
<feComposite in2="hardAlpha" operator="out"/>
<feColorMatrix type="matrix" values="0 0 0 0 0 0 0 0 0 0 0 0 0 0 0 0 0 0 0.25 0"/>
<feBlend mode="normal" in2="BackgroundImageFix" result="effect1_dropShadow_15_229"/>
<feBlend mode="normal" in="SourceGraphic" in2="effect1_dropShadow_15_229" result="shape"/>
<feColorMatrix in="SourceAlpha" type="matrix" values="0 0 0 0 0 0 0 0 0 0 0 0 0 0 0 0 0 0 127 0" result="hardAlpha"/>
<feOffset/>
<feGaussianBlur stdDeviation="2.5"/>
<feComposite in2="hardAlpha" operator="arithmetic" k2="-1" k3="1"/>
<feColorMatrix type="matrix" values="0 0 0 0 0 0 0 0 0 0 0 0 0 0 0 0 0 0 0.3 0"/>
<feBlend mode="normal" in2="shape" result="effect2_innerShadow_15_229"/>
</filter>
</defs>
</svg>
