<svg width="146" height="118" viewBox="0 0 146 118" fill="none" xmlns="http://www.w3.org/2000/svg">
<g clip-path="url(#clip0_15_159)" filter="url(#filter0_di_15_159)">
<path d="M37.7389 109.787H26.9057C26.5397 109.786 26.1887 109.64 25.9299 109.381C25.671 109.121 25.5254 108.769 25.525 108.402V85.8151C25.5254 85.4479 25.671 85.0959 25.9299 84.8362C26.1887 84.5766 26.5397 84.4305 26.9057 84.4301H37.7389C38.105 84.4305 38.456 84.5766 38.7148 84.8362C38.9736 85.0959 39.1192 85.4479 39.1197 85.8151V108.402C39.1192 108.769 38.9736 109.121 38.7148 109.381C38.456 109.64 38.105 109.786 37.7389 109.787Z" fill="#89CCC5"/>
<path d="M63.4413 110H52.6081C52.1857 110 51.7807 109.831 51.4821 109.531C51.1834 109.232 51.0154 108.826 51.015 108.402V64.5069C51.0154 64.0832 51.1834 63.677 51.4821 63.3773C51.7807 63.0777 52.1857 62.9092 52.6081 62.9088H63.4413C63.8637 62.9092 64.2686 63.0777 64.5673 63.3773C64.8659 63.677 65.0339 64.0832 65.0344 64.5069V108.402C65.0339 108.826 64.8659 109.232 64.5673 109.531C64.2686 109.831 63.8637 110 63.4413 110ZM52.6081 63.3349C52.2983 63.3353 52.0014 63.4589 51.7824 63.6786C51.5633 63.8983 51.4401 64.1962 51.4398 64.5069V108.402C51.4401 108.713 51.5633 109.01 51.7824 109.23C52.0014 109.45 52.2983 109.573 52.6081 109.574H63.4413C63.751 109.573 64.048 109.45 64.267 109.23C64.486 109.01 64.6092 108.713 64.6096 108.402V64.5069C64.6092 64.1962 64.486 63.8983 64.267 63.6786C64.048 63.4589 63.751 63.3353 63.4413 63.3349H52.6081Z" fill="#3F3D56"/>
<path d="M89.1436 110H78.3104C77.888 110 77.4831 109.831 77.1844 109.531C76.8858 109.232 76.7178 108.826 76.7173 108.402V36.593C76.7178 36.1693 76.8858 35.7631 77.1844 35.4635C77.4831 35.1639 77.888 34.9954 78.3104 34.9949H89.1436C89.566 34.9954 89.971 35.1639 90.2696 35.4635C90.5683 35.7631 90.7363 36.1693 90.7367 36.593V108.402C90.7363 108.826 90.5683 109.232 90.2696 109.531C89.971 109.831 89.566 110 89.1436 110ZM78.3104 35.4211C78.0007 35.4214 77.7037 35.545 77.4847 35.7647C77.2657 35.9844 77.1425 36.2823 77.1421 36.593V108.402C77.1425 108.713 77.2657 109.01 77.4847 109.23C77.7037 109.45 78.0007 109.573 78.3104 109.574H89.1436C89.4534 109.573 89.7503 109.45 89.9693 109.23C90.1884 109.01 90.3116 108.713 90.3119 108.402V36.593C90.3116 36.2823 90.1884 35.9844 89.9693 35.7647C89.7503 35.545 89.4534 35.4214 89.1436 35.4211H78.3104Z" fill="#3F3D56"/>
<path d="M115.086 109.893H104.253C103.887 109.893 103.536 109.747 103.277 109.487C103.018 109.228 102.872 108.876 102.872 108.508V7.29419C102.872 6.92698 103.018 6.57494 103.277 6.31529C103.536 6.05563 103.887 5.90957 104.253 5.90915H115.086C115.452 5.90957 115.803 6.05563 116.062 6.31529C116.321 6.57494 116.466 6.92698 116.467 7.29419V108.508C116.466 108.876 116.321 109.228 116.062 109.487C115.803 109.747 115.452 109.893 115.086 109.893Z" fill="#89CCC5"/>
<path d="M47.7101 47.3807C47.7494 47.0699 47.7203 46.7543 47.6248 46.4561C47.5294 46.1578 47.3699 45.8842 47.1576 45.6544C46.9454 45.4247 46.6855 45.2444 46.3962 45.1264C46.107 45.0083 45.7955 44.9553 45.4836 44.971L41.7075 38.0226L40.8579 41.0057L43.4449 47.3739C43.506 47.8977 43.7566 48.3808 44.1491 48.7317C44.5415 49.0826 45.0487 49.2769 45.5745 49.2777C46.1002 49.2786 46.608 49.0859 47.0016 48.7363C47.3952 48.3866 47.6473 47.9043 47.7101 47.3807V47.3807Z" fill="#A0616A"/>
<path d="M18.6169 74.8161L20.72 76.3565L27.6437 68.9512L24.5395 66.6778L18.6169 74.8161Z" fill="#A0616A"/>
<path d="M23.3506 81.2863L16.7402 76.4452L18.6048 73.8831L22.6612 76.8538C23.3385 77.3499 23.7917 78.0956 23.921 78.9268C24.0503 79.758 23.8451 80.6068 23.3506 81.2863L23.3506 81.2863Z" fill="#2F2E41"/>
<path d="M29.7443 82.9695L32.3485 82.9693L33.5873 72.893L29.7439 72.8932L29.7443 82.9695Z" fill="#A0616A"/>
<path d="M37.371 85.3949L29.1865 85.3953L29.1863 82.2231L34.2086 82.2229C35.0473 82.2229 35.8517 82.557 36.4447 83.1519C37.0378 83.7468 37.371 84.5536 37.371 85.3949Z" fill="#2F2E41"/>
<path d="M37.5654 43.6693C37.5654 43.6693 38.8399 56.0281 35.6537 64.5514L33.3171 80.7457H29.2812L29.706 61.5682L28.2191 44.5216C28.2191 44.5216 31.1929 36.8506 37.5654 43.6693Z" fill="#2F2E41"/>
<path d="M23.7584 44.5215L28.0067 59.2242L19.7225 72.4353L23.8646 75.9512L33.3171 61.1419L30.5557 43.0299L23.7584 44.5215Z" fill="#2F2E41"/>
<path d="M34.5925 11.5521C37.4738 11.5521 39.8096 9.20897 39.8096 6.31857C39.8096 3.42817 37.4738 1.08504 34.5925 1.08504C31.7111 1.08504 29.3753 3.42817 29.3753 6.31857C29.3753 9.20897 31.7111 11.5521 34.5925 11.5521Z" fill="#A0616A"/>
<path d="M30.2371 13.5181C30.2371 13.5181 33.4233 11.3872 37.0344 16.0751L37.9903 45.587C37.9903 45.587 35.2289 41.7515 29.4936 45.3739C23.7584 48.9963 22.4839 44.9478 22.4839 44.9478C22.4839 44.9478 18.448 14.477 30.2371 13.5181Z" fill="#CCCCCC"/>
<path d="M36.7774 16.0007C37.6938 16.0504 38.5595 16.4382 39.2079 17.0897C39.8564 17.7411 40.2418 18.6101 40.2901 19.5294L40.9641 32.3759L45.4248 44.5216L42.8758 46.6524L34.5916 32.1628L32.8955 20.253C32.8178 19.7071 32.8617 19.1507 33.024 18.6239C33.1863 18.0971 33.4631 17.6129 33.8343 17.2062C34.2056 16.7996 34.6621 16.4805 35.171 16.2721C35.6799 16.0636 36.2285 15.9709 36.7774 16.0007Z" fill="#CCCCCC"/>
<path d="M30.759 10.2442C31.6119 11.1556 33.1958 10.6664 33.307 9.4213C33.3157 9.32464 33.3151 9.22736 33.3051 9.13081C33.2477 8.5793 32.9301 8.07859 33.0062 7.49627C33.0234 7.35134 33.0772 7.21323 33.1625 7.09501C33.8422 6.18203 35.4376 7.50336 36.0791 6.67687C36.4724 6.17009 36.0101 5.37218 36.3119 4.80576C36.7103 4.05818 37.8902 4.42696 38.6301 4.01755C39.4534 3.56203 39.4041 2.29494 38.8622 1.52423C38.2013 0.584321 37.0425 0.0827764 35.8982 0.0104881C34.7538 -0.0618002 33.6174 0.24852 32.549 0.666175C31.3351 1.14071 30.1314 1.79654 29.3844 2.86724C28.476 4.16933 28.3886 5.91986 28.8429 7.4424C29.1193 8.36859 30.0625 9.50001 30.759 10.2442Z" fill="#2F2E41"/>
<path d="M141.748 109.91H4.25219C4.18523 109.909 4.12109 109.883 4.07382 109.835C4.02654 109.787 4 109.723 4 109.656C4 109.589 4.02654 109.524 4.07382 109.477C4.12109 109.429 4.18523 109.402 4.25219 109.402H141.748C141.815 109.402 141.879 109.429 141.926 109.477C141.973 109.524 142 109.589 142 109.656C142 109.723 141.973 109.787 141.926 109.835C141.879 109.883 141.815 109.909 141.748 109.91Z" fill="#3F3D56"/>
</g>
<defs>
<filter id="filter0_di_15_159" x="0" y="0" width="146" height="118" filterUnits="userSpaceOnUse" color-interpolation-filters="sRGB">
<feFlood flood-opacity="0" result="BackgroundImageFix"/>
<feColorMatrix in="SourceAlpha" type="matrix" values="0 0 0 0 0 0 0 0 0 0 0 0 0 0 0 0 0 0 127 0" result="hardAlpha"/>
<feOffset dy="4"/>
<feGaussianBlur stdDeviation="2"/>
<feComposite in2="hardAlpha" operator="out"/>
<feColorMatrix type="matrix" values="0 0 0 0 0 0 0 0 0 0 0 0 0 0 0 0 0 0 0.25 0"/>
<feBlend mode="normal" in2="BackgroundImageFix" result="effect1_dropShadow_15_159"/>
<feBlend mode="normal" in="SourceGraphic" in2="effect1_dropShadow_15_159" result="shape"/>
<feColorMatrix in="SourceAlpha" type="matrix" values="0 0 0 0 0 0 0 0 0 0 0 0 0 0 0 0 0 0 127 0" result="hardAlpha"/>
<feOffset/>
<feGaussianBlur stdDeviation="2.5"/>
<feComposite in2="hardAlpha" operator="arithmetic" k2="-1" k3="1"/>
<feColorMatrix type="matrix" values="0 0 0 0 0 0 0 0 0 0 0 0 0 0 0 0 0 0 0.3 0"/>
<feBlend mode="normal" in2="shape" result="effect2_innerShadow_15_159"/>
</filter>
<clipPath id="clip0_15_159">
<rect width="138" height="110" fill="white" transform="translate(4)"/>
</clipPath>
</defs>
</svg>
