<svg width="32" height="32" viewBox="0 0 32 32" fill="none" xmlns="http://www.w3.org/2000/svg">
<g filter="url(#filter0_d_131_41)">
<path d="M16 8.5C14.6963 8.50165 13.4465 9.02028 12.5246 9.94213C11.6028 10.864 11.0841 12.1138 11.0825 13.4175H13.5825C13.5825 12.0837 14.6675 11 16 11C17.3325 11 18.4175 12.0837 18.4175 13.4175C18.4175 14.165 17.8162 14.7075 16.8975 15.45C16.5973 15.6851 16.3091 15.935 16.0337 16.1988C14.7862 17.445 14.75 18.7688 14.75 18.9163V19.75H17.25L17.2487 18.9587C17.25 18.9387 17.29 18.4763 17.8 17.9675C17.9875 17.78 18.2237 17.5925 18.4687 17.395C19.4425 16.6063 20.9162 15.415 20.9162 13.4175C20.9152 12.1138 20.397 10.8638 19.4753 9.94184C18.5536 9.01988 17.3037 8.50132 16 8.5ZM14.75 21H17.25V23.5H14.75V21Z" fill="#272727"/>
<path d="M16 3.5C9.1075 3.5 3.5 9.1075 3.5 16C3.5 22.8925 9.1075 28.5 16 28.5C22.8925 28.5 28.5 22.8925 28.5 16C28.5 9.1075 22.8925 3.5 16 3.5ZM16 26C10.4863 26 6 21.5137 6 16C6 10.4863 10.4863 6 16 6C21.5137 6 26 10.4863 26 16C26 21.5137 21.5137 26 16 26Z" fill="#272727"/>
</g>
<defs>
<filter id="filter0_d_131_41" x="-2" y="-2" width="36" height="36" filterUnits="userSpaceOnUse" color-interpolation-filters="sRGB">
<feFlood flood-opacity="0" result="BackgroundImageFix"/>
<feColorMatrix in="SourceAlpha" type="matrix" values="0 0 0 0 0 0 0 0 0 0 0 0 0 0 0 0 0 0 127 0" result="hardAlpha"/>
<feOffset/>
<feGaussianBlur stdDeviation="1.5"/>
<feColorMatrix type="matrix" values="0 0 0 0 0 0 0 0 0 0 0 0 0 0 0 0 0 0 0.25 0"/>
<feBlend mode="normal" in2="BackgroundImageFix" result="effect1_dropShadow_131_41"/>
<feBlend mode="normal" in="SourceGraphic" in2="effect1_dropShadow_131_41" result="shape"/>
</filter>
</defs>
</svg>
