<svg width="36" height="36" viewBox="0 0 36 36" fill="none" xmlns="http://www.w3.org/2000/svg">
<g filter="url(#filter0_d_23_218)">
<path d="M18 6.8925C16.3656 5.38965 14.2263 4.55557 12.006 4.5555C10.8308 4.55672 9.66746 4.79034 8.58291 5.2429C7.49835 5.69546 6.514 6.35804 5.6865 7.1925C2.157 10.737 2.1585 16.281 5.6895 19.8105L16.6875 30.8085C16.9425 31.257 17.4345 31.5465 18 31.5465C18.2322 31.5442 18.4606 31.4876 18.667 31.381C18.8733 31.2745 19.0517 31.121 19.188 30.933L30.3105 19.8105C33.8415 16.2795 33.8415 10.737 30.3075 7.1865C29.4804 6.35357 28.4969 5.69234 27.4134 5.24082C26.3299 4.7893 25.1678 4.5564 23.994 4.5555C21.7737 4.55586 19.6346 5.38991 18 6.8925V6.8925ZM28.1865 9.3075C30.531 11.664 30.5325 15.345 28.1895 17.6895L18 27.879L7.8105 17.6895C5.4675 15.345 5.469 11.664 7.8075 9.3135C8.9475 8.1795 10.4385 7.5555 12.006 7.5555C13.5735 7.5555 15.0585 8.1795 16.1895 9.3105L16.9395 10.0605C17.0787 10.1999 17.244 10.3105 17.426 10.386C17.6079 10.4615 17.803 10.5003 18 10.5003C18.197 10.5003 18.3921 10.4615 18.574 10.386C18.756 10.3105 18.9213 10.1999 19.0605 10.0605L19.8105 9.3105C22.0785 7.047 25.9215 7.053 28.1865 9.3075V9.3075Z" fill="#272727"/>
</g>
<defs>
<filter id="filter0_d_23_218" x="-3" y="-3" width="42" height="42" filterUnits="userSpaceOnUse" color-interpolation-filters="sRGB">
<feFlood flood-opacity="0" result="BackgroundImageFix"/>
<feColorMatrix in="SourceAlpha" type="matrix" values="0 0 0 0 0 0 0 0 0 0 0 0 0 0 0 0 0 0 127 0" result="hardAlpha"/>
<feOffset/>
<feGaussianBlur stdDeviation="1.5"/>
<feColorMatrix type="matrix" values="0 0 0 0 0 0 0 0 0 0 0 0 0 0 0 0 0 0 0.25 0"/>
<feBlend mode="normal" in2="BackgroundImageFix" result="effect1_dropShadow_23_218"/>
<feBlend mode="normal" in="SourceGraphic" in2="effect1_dropShadow_23_218" result="shape"/>
</filter>
</defs>
</svg>
