<svg width="32" height="30" viewBox="0 0 32 30" fill="none" xmlns="http://www.w3.org/2000/svg">
<g filter="url(#filter0_d_131_40)">
<path d="M25.8438 3.75H6.15625C4.69125 3.75 3.5 4.87125 3.5 6.25V23.75C3.5 25.1288 4.69125 26.25 6.15625 26.25H25.8438C27.3088 26.25 28.5 25.1288 28.5 23.75V6.25C28.5 4.87125 27.3088 3.75 25.8438 3.75ZM25.8438 23.75H6.15625C6.085 23.75 6.03625 23.73 6.015 23.73C6.00625 23.73 6.00125 23.7325 6 23.74L5.985 6.3075C5.99375 6.295 6.05 6.25 6.15625 6.25H25.8438C25.9425 6.25125 25.9962 6.285 26 6.26L26.015 23.6925C26.0062 23.705 25.95 23.75 25.8438 23.75Z" fill="#272727"/>
<path d="M8.5 8.75H16V16.25H8.5V8.75ZM17.25 18.75H8.5V21.25H23.5V18.75H18.5H17.25ZM18.5 13.75H23.5V16.25H18.5V13.75ZM18.5 8.75H23.5V11.25H18.5V8.75Z" fill="#272727"/>
</g>
<defs>
<filter id="filter0_d_131_40" x="-2" y="-3" width="36" height="36" filterUnits="userSpaceOnUse" color-interpolation-filters="sRGB">
<feFlood flood-opacity="0" result="BackgroundImageFix"/>
<feColorMatrix in="SourceAlpha" type="matrix" values="0 0 0 0 0 0 0 0 0 0 0 0 0 0 0 0 0 0 127 0" result="hardAlpha"/>
<feOffset/>
<feGaussianBlur stdDeviation="1.5"/>
<feColorMatrix type="matrix" values="0 0 0 0 0 0 0 0 0 0 0 0 0 0 0 0 0 0 0.25 0"/>
<feBlend mode="normal" in2="BackgroundImageFix" result="effect1_dropShadow_131_40"/>
<feBlend mode="normal" in="SourceGraphic" in2="effect1_dropShadow_131_40" result="shape"/>
</filter>
</defs>
</svg>
